<?xml version="1.0" standalone="no"?>
<!DOCTYPE svg PUBLIC "-//W3C//DTD SVG 20010904//EN"
 "http://www.w3.org/TR/2001/REC-SVG-20010904/DTD/svg10.dtd">
<svg version="1.0" xmlns="http://www.w3.org/2000/svg"
 width="801.000000pt" height="801.000000pt" viewBox="0 0 801.000000 801.000000"
 preserveAspectRatio="xMidYMid meet">
<metadata>
Created by potrace 1.14, written by Peter Selinger 2001-2017
</metadata>
<g transform="translate(0.000000,801.000000) scale(0.100000,-0.100000)"
fill="#000000" stroke="none">
<path d="M1569 7966 c-2 -2 -33 -6 -69 -9 -65 -6 -104 -12 -150 -23 -14 -3
-34 -8 -45 -10 -86 -16 -248 -75 -357 -130 -138 -69 -318 -202 -410 -302 -146
-159 -257 -367 -311 -587 -34 -137 -37 -158 -42 -335 -5 -202 5 -289 54 -480
40 -155 61 -211 142 -377 298 -614 912 -1113 1674 -1364 107 -35 168 -53 215
-65 8 -2 44 -10 80 -19 148 -36 405 -79 540 -89 80 -7 174 -17 177 -20 5 -5 8
-456 3 -457 -3 0 -21 -2 -40 -4 -148 -13 -205 -20 -360 -41 -391 -54 -783
-179 -1003 -322 -23 -14 -53 -32 -65 -39 -80 -43 -287 -228 -390 -348 -55 -64
-161 -223 -200 -300 -128 -251 -173 -419 -174 -650 -1 -236 64 -471 185 -668
17 -29 35 -56 39 -62 4 -5 33 -44 65 -85 137 -182 344 -360 679 -585 287 -193
436 -247 669 -241 93 3 140 10 210 30 241 71 445 210 565 386 107 156 268 561
364 912 38 137 102 440 112 528 3 30 8 58 10 61 3 6 31 217 39 299 3 30 7 73
10 95 8 72 15 153 21 242 2 48 6 88 7 89 2 2 145 10 342 20 66 3 137 7 158 9
20 1 39 0 41 -4 3 -4 7 -54 10 -111 8 -135 16 -253 21 -310 3 -25 7 -76 10
-115 3 -38 7 -90 10 -115 2 -25 7 -76 10 -115 3 -38 7 -81 10 -95 2 -14 7 -56
10 -95 4 -38 8 -83 10 -100 2 -16 9 -75 15 -130 6 -55 13 -111 15 -125 8 -53
30 -228 39 -315 8 -73 79 -303 129 -415 84 -192 173 -327 292 -445 82 -81 258
-215 283 -215 6 0 12 -3 14 -7 5 -12 213 -117 308 -156 211 -86 357 -112 630
-112 241 1 411 34 645 126 195 76 363 187 525 349 256 256 410 588 476 1025
12 86 13 384 0 445 -3 14 -7 43 -10 65 -65 501 -389 1003 -860 1329 -57 40
-290 176 -301 176 -2 0 -37 16 -78 35 -41 19 -78 35 -82 35 -4 0 -21 7 -38 15
-43 20 -235 82 -272 88 -17 3 -48 9 -70 15 -39 11 -82 18 -160 28 -22 3 -51 7
-65 10 -71 12 -254 19 -507 19 l-283 0 -1 45 c-1 40 -1 195 1 446 l0 81 58 13
c31 8 62 15 67 16 6 1 101 23 212 49 112 25 244 57 295 71 51 14 102 27 113
29 174 40 519 170 729 276 332 168 631 456 784 756 108 212 147 381 146 623 0
211 -32 339 -134 545 -94 190 -257 389 -434 533 -39 31 -77 62 -84 69 -21 20
-202 137 -277 179 -247 140 -616 287 -820 329 -90 18 -249 23 -340 11 -267
-34 -519 -234 -659 -521 -83 -169 -148 -382 -180 -590 -3 -16 -12 -70 -20
-120 -8 -49 -18 -115 -21 -145 -3 -30 -8 -62 -10 -70 -2 -8 -7 -37 -10 -65 -4
-27 -8 -59 -9 -70 -2 -11 -6 -45 -10 -75 -4 -30 -9 -66 -11 -80 -2 -14 -6 -50
-10 -80 -3 -30 -8 -71 -10 -90 -3 -19 -7 -55 -10 -80 -2 -25 -7 -61 -10 -80
-2 -19 -7 -64 -10 -100 -3 -36 -7 -81 -10 -100 -2 -19 -7 -71 -11 -115 -3 -44
-8 -93 -9 -110 -2 -16 -6 -73 -10 -125 -13 -200 -16 -235 -23 -242 -4 -3 -52
-14 -107 -23 -55 -9 -111 -18 -124 -20 -13 -2 -83 -11 -155 -20 -72 -9 -141
-17 -153 -19 -20 -3 -23 1 -24 33 -2 75 -7 169 -13 251 -3 47 -9 121 -12 165
-3 44 -7 90 -9 101 -3 12 -7 48 -10 80 -3 33 -7 73 -10 89 -2 17 -7 48 -10 70
-17 112 -24 154 -55 295 -32 145 -35 157 -74 283 -99 320 -264 648 -438 868
-15 19 -41 52 -58 74 -51 64 -192 208 -275 279 -269 229 -605 386 -919 430
-87 12 -337 20 -347 12z m211 -736 c29 -1 32 -3 15 -10 l-20 -9 20 -1 c73 -5
235 -58 325 -107 286 -153 473 -359 656 -723 97 -194 197 -549 229 -815 3 -22
7 -56 10 -75 9 -78 19 -215 30 -434 l7 -128 -84 6 c-93 7 -111 9 -253 38 -55
11 -111 22 -125 24 -56 11 -212 56 -325 92 -171 56 -355 141 -493 229 -29 18
-55 33 -57 33 -8 0 -136 90 -198 139 -75 61 -261 250 -317 326 -175 232 -269
479 -275 724 -3 139 24 259 82 355 91 154 255 264 468 314 117 28 142 30 305
22z m3860 -106 c104 -29 275 -96 400 -156 530 -257 771 -571 686 -894 -16 -63
-77 -182 -123 -243 -91 -118 -258 -253 -411 -330 -107 -54 -335 -139 -457
-171 -16 -4 -73 -20 -125 -34 -91 -25 -463 -116 -474 -116 -3 0 -4 26 -1 58 2
31 7 84 9 117 3 33 8 94 11 135 3 41 7 86 10 100 2 14 6 61 10 105 4 44 8 87
10 95 2 15 12 93 21 180 4 41 8 73 19 150 4 27 14 103 21 160 2 19 6 52 9 73
3 20 8 56 11 80 11 85 32 205 49 282 11 51 14 63 25 105 42 162 104 286 158
314 28 15 63 13 142 -10z m-1304 -3123 c-1 -127 -4 -232 -6 -235 -7 -6 -220
-17 -373 -19 l-129 -2 -2 213 c-2 144 1 212 8 213 6 0 25 2 41 4 17 2 59 7 94
10 36 4 74 9 85 10 12 2 46 7 76 10 30 4 75 10 100 14 25 5 59 9 76 10 l31 1
-1 -229z m1304 -935 c63 -3 126 -8 140 -11 13 -2 42 -7 65 -10 60 -9 257 -62
332 -91 71 -26 267 -127 294 -150 8 -8 19 -14 22 -14 17 0 142 -104 233 -195
161 -160 281 -361 319 -533 3 -12 7 -32 10 -44 27 -114 35 -270 21 -396 -10
-80 -56 -239 -92 -317 -70 -150 -200 -297 -332 -374 -100 -58 -152 -79 -272
-108 -214 -53 -445 -27 -645 71 -234 115 -355 233 -409 399 -41 123 -75 248
-81 297 -4 30 -8 66 -10 80 -6 41 -24 181 -30 240 -4 30 -8 66 -10 80 -2 14
-9 79 -15 145 -6 66 -13 136 -15 155 -2 19 -7 67 -10 105 -3 39 -8 90 -10 115
-9 97 -16 188 -20 254 -2 39 -7 122 -10 186 l-7 115 123 3 c68 2 124 4 125 5
4 3 165 -1 284 -7z m-2594 -208 c-4 -57 -9 -114 -10 -128 -2 -14 -7 -56 -10
-95 -4 -38 -9 -81 -11 -95 -2 -14 -7 -45 -10 -70 -5 -42 -20 -127 -29 -175 -2
-11 -11 -60 -21 -110 -53 -288 -198 -737 -301 -935 -28 -54 -43 -71 -87 -96
-28 -17 -71 -36 -94 -44 -40 -12 -44 -12 -110 25 -81 44 -336 219 -413 284
-195 162 -315 319 -349 456 -30 119 1 308 71 433 156 282 430 468 829 562 147
35 205 46 276 56 26 3 56 8 66 10 9 1 54 6 100 10 45 3 84 8 86 10 19 17 23
-6 17 -98z"/>
</g>
</svg>
