<?xml version="1.0" encoding="utf-8"?>
<!-- Generator: Adobe Illustrator 27.5.0, SVG Export Plug-In . SVG Version: 6.00 Build 0)  -->
<svg version="1.1" id="Layer_2_00000047031275305284460070000006894669591416258978_"
	 xmlns="http://www.w3.org/2000/svg" xmlns:xlink="http://www.w3.org/1999/xlink" x="0px" y="0px" viewBox="0 0 357.7 357.2"
	 style="enable-background:new 0 0 357.7 357.2;" xml:space="preserve">
<style type="text/css">
	.st0{fill:#FFE5FC;}
</style>
<g id="Layer_1-2">
	<path class="st0" d="M24.3,223.4c9.1-7.6,18.4-13.3,25.7-18.9c13.6-11.9,12.9-19.7-0.5-28.3S21.6,160.2,7,149.8
		c-15.7-12.3-2.5-61.3,13.5-68.6c32-13.6,62.9-6.5,90.3,5.7c12.1,4.8,4.9,11.3,7.1-8.4c1.6-14.8,0.1-32.2,3.5-49.1
		c5-20.9,24.9-27.6,36.6-28.6c14.4-2.2,36.1-0.2,44.6,18.5c8.7,20.7,14.3,40.7,21.9,60.6c1.3,3.8-8.4,4.6,0.7-3
		c18.1-16.2,43.5-27.3,70-25.7c22.6,1.9,43.4,15.7,49.2,37.7c3.3,15.3-0.9,34.3-13.7,44.2c-9.1,7.6-18.4,13.3-25.6,19.8
		c-12.8,9.9-12,19.6,3.4,28c7.2,4.2,17.3,8.2,28.6,14.1c15.4,8.4,21.9,26.4,20.3,42.1c-2.8,23.7-20.9,39.9-42,44.7
		c-26.8,6.3-52.9-2.2-72.5-14.1c-10.3-5.9-1.6-6.7-2.2-2.7c-3.1,19.8-4.2,41.4-8.1,63.2c-3.9,21.8-25,26.6-37.5,28.7
		c-13.6,1.2-35.1,1.1-42.8-20.6c-8.6-19.8-13.4-40.8-21-60.6c-0.3-2.9,8.5-3.7-0.6,4c-18.2,15.3-42.5,27.2-69,25.6
		c-20.5-0.1-43.2-13.8-49-35.7C7.5,254.2,11.6,234.3,24.3,223.4L24.3,223.4z M62.1,275.8c20.6,1.1,34.6-6,50.2-18.1
		c14.4-14,37.5-17.9,46.7,8.6c7.6,19.8,13.4,40.8,20.9,59.7c0.8,1.9,4.8,2.5,11.9,1.9c11.6-1,11.5-2,12.3-5
		c4.1-19.9,5.2-40.5,8.2-62.2c4.4-27.7,27.7-28.8,45.3-17.7c17.5,10.2,32.5,14.7,51.7,10.1c13.5-2.2,17-6.4,18.8-19.2
		c1.2-8.9,1.1-9.9-5.1-13.2c-8.3-5.1-19.4-9-29.6-15c-26.8-16.2-31.2-54.9-7.6-75.5c9.1-7.6,19.3-13.4,26.6-18.9
		c5.5-4.4,5.3-6.3,3.6-15c-3-11.5-7.2-15-21.9-15.7c-19.6-1.2-34.7,5-49.2,18c-14.5,13-37.5,17.9-47.6-8.5
		c-7.7-20.8-13.4-40.8-21.9-59.6c-1.2-2.8-2.2-2.7-12.8-0.8c-9.7,0.9-11.5,2-12.3,5c-2.7,13.9-1.3,29.4-3.7,46.2
		c-2.1,31.4-17.5,45.5-46.9,32.5c-25.3-10.5-44.3-14.7-66.9-5.8c-3.7,2.3-8.1,18.3-7.1,19.2c11.5,8.8,24.9,16.4,39.3,24.9
		c26.8,16.2,29.1,53.1,4.6,74.8c-10.1,7.7-19.3,13.4-26.6,19.9c-5.5,4.4-5.3,6.3-2.7,13.9C43.2,271.6,49.4,275.9,62.1,275.8
		L62.1,275.8z"/>
</g>
</svg>
