<?xml version="1.0" encoding="UTF-8"?>
<svg id="Layer_2" data-name="Layer 2" xmlns="http://www.w3.org/2000/svg" viewBox="0 0 265.16 275.39">
  <defs>
    <style>
      .cls-1 {
        fill: #ea5781;
      }

      .cls-2 {
        fill: #b24366;
      }

      .cls-3 {
        fill: #c0486d;
      }

      .cls-4 {
        fill: #ce4d73;
      }

      .cls-5 {
        fill: #dc527a;
      }

      .cls-6 {
        fill: #a43e5f;
      }

      .cls-7 {
        fill: #963958;
      }
    </style>
  </defs>
  <g id="Layer_1-2" data-name="Layer 1">
    <g>
      <path class="cls-7" d="m150.28,175.5c-.05-.32-.09-.64-.14-.96.02.16-.2-1.43-.12-.85.06.47-.07-.52-.08-.61-.05-.4-.1-.8-.15-1.21-.18-1.45-.35-2.9-.51-4.35-.31-2.82-.57-5.65-.78-8.48-.44-5.74-.69-11.5-.75-17.26-.13-11.52.49-23.05,1.86-34.49.08-.64.16-1.29.24-1.93.04-.32.08-.64.12-.97.2-1.56-.06.42.07-.49.21-1.53.43-3.05.67-4.58.32-2.08.68-4.15,1.33-6.15.14-.43.3-.84.46-1.26.24-.64-.5.95,0,.02.1-.19.19-.39.29-.58.2-.38.44-.73.65-1.09.44-.74-.14.12-.15.16.06-.22.44-.51.61-.68.14-.14.29-.27.44-.41.64-.61-.19.19-.2.16-.02-.08.58-.31.64-.39.34-.38-.76.17-.25.08.23-.04,1.49-.29.74-.25.29-.02.58-.01.88,0,1.21.02-.62-.21.56.08s2.23.64,3.33,1.04c.49.18.98.37,1.47.56.27.11.55.22.82.33-.56-.23-.37-.16.07.04,1.91.85,3.78,1.82,5.54,2.94.45.29.89.58,1.33.89.19.14.38.28.57.41.58.4-.81-.68.06.04.79.66,1.56,1.33,2.27,2.08.31.32.6.66.89,1,.53.6,0-.01-.09-.13.16.22.32.44.48.67.27.41.53.82.77,1.25.1.19.2.38.3.58l.14.29c.2.45.18.39-.07-.18.46.46.58,1.92.7,2.53.18.87.01-.14-.02-.2.11.18.05.66.06.87,0,.25,0,.51,0,.76,0,.13-.09,1.35-.03.72s-.04.19-.07.33c-.05.25-.1.49-.17.74-.14.55-.33,1.08-.51,1.62.29-.87-.17.36-.33.66-.3.57-.62,1.12-.98,1.65-.14.21-.3.42-.44.63.44-.68.12-.14,0,0-.38.44-.76.88-1.17,1.3s-.83.82-1.27,1.2c-.19.17-.4.33-.59.5.72-.63-.22.15-.32.23-.92.65-1.9,1.23-2.89,1.76-.57.3-1.15.58-1.73.85-.18.08-1.03.44-.3.14-.33.14-.67.27-1,.39-4.98,1.88-10.26,3-15.44,4.21-2.86.66-5.72,1.29-8.6,1.83s-5.23.91-7.71,1.19c-5.53.61-11.11.72-16.64.09-.2-.02-.88-.13.07.01-.25-.04-.5-.07-.75-.11-.5-.08-1-.16-1.5-.26-1.19-.22-2.36-.48-3.53-.78-2.15-.55-4.25-1.26-6.32-2.08-1.13-.45.53.26-.15-.06-.23-.11-.46-.2-.69-.31-.51-.24-1.02-.48-1.53-.74-1.01-.51-1.99-1.06-2.95-1.65-.9-.55-1.79-1.14-2.64-1.76-.11-.08-.75-.55-.29-.21.54.4-.43-.34-.42-.34-.48-.39-.95-.8-1.41-1.21-.74-.67-1.44-1.36-2.12-2.09-.38-.41-.75-.83-1.11-1.26-.16-.19-.31-.39-.47-.58-.2-.25-.16-.19.13.17-.11-.15-.22-.3-.33-.45-.64-.89-1.25-1.8-1.79-2.76-.26-.47-.51-.94-.75-1.42-.12-.24-.23-.49-.34-.73-.45-.95.15.49-.17-.41-.38-1.08-.74-2.15-.99-3.27-.07-.32-.13-.65-.2-.98-.04-.18-.13-.89-.02.02-.08-.65-.13-1.31-.14-1.97-.01-.52,0-1.04.03-1.57.02-.26.05-.52.07-.78-.06.89-.04.26,0,.04.12-.57.24-1.14.4-1.7.09-.31.2-.62.3-.93.26-.79-.17.25.08-.19.27-.46.48-.94.76-1.39.17-.27.97-1.28.24-.43.64-.75,1.32-1.42,2.04-2.09.77-.71-.57.34-.01,0,.19-.11.36-.25.54-.37.41-.27.83-.53,1.26-.76.31-.17.82-.55,1.18-.59-.69.07-.54.2-.16.07.31-.11.62-.23.94-.34.9-.3,1.82-.52,2.75-.69.16-.03.89-.12.23-.04-.76.08.34-.02.4-.03.56-.05,1.12-.07,1.68-.07.45,0,.9.02,1.35.05.22.02.45.04.67.06.91.07-.15.03-.2-.03.13.16,1.28.24,1.48.29.54.13,1.08.28,1.61.46.22.07,1.74.72.77.27.45.21.89.42,1.33.65.98.52,1.9,1.12,2.81,1.75.68.48.1.07-.03-.04.24.19.48.39.71.59.38.32.74.65,1.1.99.86.82,1.63,1.69,2.4,2.59.12.14.53.67,0-.03.15.2.3.4.45.6.29.41.58.82.85,1.24.65,1,1.26,2.03,1.8,3.08.26.5.51,1.01.74,1.52.1.23.2.46.31.69-.38-.81-.09-.22-.02-.04.46,1.18.88,2.37,1.24,3.59.79,2.64,1.33,5.35,1.72,8.08-.1-.71,0,.06.02.17.04.31.07.61.11.92.08.69.14,1.38.2,2.07.13,1.46.22,2.92.29,4.38.5,10.17.78,20.47.22,30.64-.14,2.5-.34,4.99-.63,7.48-.04.35-.09.71-.13,1.06-.09.73.11-.66-.01.07-.1.63-.19,1.26-.29,1.89-.21,1.25-.44,2.5-.7,3.74-.53,2.46-1.17,4.89-1.97,7.28-.35,1.06-.73,2.1-1.15,3.13-.1.26-.21.52-.31.77.32-.76-.04.08-.13.27-.28.64-.58,1.26-.89,1.89-.26.52-.52,1.02-.83,1.51.11-.18.61-.62.04-.12-.17.15-.36.32-.52.48.68-.67-.26.14-.58.32-.22.12-.44.22-.65.34-.9.48.61-.17-.28.1-.5.15-1.03.27-1.53.43-.56.18.67,0,0-.02-.72-.02.96.36-.22-.01-.27-.08-.53-.15-.79-.24.18.06.71.37-.09-.05-.64-.33-1.26-.69-1.86-1.08-.93-.6-1.85-1.23-2.76-1.87-.42-.29-.84-.59-1.26-.9-.26-.19-.52-.38-.78-.58.51.38.14.1-.15-.13-.84-.68-1.66-1.39-2.43-2.16-.36-.35-.7-.72-1.04-1.09-.21-.23-.4-.48-.61-.71-.34-.39.37.58-.08-.13-.3-.47-.61-.92-.89-1.41-.15-.27-.28-.55-.43-.82-.1-.19-.27-.77,0,.05-.16-.47-.34-.93-.46-1.42-.06-.23-.11-.47-.17-.7-.29-1.11.03.92-.05-.22-.03-.47-.06-.94-.05-1.42,0-.29.02-.59.04-.88.01-.16.14-.91.02-.28-.14.74.09-.41.1-.45.05-.23.11-.46.17-.69.15-.58.35-1.14.55-1.7.08-.23.39-.69-.03.08.11-.21.21-.44.32-.65.22-.44.46-.86.71-1.28.29-.47.62-.92.92-1.38.36-.55-.46.53-.03.03.24-.28.48-.57.72-.85.71-.79,1.48-1.5,2.28-2.19.63-.55.1-.09-.04.01.2-.15.4-.29.6-.43.5-.35,1.02-.68,1.56-.99s1.1-.6,1.66-.87c.26-.12.52-.24.78-.36.73-.34-.96.33.31-.12s2.42-.84,3.67-1.17c1.18-.31,2.38-.56,3.58-.77.28-.05.57-.1.85-.14.12-.02,1.01-.15.48-.08-.65.09.77-.09.7-.09.36-.04.72-.08,1.08-.12,5.44-.56,10.94-.69,16.4-.97,5.81-.29,11.61-.6,17.42-.86,2.81-.12,5.62-.2,8.43-.01.72.05,1.44.11,2.15.2.79.1-.56-.1.23.04.36.06.72.12,1.08.19,1.1.22,2.19.49,3.25.83.48.15.95.31,1.42.49.23.09.47.18.7.27,1.12.43-.53-.27.13.06,1,.51,2.02.97,2.99,1.55.91.54,1.77,1.14,2.64,1.76-.71-.51-.18-.14-.03-.02.24.2.48.39.71.6.42.36.83.74,1.23,1.13.79.78,1.53,1.61,2.23,2.48-.58-.73.21.31.39.58.35.51.67,1.03.98,1.57.25.43.48.87.69,1.31,0,.01.54,1.11.23.46-.25-.54.06.15.11.29.41,1.06.73,2.15.97,3.26.1.47.17.94.26,1.41-.2-1.1.02.27.04.59.08,1.13.08,2.27,0,3.4-.02.24-.05.48-.06.71-.04.72.2-1.09,0,.04-.08.47-.16.94-.27,1.4-.23,1.05-.56,2.06-.92,3.06-.28.78-.02.05.05-.09-.12.27-.24.54-.37.8-.23.48-.49.94-.76,1.4-.24.4-.5.8-.77,1.19-.13.19-.27.38-.42.57.65-.87-.09.07-.19.19-.68.77-1.43,1.45-2.21,2.12-.5.42.59-.38.04-.04-.26.16-.5.35-.76.51-.46.3-.94.57-1.42.83-.26.13-1.73.74-.75.39-.46.17-.91.35-1.38.49-1.05.33-2.13.58-3.22.74,1.17-.17-.58.02-.81.03-.55.03-1.1.03-1.65.01-.49-.02-.97-.08-1.46-.1.95.05.35.06.11.01-.36-.07-.72-.13-1.08-.21-.48-.11-.95-.23-1.41-.38-.29-.09-.58-.19-.87-.29-.13-.05-.85-.34-.31-.11.64.27-.45-.22-.46-.23-.21-.1-.42-.21-.64-.31-.49-.25-.99-.5-1.47-.77-.69-.39-1.37-.8-2.02-1.25-1.05-.74.47.46-.27-.2-.32-.29-.64-.57-.95-.87-.27-.27-.51-.56-.76-.84-.48-.55.6.87-.05-.1-.42-.62-.78-1.28-1.11-1.95-.08-.17-.15-.34-.23-.51-.28-.57.4,1.08.06.13-.14-.39-.29-.77-.42-1.16-.34-.99-.62-1.99-.89-3-.61-2.27-3.23-3.89-5.54-3.14s-3.8,3.1-3.14,5.54c1.13,4.18,2.68,8.37,5.81,11.49s7.91,5.66,12.28,6.64c10.69,2.41,22.44-2.6,27.12-12.73,2.34-5.07,3.06-10.5,2.26-16.02-.76-5.27-3.24-10.06-6.7-14.07-3.53-4.09-8.17-7.03-13.15-9.01-5.53-2.2-11.59-2.58-17.48-2.4-6.37.19-12.74.6-19.1.92-5.98.3-12.02.41-17.97,1.11s-12.03,1.98-17.2,5.19c-4.8,2.98-8.49,7.4-10.52,12.66s-1.45,11.05,1.36,15.79c2.81,4.74,7.37,8.06,11.85,11.09,2.64,1.78,5.6,3.5,8.9,3.4,3.01-.09,6.11-1.42,8.46-3.23s3.58-4.4,4.75-7.11,2.19-5.5,2.99-8.36c3.05-10.89,3.48-22.39,3.37-33.63-.05-5.66-.16-11.34-.41-17-.27-6.21-.86-12.51-2.58-18.5-3.01-10.48-9.88-20.16-20.4-24.01-9.37-3.43-21.27-.15-26.64,8.48-6.37,10.22-1.41,23.32,6.2,31.32,7.11,7.46,17.18,11.94,27.27,13.52,12.72,1.99,25.51-.03,37.94-2.9,11.27-2.6,23.95-5.09,30.91-15.31,3.14-4.61,4.34-10.64,2.62-16.01-1.61-5.06-5.22-8.91-9.45-11.96-3.96-2.86-8.63-4.94-13.27-6.43-3.4-1.1-6.92-1.25-10.19.31-2.25,1.07-4.05,3.02-5.31,5.13-2.7,4.51-3.24,9.93-3.95,15.03-.9,6.51-1.61,13.04-2.05,19.59-.86,12.63-.81,25.32.14,37.94.48,6.39,1.22,12.75,2.13,19.1.34,2.34,3.43,3.83,5.54,3.14,2.56-.83,3.5-3.03,3.14-5.54h0Z"/>
      <path class="cls-6" d="m153.5,184.89c-.46-3.21-.87-6.42-1.28-10.14s-.73-7.26-1-10.89c-.54-7.11-.84-14.24-.91-21.37-.15-14.43.65-28.86,2.39-43.18.1-.8.2-1.61.3-2.41,0,.03.2-1.55.09-.73.04-.32.09-.64.13-.96.27-1.93.55-3.85.85-5.77.41-2.6.87-5.18,1.72-7.67.1-.29.79-1.88.28-.81.28-.6.55-1.19.88-1.76.2-.35.51-1.15.86-1.34l-.32.41c.13-.16.26-.32.4-.47.2-.23.42-.45.64-.66l.22-.2c.37-.31.3-.27-.2.14.01-.06.41-.28.5-.34.08-.05.72-.49.79-.44l-.51.21c.19-.08.39-.15.59-.21.2-.06.41-.1.61-.17.84-.26-.7-.09.48-.06.46.01.91,0,1.36.05-.81-.08.58.13.62.14,1.54.35,3.04.9,4.52,1.46.55.21,1.09.42,1.63.64.17.07,1.27.54.23.09.33.14.65.28.98.43,2.5,1.12,4.93,2.4,7.22,3.91.49.32.98.65,1.45,1,.28.2.56.41.84.62-.12-.09-.72-.59-.09-.06,1.04.88,2.06,1.78,2.99,2.78.38.41.73.83,1.09,1.26.72.85-.52-.79.09.14.12.18.25.36.37.54.36.54.7,1.1,1,1.67.1.19.2.38.29.58.09.19.19.39.27.59-.24-.58-.27-.64-.08-.18.38,1.1.59,2.2.89,3.32.17.65-.06-1.12-.01-.03.02.36.05.71.06,1.06.02.76-.02,1.52-.11,2.28.13-1.12-.05.12-.08.3-.05.25-.11.49-.17.74-.19.74-.46,1.44-.7,2.16.27-.81.1-.21,0-.02-.17.34-.33.69-.51,1.03-.36.68-.75,1.34-1.18,1.98-.21.32-.44.64-.67.95.52-.71,0-.02-.13.16-.46.55-.93,1.08-1.43,1.59-.45.46-.93.91-1.41,1.34-.29.26-.59.5-.89.75-.8.66.47-.29-.32.23-1.31.87-2.61,1.72-4.01,2.45-.64.34-1.3.65-1.96.95-.04.02-1.36.58-.53.24-.47.19-.95.38-1.42.56-6.33,2.38-13.05,3.8-19.62,5.32-3.49.81-7,1.56-10.52,2.22-1.76.33-3.52.63-5.29.89s-2.59.38-4.59.59c-6.9.74-13.86.84-20.75,0-.76-.09,1.09.18-.12-.02-.38-.06-.75-.12-1.13-.18-.63-.1-1.25-.22-1.88-.34-1.5-.29-2.99-.64-4.47-1.04-1.23-.33-2.45-.7-3.66-1.11-.72-.24-1.44-.5-2.16-.77-.24-.09-.47-.18-.71-.27-.17-.07-1.67-.7-.68-.27-2.54-1.11-5.01-2.38-7.36-3.87-1.17-.73-2.29-1.52-3.4-2.35.13.1.68.55.02.02-.29-.24-.58-.47-.87-.71-.57-.48-1.13-.97-1.68-1.48-1-.93-1.97-1.91-2.88-2.93-.41-.47-.81-.95-1.21-1.43-.81-.95.52.73-.22-.27-.22-.3-.45-.61-.66-.91-.83-1.17-1.59-2.39-2.27-3.66-.32-.59-.6-1.2-.89-1.8-.58-1.18.29.82-.18-.41-.15-.38-.29-.75-.43-1.13-.49-1.39-.89-2.81-1.17-4.25-.08-.39-.14-.78-.2-1.18.15.89.03.21.01.02-.07-.92-.14-1.83-.13-2.75,0-.65.06-1.3.11-1.95.09-1.23-.14.58.02-.15.07-.32.11-.64.18-.95.15-.7.34-1.39.57-2.06.1-.31.22-.61.33-.92-.37.95.28-.55.37-.71.26-.48.53-.96.84-1.42.16-.24.34-.62.56-.8-.65.55-.31.38-.1.14.81-.92,1.71-2.05,2.77-2.7-1.05.64.46-.29.67-.43.5-.32,1.02-.62,1.54-.9.24-.13.48-.25.73-.37.2-.1,1.2-.61.12-.08.58-.28,1.24-.48,1.86-.68,1.17-.37,2.35-.62,3.55-.84.84-.15-.1-.01-.21.02.28-.1.7-.08,1-.1.67-.05,1.33-.08,2-.08.61,0,1.23.02,1.84.07.28.02.55.05.83.08,1.14.1-.99-.2.13.02,1.2.24,2.38.49,3.55.88.33.11.65.24.98.35,1.17.41-.82-.4.3.12.56.26,1.12.52,1.67.81,1.25.67,2.45,1.43,3.6,2.26.19.14.84.67.12.08.29.24.57.47.86.71.47.4.93.82,1.38,1.25,1.08,1.04,2.07,2.15,3.03,3.3.54.65.1.11,0-.02.23.3.45.6.67.91.37.51.72,1.03,1.07,1.56.83,1.27,1.58,2.58,2.27,3.93.29.56.56,1.13.83,1.7.16.34.31.69.46,1.03-.37-.86-.04-.08.05.14.61,1.52,1.13,3.08,1.59,4.66.94,3.25,1.61,6.57,2.07,9.92-.12-.89.07.62.07.64.05.38.09.77.13,1.15.09.85.17,1.69.24,2.54.14,1.7.25,3.4.33,5.1.32,6.57.43,13.16.53,19.74s.08,12.66-.3,18.97c-.18,3.14-.46,6.27-.85,9.39-.01.09-.21,1.49-.06.49-.04.28-.08.56-.12.84-.12.84-.26,1.68-.4,2.52-.26,1.53-.56,3.05-.89,4.56-.66,3-1.47,5.97-2.46,8.88-1.17,3.44-1.76,4.92-3.44,8.15-.12.22-.23.45-.35.66-.16.27-.81.89-.09.17-.2.2-.39.42-.6.61-.19.18-.82.63-.04.08-.54.38-1.1.73-1.68,1.03-.27.14-.54.27-.82.39,1.03-.47-.39.12-.6.18-.54.17-1.1.33-1.66.44.96-.18-.33-.05-.47-.04.7-.04.25.07-.03-.01-.41-.12-.81-.22-1.21-.36.85.3-.43-.21-.5-.25-.78-.4-1.52-.86-2.26-1.34-1.16-.75-2.3-1.54-3.43-2.33-.59-.41-1.17-.83-1.74-1.25.02.02-1-.75-.48-.35.39.3-.66-.53-.77-.61-1.09-.89-2.15-1.83-3.14-2.84-.44-.45-.87-.92-1.28-1.4-.09-.11-.87-1.09-.24-.26-.23-.3-.44-.6-.65-.91-.38-.57-.74-1.15-1.06-1.76-.15-.27-.28-.56-.42-.83-.56-1.07.25.84-.13-.31-.19-.59-.4-1.17-.55-1.78-.09-.35-.15-.7-.22-1.05-.22-1.02.01.75-.02-.21-.03-.71-.08-1.41-.05-2.12,0-.23.02-.47.04-.7.03-.32-.1-1.27.01-.2-.13-1.2.72-2.83,1.08-3.94.22-.68-.47.95.03-.09.16-.33.31-.66.47-.98.28-.54.58-1.07.9-1.59.35-.58.76-1.11,1.13-1.68.4-.6-.68.79.09-.11.32-.38.63-.76.97-1.12.83-.92,1.73-1.78,2.67-2.57.12-.1,1.1-.84.25-.22.3-.22.6-.44.9-.65.6-.42,1.23-.81,1.87-1.17s1.23-.67,1.86-.97c.39-.19.78-.37,1.17-.54-.72.32.14-.05.32-.12,1.53-.6,3.11-1.1,4.7-1.52s3.09-.73,4.65-1c.71-.12,1.43-.23,2.15-.33-.97.13.46-.05.53-.06.43-.05.87-.1,1.3-.14,6.87-.71,13.81-.88,20.71-1.22,7.35-.37,14.7-.78,22.05-1.09,3.57-.15,7.16-.21,10.73.09,1.81.15,2.21.2,4.05.59,1.39.29,2.77.66,4.12,1.11.59.2,1.17.4,1.75.63.15.06,1.29.55.3.11.34.15.68.3,1.02.46,1.23.58,2.43,1.22,3.59,1.93.58.35,1.15.72,1.71,1.11.25.18.51.35.75.53.13.09,1.09.86.27.19,1.05.85,2.07,1.74,3.02,2.7.52.52,1.02,1.06,1.5,1.62.16.19.32.37.47.56.1.12.84,1.1.21.24.84,1.13,1.62,2.31,2.3,3.54.33.59.64,1.19.92,1.81,0,.01.48,1.12.21.46s.16.44.17.46c.5,1.34.89,2.73,1.18,4.13.06.3.34,2.13.19.93.07.59.13,1.19.17,1.79.09,1.43.08,2.87-.04,4.3-.02.3-.06.59-.09.89-.06.73.2-1.1,0,.04-.12.64-.23,1.29-.38,1.93-.31,1.33-.73,2.62-1.22,3.9-.42,1.11.42-.84-.11.23-.1.21-.2.43-.31.64-.31.63-.65,1.25-1.02,1.86-.31.5-.63,1-.97,1.48-.11.15-.85,1.05-.15.22-.23.27-.45.55-.69.81-.88.99-1.85,1.91-2.89,2.73.74-.58.07-.07-.12.06-.25.18-.5.35-.76.51-.62.4-1.25.76-1.9,1.1-.33.17-.66.32-.99.48-1.08.54.86-.29-.28.12-.58.21-1.15.42-1.73.61s-1.18.34-1.78.48c-.36.08-.72.16-1.08.22-.24.04-.48.09-.73.12.53-.06.62-.08.28-.04-1.28.13-2.56.21-3.85.16-.61-.02-1.22-.08-1.83-.13-1.22-.11.94.21-.26-.04-.48-.1-.96-.18-1.44-.29-.6-.14-1.18-.3-1.77-.49-.35-.11-.69-.25-1.04-.36-.18-.06-.8-.33.05.04-1.27-.55-2.51-1.19-3.72-1.86-.87-.48-1.71-1-2.53-1.57-.21-.15-.44-.38-.67-.49.96.46.41.32.08.04-.39-.33-.77-.68-1.13-1.05-.3-.3-.57-.62-.85-.94-.62-.69.61.88.08.12-.15-.21-.3-.41-.44-.63-.49-.74-.92-1.51-1.3-2.31-.06-.12-.24-.72-.35-.77.33.16.34.88.06.13-.2-.53-.4-1.06-.58-1.6-.41-1.21-.76-2.44-1.09-3.67-.61-2.27-3.23-3.89-5.54-3.14s-3.8,3.1-3.14,5.54c1.35,5.02,3.19,10.08,6.97,13.81,1.8,1.78,3.95,3.24,6.17,4.46,2.74,1.5,5.64,2.83,8.7,3.51,12.94,2.84,26.92-3.37,32.44-15.65,2.74-6.09,3.51-12.63,2.49-19.21-.96-6.2-3.95-11.87-8.03-16.58s-9.8-8.45-15.78-10.84c-6.79-2.71-14.19-3.16-21.43-2.94-7.92.24-15.84.75-23.75,1.15-7.41.37-14.89.51-22.26,1.38s-14.61,2.42-20.87,6.34c-5.6,3.51-9.97,8.67-12.4,14.82s-1.89,13.32,1.56,19.06,9.05,9.77,14.53,13.45c3.19,2.15,6.83,4.22,10.83,3.83,3.62-.35,7.24-1.96,10-4.32s4.06-5.99,5.41-9.24,2.36-6.25,3.24-9.48c3.61-13.34,4.11-27.36,3.96-41.11-.07-6.98-.2-13.98-.51-20.96-.34-7.61-1.07-15.33-3.21-22.67-3.67-12.61-12.03-24.5-24.82-28.97-11.1-3.89-25.08-.11-31.48,10.06-7.73,12.29-1.62,28.09,7.54,37.69s21.08,14.55,33.44,16.46c15.4,2.38,30.92-.07,45.97-3.52,13.83-3.17,29.81-6.12,38.26-18.78,3.7-5.55,5.09-12.73,2.93-19.13-2.02-5.98-6.35-10.54-11.42-14.12s-10.47-5.94-16.09-7.73c-3.95-1.25-8.1-1.44-11.87.45-2.7,1.35-4.85,3.8-6.28,6.42-3.14,5.75-3.75,12.48-4.62,18.85-1.08,7.95-1.91,15.93-2.43,23.93-1.01,15.53-.92,31.13.27,46.64.59,7.68,1.47,15.32,2.56,22.94.34,2.34,3.43,3.83,5.54,3.14,2.56-.83,3.5-3.03,3.14-5.54h0Z"/>
      <path class="cls-2" d="m156.72,194.29c-.15-1.05-.3-2.09-.44-3.14-.07-.53-.02-.12,0-.01-.03-.24-.06-.48-.1-.73-.08-.65-.17-1.29-.25-1.94-.26-2.1-.51-4.2-.74-6.3-.47-4.28-.87-8.58-1.2-12.87-.66-8.68-1.04-17.37-1.12-26.08-.17-17.24.79-34.49,2.88-51.6.13-1.05.26-2.1.4-3.15.02-.16.17-1.31.1-.74.09-.64.18-1.29.27-1.93.29-2.09.61-4.19.93-6.27.49-3.13,1.07-6.25,2.14-9.25.11-.32.23-.63.35-.94.31-.81-.31.63.06-.15.33-.69.66-1.37,1.04-2.02.19-.32.38-.63.59-.94.1-.14.7-.91.29-.43s.23-.25.34-.37c.27-.3.57-.57.86-.86.03-.03.31-.31.34-.3s-.75.51-.32.24c.3-.18.57-.4.88-.58.09-.05.73-.47.8-.42.04.03-.88.29-.37.16.2-.05.39-.14.58-.2.35-.11.71-.19,1.07-.27-.61.13.45-.02.66-.03.23,0,.47,0,.7.01.1,0,1.05.08.57.03-.43-.05.33.06.33.06.31.06.62.13.93.2,1.89.45,3.74,1.13,5.55,1.83.66.25,1.31.51,1.96.78.16.07.33.14.49.2-.89-.37-.28-.12-.09-.04.38.17.76.34,1.14.51,2.89,1.31,5.7,2.8,8.35,4.53.64.42,1.27.85,1.9,1.31.13.1.97.71.53.38-.48-.36.12.1.23.19.18.15.36.29.54.44,1.18.98,2.31,2.04,3.34,3.17.45.49.87,1.01,1.3,1.52-.57-.66-.06-.08.19.28.22.31.44.63.64.95.38.59.74,1.21,1.06,1.83.15.29.29.58.43.88.07.14.16.3.2.44-.13-.51-.22-.58-.03-.02.22.62.43,1.24.59,1.87.1.37.19.75.26,1.13.04.2.22,1.35.14.72s.04.53.06.75c.02.37.04.74.04,1.11s0,.76-.03,1.14c-.02.36-.19,1.65-.03.69-.27,1.63-.71,3.19-1.29,4.74.31-.83-.1.22-.24.49-.17.34-.34.69-.52,1.02-.43.79-.89,1.56-1.4,2.3-.22.32-.45.63-.67.95-.29.42.07-.08.11-.14-.16.2-.32.4-.49.6-.58.7-1.2,1.37-1.84,2.01-.55.55-1.12,1.08-1.71,1.59-.34.3-.7.58-1.05.87-.39.33.09-.07.14-.11-.21.15-.41.31-.63.46-1.57,1.11-3.23,2.1-4.94,2.97-.77.4-1.55.77-2.35,1.13-.1.04-.92.4-.46.21.41-.18-.24.1-.26.11-.47.19-.94.38-1.42.56-7.58,2.87-15.63,4.57-23.51,6.39-4.21.97-8.43,1.88-12.68,2.67-2.08.38-4.16.74-6.25,1.06-.56.09-1.12.17-1.69.25.02,0-.77.11-.37.05s-.38.05-.37.05c-1.13.14-2.25.28-3.38.4-8.23.87-16.5.98-24.73,0,.91.11-.17-.03-.51-.08-.38-.06-.76-.12-1.13-.18-.88-.15-1.76-.31-2.64-.48-1.63-.33-3.25-.7-4.86-1.13s-3.32-.95-4.95-1.51c-.78-.27-1.56-.55-2.34-.85-.36-.14-.71-.28-1.07-.42-.18-.07-.35-.14-.53-.22-.8-.32.33.16-.16-.07-3.06-1.39-6.04-2.88-8.89-4.69-1.38-.88-2.71-1.81-4.02-2.79.7.53-.19-.16-.42-.34-.29-.24-.58-.48-.87-.72-.67-.56-1.32-1.15-1.96-1.74-1.23-1.15-2.41-2.36-3.52-3.63-.49-.57-.97-1.15-1.44-1.73-.04-.05-.43-.55-.11-.14.34.45-.14-.19-.22-.3-.26-.35-.52-.71-.77-1.07-1.01-1.45-1.94-2.97-2.76-4.54-.37-.72-.7-1.45-1.05-2.18-.31-.63.23.62-.02-.04-.07-.19-.15-.37-.22-.56-.17-.44-.33-.88-.49-1.33-.59-1.71-1.06-3.46-1.38-5.23-.07-.39-.13-.78-.19-1.18.12.88-.01-.27-.04-.58-.07-.85-.1-1.7-.1-2.56s.05-1.69.14-2.54c.02-.19.04-.39.07-.58-.02.18-.16.9.01.04.09-.45.17-.89.27-1.33.19-.82.43-1.63.71-2.43.1-.28.43-1.09.12-.38.21-.48.44-.96.69-1.42.31-.58.64-1.15,1.01-1.71.21-.32.46-.62.66-.94.26-.42-.18.24-.21.26.14-.16.27-.34.41-.5.46-.53.94-1.05,1.44-1.53.23-.23.47-.44.71-.66.12-.11.24-.21.37-.32.03-.03.84-.7.3-.26-.47.39.32-.23.46-.33.27-.19.54-.37.81-.55.64-.41,1.3-.8,1.98-1.15.34-.18.68-.35,1.03-.51.43-.2.79-.45.13-.08.65-.37,1.47-.56,2.18-.79,1.38-.44,2.79-.74,4.21-.99.81-.14-.8.08.3-.04.33-.04.67-.07,1-.09.78-.06,1.56-.09,2.35-.08.73,0,1.45.03,2.18.09.33.03.67.06,1,.1.12.01.69.1.07,0-.71-.11.25.05.39.07,1.43.24,2.83.6,4.2,1.06.39.13.77.27,1.15.42.17.07.35.14.52.21-.05-.02-.68-.31-.21-.09.79.37,1.57.73,2.34,1.15,1.42.76,2.78,1.63,4.07,2.58.15.11.3.22.45.33-.71-.52-.18-.14-.03-.02.29.24.58.47.86.71.66.56,1.31,1.15,1.93,1.76,1.17,1.13,2.26,2.34,3.29,3.59.16.19.31.39.47.59-.04-.05-.43-.58-.13-.17.23.3.45.6.67.91.52.72,1.01,1.45,1.49,2.19.92,1.44,1.77,2.92,2.55,4.44.34.68.68,1.36.99,2.05.06.14.58,1.3.38.85-.21-.49.04.09.07.16.09.23.19.47.28.7.71,1.8,1.33,3.65,1.86,5.51s1.03,3.87,1.43,5.83c.2.98.39,1.97.55,2.95.09.53.18,1.07.26,1.6.03.21.23,1.54.13.87.56,4.07.84,8.18,1.04,12.28.37,7.74.5,15.51.62,23.26.12,7.69.09,15.39-.37,23.08-.23,3.79-.61,7.55-1.05,11.31-.06.53.01-.06.02-.14-.03.21-.06.42-.09.63-.07.49-.14.98-.22,1.47-.15.98-.31,1.96-.48,2.93-.32,1.8-.67,3.6-1.07,5.39-.81,3.61-1.81,7.18-3.02,10.68-.3.85-.61,1.7-.93,2.55-.15.39-.3.78-.46,1.17-.1.26-.21.52-.31.77-.13.32-.22.51-.03.08-.73,1.66-1.48,3.31-2.32,4.91-.19.37-.44.73-.63,1.1-.22.42.15-.17.19-.22-.12.13-.23.26-.34.39-.28.3-.58.58-.88.86-.06.06-.54.42-.1.1s-.2.12-.28.18c-.67.44-1.37.81-2.08,1.17-.78.39.53-.17-.28.12-.45.17-.91.33-1.37.47-.34.1-.68.2-1.02.28-.27.07-1.01.19-.32.12-.28.03-.56.02-.84.03-.05,0-.75-.03-.24.01s-.16-.03-.23-.05c-.27-.07-.55-.13-.82-.21-.2-.06-.41-.15-.61-.2-.68-.16.51.27-.13-.04-.4-.19-.79-.38-1.18-.59-.91-.49-1.78-1.04-2.64-1.61-1.41-.93-2.8-1.88-4.18-2.86-.68-.48-1.36-.98-2.04-1.48-.23-.17-.92-.71-.32-.24-.4-.32-.81-.64-1.2-.97-1.28-1.05-2.51-2.16-3.66-3.35-.57-.59-1.11-1.19-1.64-1.82-.12-.14-.23-.29-.36-.43.56.66.13.18.02.03-.25-.35-.51-.7-.75-1.06-.44-.67-.86-1.36-1.23-2.07-.17-.33-.33-.66-.49-1-.03-.07-.28-.64-.07-.14.24.57-.14-.4-.18-.51-.25-.7-.46-1.41-.63-2.13-.1-.41-.16-.83-.25-1.24-.11-.51.03.27.03.31-.02-.24-.05-.47-.07-.71-.06-.77-.08-1.54-.05-2.31.01-.35.04-.71.07-1.06.01-.16.09-.92.02-.28s.03-.17.05-.28c.27-1.53.69-3.03,1.26-4.48.05-.13.36-.84.12-.3-.23.51.03-.05.07-.13.16-.33.31-.66.48-.99.39-.76.82-1.51,1.27-2.24.43-.68.9-1.33,1.37-1.98.29-.41-.1.13-.14.17.12-.14.23-.29.35-.43.32-.38.64-.76.98-1.13,1.09-1.2,2.27-2.32,3.52-3.35.14-.12.29-.23.44-.35-.13.1-.7.52-.02.03.3-.22.6-.43.91-.64.71-.49,1.45-.94,2.2-1.37s1.49-.8,2.25-1.17c.45-.22.92-.42,1.37-.63s0,0-.08.03c.27-.11.53-.21.8-.32,1.81-.7,3.66-1.28,5.54-1.77s3.66-.86,5.51-1.17c.5-.09,1-.17,1.51-.24.23-.04,1.28-.18.53-.08,1.01-.14,2.03-.25,3.05-.35,8.17-.83,16.42-1.03,24.62-1.44,8.76-.44,17.52-.93,26.28-1.3,4.25-.18,8.51-.25,12.75.1.48.04.96.09,1.43.14.24.03.48.05.72.08.79.09-.56-.09.23.03.92.14,1.84.3,2.75.49,1.64.34,3.26.78,4.85,1.31.77.25,1.53.53,2.28.82.32.12,1.03.43.31.11.46.2.91.4,1.36.61,1.46.69,2.89,1.45,4.27,2.3.69.42,1.36.86,2.03,1.32.31.21.61.43.91.64.15.11.3.22.45.33.96.71-.41-.35.12.09,1.23,1.04,2.45,2.07,3.58,3.21.56.57,1.11,1.15,1.63,1.76.24.28.48.56.72.84.16.19.31.38.46.57-.25-.3-.3-.41-.03-.03.95,1.29,1.83,2.62,2.61,4.02.39.7.76,1.42,1.1,2.14.14.31.55,1.27.21.43.16.39.31.78.46,1.18.56,1.53,1,3.1,1.33,4.7.07.36.14.71.2,1.07.07.41.16,1.05.05.24.11.84.19,1.68.23,2.53.09,1.63.06,3.26-.08,4.89-.03.36-.08.72-.11,1.08-.05.53.04-.26.04-.3-.04.24-.07.48-.11.71-.13.77-.28,1.54-.46,2.3-.38,1.58-.91,3.09-1.47,4.62.27-.74.05-.11-.11.24-.17.38-.36.75-.54,1.13-.38.74-.79,1.47-1.23,2.18-.38.61-.78,1.2-1.2,1.78-.11.14-.21.29-.32.43.55-.74.17-.22.04-.07-.27.32-.54.64-.82.95-.52.58-1.07,1.14-1.64,1.67-.27.25-.54.5-.82.74-.23.2-1.28.99-.53.44-1.3.93-2.63,1.79-4.06,2.51-.38.19-.78.36-1.16.55-.46.23.18-.07.23-.09-.17.07-.34.14-.51.21-.8.31-1.61.59-2.44.84-.77.23-1.54.42-2.32.59-.36.08-.72.15-1.09.21-.18.03-.36.05-.55.09-.66.13.77-.07.1-.01-1.66.16-3.3.26-4.96.18-.37-.02-.73-.04-1.1-.07-.24-.02-.49-.05-.73-.07-.09,0-.71-.09-.13-.01s-.5-.09-.67-.12c-.48-.09-.96-.19-1.44-.3-.72-.17-1.42-.37-2.12-.59-.41-.13-.81-.27-1.22-.42-.17-.06-.34-.14-.51-.2-.62-.22.65.32.06.02-1.4-.69-2.8-1.34-4.16-2.1-1.12-.63-2.22-1.3-3.26-2.05-.11-.08-.33-.3-.44-.33-.01,0,.73.6.38.29-.2-.17-.41-.33-.61-.51-.46-.39-.9-.8-1.32-1.23-.38-.39-.74-.81-1.1-1.22-.52-.59.54.76.08.11-.15-.21-.3-.41-.44-.62-.64-.95-1.2-1.96-1.7-3-.12-.25-.23-.51-.35-.77-.33-.72.31.83-.05-.14-.24-.63-.47-1.26-.69-1.9-.49-1.43-.9-2.89-1.3-4.35-.61-2.27-3.23-3.89-5.54-3.14s-3.8,3.1-3.14,5.54c1.58,5.87,3.7,11.79,8.12,16.14,2.07,2.04,4.54,3.72,7.09,5.12,3.21,1.77,6.6,3.33,10.19,4.12,15.08,3.35,31.46-3.94,37.84-18.29,3.15-7.1,4.05-14.71,2.86-22.37-1.15-7.37-4.77-14.17-9.7-19.7-5.06-5.69-11.65-9.85-18.72-12.55-7.99-3.05-16.66-3.5-25.13-3.23-9.24.3-18.48.88-27.72,1.34-8.8.44-17.67.61-26.42,1.61s-17.11,2.78-24.51,7.26c-6.69,4.05-11.94,10.18-14.81,17.45s-2.19,15.56,1.89,22.23,10.51,11.25,16.83,15.51c3.71,2.5,8,5.06,12.66,4.51,4.16-.49,8.22-2.28,11.39-5.02s4.69-7.14,6.25-10.89,2.78-7.44,3.8-11.28c4.23-15.85,4.79-32.47,4.61-48.78-.09-8.31-.24-16.63-.62-24.93-.4-8.94-1.27-17.99-3.77-26.62-4.28-14.77-14.03-28.76-29-34.04-12.95-4.57-29.44-.21-36.8,11.81-8.84,14.43-1.57,32.78,9.18,43.92s24.9,17.03,39.48,19.26c18.33,2.8,36.81-.18,54.71-4.31,16.1-3.71,34.75-7.12,44.68-21.78,4.37-6.46,6.05-14.8,3.53-22.29-2.32-6.92-7.37-12.22-13.23-16.37s-12.63-7.2-19.42-9.28c-4.51-1.38-9.32-1.53-13.55.78-3.05,1.67-5.43,4.54-7,7.59-3.52,6.83-4.22,14.72-5.23,22.21-1.27,9.43-2.24,18.89-2.85,28.38-1.17,18.34-1.06,36.77.34,55.09.7,9.16,1.74,18.29,3.05,27.38.34,2.34,3.42,3.83,5.54,3.14,2.56-.83,3.5-3.03,3.14-5.54h0Z"/>
      <path class="cls-3" d="m159.94,203.69c-.17-1.21-.34-2.41-.51-3.62-.11-.8.07.55-.03-.25-.03-.24-.06-.48-.1-.72-.1-.72-.19-1.45-.28-2.18-.32-2.5-.61-5-.89-7.5-.55-5.01-1.01-10.02-1.4-15.04-.76-10.04-1.2-20.11-1.3-30.19-.2-20.23.94-40.47,3.41-60.54.15-1.21.3-2.42.46-3.63.04-.32.08-.64.13-.97-.01.11-.07.52,0-.01.1-.72.2-1.45.3-2.17.35-2.49.73-4.98,1.12-7.47.57-3.57,1.27-7.12,2.51-10.52.08-.21.16-.42.24-.63.06-.14.31-.83.09-.24-.2.54.22-.48.31-.68.37-.79.78-1.56,1.23-2.3.22-.36.45-.72.69-1.07.1-.15.24-.41.37-.51,0,0-.58.66-.22.3.57-.59,1.1-1.2,1.7-1.76.79-.74-.63.36.28-.22.3-.19.59-.39.9-.56.18-.1.36-.18.54-.28.48-.27,0-.2-.24.08.19-.22.91-.32,1.18-.4.14-.04,1.37-.32.64-.2.52-.08,1.06-.08,1.59-.08.3,0,.61.02.91.04.11,0,1.04.12.54.05-.45-.07.3.06.31.07.38.08.75.16,1.13.25,2.14.52,4.22,1.29,6.28,2.07.82.31,1.64.63,2.45.97,1.04.43-.48-.21.56.24.49.21.98.43,1.47.65,3.36,1.53,6.64,3.28,9.72,5.31.69.45,1.37.92,2.03,1.4.25.18,1.27.96.49.35.37.28.73.57,1.08.87,1.4,1.16,2.73,2.4,3.96,3.73.53.57,1.03,1.17,1.52,1.77s-.02-.02-.1-.13c.13.18.26.35.39.53.29.4.56.81.83,1.22.44.68.85,1.39,1.22,2.11.17.34.34.68.5,1.02.07.14.36.79.1.2-.29-.64.12.32.14.36.29.76.54,1.54.74,2.33.1.37.19.74.27,1.12.05.22.09.43.13.65.03.14.18,1.1.07.39-.09-.62.05.52.07.75.04.48.06.96.07,1.44.01,1.01-.05,2-.16,3,.1-.93-.03.12-.1.47-.1.49-.21.97-.33,1.46-.25.97-.56,1.92-.92,2.85-.07.18-.14.35-.21.52.34-.83.08-.21,0-.04-.22.45-.43.91-.67,1.36-.47.9-.99,1.77-1.55,2.62-.28.43-.57.84-.87,1.26-.11.15-.23.31-.34.46-.4.55.44-.51,0,0-.68.77-1.32,1.57-2.04,2.31-.67.69-1.36,1.36-2.08,2-.34.3-.68.59-1.02.88-.2.16-.4.32-.6.48-.4.33.53-.37-.15.11-1.78,1.25-3.6,2.42-5.52,3.44-.95.51-1.92.99-2.9,1.44-.52.24-1.05.48-1.58.7.08-.04.56-.22.08-.04-.34.13-.67.27-1.01.4-8.7,3.4-17.98,5.35-27.05,7.47-4.92,1.15-9.86,2.23-14.83,3.16s-9.73,1.69-14.22,2.19c-9.7,1.08-19.56,1.35-29.27.14-.19-.02-.38-.05-.57-.07.95.12.26.04.06,0-.5-.07-1.01-.15-1.51-.23-1.01-.16-2.01-.34-3.01-.53-1.94-.38-3.87-.81-5.78-1.32s-3.8-1.07-5.68-1.7c-.9-.3-1.8-.62-2.7-.96-.42-.16-.83-.32-1.25-.48-.24-.09-.47-.19-.71-.28-.11-.04-1.08-.44-.52-.21.49.2-.1-.04-.16-.07-.23-.1-.46-.2-.7-.3-.46-.21-.92-.41-1.38-.63-.92-.43-1.82-.87-2.72-1.34-1.73-.89-3.43-1.86-5.09-2.89s-3.25-2.12-4.8-3.28c-.2-.15-.4-.3-.6-.45.13.1.68.54.03.01-.34-.27-.68-.55-1.02-.83-.77-.64-1.52-1.29-2.25-1.96-1.42-1.3-2.79-2.67-4.07-4.11-.63-.7-1.23-1.41-1.82-2.14-.19-.23-.86-1.1-.34-.42-.34-.45-.68-.9-1.01-1.36-1.18-1.65-2.27-3.37-3.24-5.15-.48-.89-.94-1.81-1.36-2.73-.1-.22-.58-1.36-.28-.61-.23-.57-.45-1.14-.66-1.71-.71-1.97-1.29-4-1.69-6.06-.1-.53-.19-1.06-.28-1.59-.03-.18-.09-.88,0,0-.02-.2-.05-.4-.07-.6-.11-1.06-.17-2.12-.18-3.18,0-.99.03-1.98.12-2.96.02-.26.05-.52.08-.78-.02.17-.15.9,0,.03.09-.52.18-1.03.29-1.55.21-.96.46-1.91.78-2.85.17-.5.36-.99.54-1.48s-.03.1-.07.16c.18-.36.34-.72.52-1.08.36-.71.76-1.4,1.18-2.07.24-.37.48-.73.74-1.09.13-.18.26-.35.39-.53-.18.25-.45.55-.1.14,1.15-1.32,2.35-2.53,3.7-3.65.62-.51-.67.46.25-.18.31-.22.62-.44.94-.65.73-.48,1.48-.93,2.25-1.34s1.56-.89,2.37-1.15c-.84.26-.12.06.31-.1.47-.18.94-.34,1.41-.5,1.64-.54,3.32-.94,5.03-1.22,1.07-.17-.53.04.3-.05.45-.05.89-.1,1.34-.13.89-.07,1.79-.11,2.69-.11.84,0,1.68.03,2.52.08.39.03.78.06,1.17.1.15.02.55.11.67.08-.39.12-.77-.11-.03,0,1.71.27,3.39.68,5.04,1.22.38.12.75.26,1.12.39.23.09.46.18.7.27.13.05.86.36.32.13-.5-.22.07.04.14.07.22.1.45.2.67.31.5.24,1,.48,1.49.74,1.69.89,3.31,1.9,4.85,3.01.2.14.4.29.59.44.06.05.55.42.13.1-.45-.35.16.14.27.22.19.16.38.31.57.47.76.63,1.49,1.29,2.21,1.97,1.39,1.33,2.71,2.74,3.94,4.22.32.38.63.78.94,1.16-.54-.67.14.19.32.43.59.81,1.17,1.63,1.72,2.47,1.07,1.63,2.06,3.31,2.96,5.03.44.83.86,1.68,1.26,2.53.19.4.37.8.55,1.2.1.23.2.46.3.69-.38-.87-.02-.05.05.14.82,2.01,1.53,4.07,2.15,6.15,1.38,4.59,2.33,9.29,3.02,14.02.14.93.06.39.03.18.04.31.08.61.12.92.07.54.13,1.08.19,1.62.14,1.23.26,2.47.37,3.71.21,2.4.37,4.81.49,7.21.46,9.08.6,18.19.75,27.29.14,8.99.12,17.99-.41,26.96-.26,4.43-.65,8.84-1.21,13.24-.03.21-.05.42-.08.63.1-.81.01-.08,0,.07-.08.56-.16,1.12-.24,1.69-.17,1.12-.35,2.24-.54,3.35-.37,2.15-.79,4.3-1.27,6.43-.94,4.23-2.1,8.41-3.51,12.51-.34.99-.7,1.97-1.07,2.94-.2.52-.4,1.04-.61,1.56-.09.22-.67,1.61-.34.85-.84,1.99-1.76,3.95-2.75,5.87-.2.39-.4.78-.63,1.15-.12.2-.26.38-.39.57.51-.76.21-.26.04-.1-.34.33-.65.68-1.01,1-.14.12-.28.23-.41.35-.39.34.6-.39-.11.06-.79.5-1.57.98-2.42,1.39-.31.15-1.28.5-.46.22-.52.18-1.04.39-1.56.55-.46.14-.92.27-1.38.39-.24.06-1.27.27-.5.17-.57.07-1.12.03-1.69.02.09,0,.67.15.15.02-.34-.08-.69-.14-1.04-.24-.28-.08-.54-.18-.82-.26-.11-.03-.81-.29-.14-.02-.48-.19-.94-.44-1.39-.67-1.05-.55-2.06-1.18-3.06-1.83-1.71-1.12-3.39-2.27-5.06-3.45-.8-.56-1.59-1.13-2.37-1.72-.21-.16-.41-.31-.62-.47-.55-.41.52.42-.01-.01-.45-.36-.91-.72-1.36-1.1-1.48-1.22-2.92-2.51-4.26-3.89-.66-.68-1.3-1.38-1.9-2.11-.16-.19-.31-.39-.48-.58-.43-.51.4.57.02.02-.32-.46-.66-.91-.97-1.38-.48-.73-.93-1.47-1.34-2.24-.23-.44-.44-.89-.66-1.34-.09-.17-.31-.79,0,.04-.09-.23-.18-.47-.27-.7-.34-.93-.63-1.88-.85-2.85-.09-.41-.15-.83-.24-1.24-.15-.65.07.8.01.13-.03-.3-.06-.59-.09-.89-.06-.82-.08-1.65-.06-2.48.01-.47.04-.94.09-1.41.02-.23.05-.47.07-.7-.06.59-.07.51.02-.03.31-1.83.85-3.59,1.48-5.33.07-.19.33-.79-.04.07.07-.17.15-.33.22-.5.17-.39.36-.77.55-1.15.46-.93.98-1.83,1.53-2.71.49-.78,1.02-1.54,1.56-2.29.11-.15.53-.66-.03.03.12-.14.23-.29.35-.43.35-.43.71-.86,1.09-1.27,1.28-1.44,2.68-2.78,4.16-4,.23-.19,1.11-.85.4-.33.4-.29.8-.59,1.2-.87.81-.56,1.64-1.09,2.49-1.58.9-.52,1.83-1,2.76-1.45.45-.22.91-.43,1.37-.64.81-.37.3-.14.12-.06.33-.14.67-.27,1-.4,2.08-.81,4.21-1.5,6.36-2.07s4.37-1.04,6.58-1.42c1.08-.19,2.16-.35,3.24-.5-.87.12.81-.1.98-.12.58-.07,1.16-.13,1.75-.19,9.59-1,19.28-1.23,28.91-1.71,10.22-.51,20.44-1.09,30.67-1.51,5.01-.21,10.04-.29,15.04.15.64.06,1.28.13,1.93.2.08,0,.88.11.24.02.32.04.64.09.96.14,1.09.17,2.17.37,3.25.61,1.87.41,3.72.93,5.53,1.55.88.3,1.75.62,2.61.97.17.07.34.14.52.21.62.25-.66-.3-.05-.02.5.24,1.02.46,1.52.7,1.73.82,3.41,1.75,5.04,2.76.79.49,1.56,1,2.32,1.53.35.25.7.5,1.05.76.11.08.74.55.28.21-.48-.37.42.33.42.33,1.48,1.19,2.89,2.48,4.22,3.84.64.66,1.26,1.34,1.86,2.03.28.32.55.65.82.99.09.11.58.71.22.26-.38-.48.25.33.31.42,1.13,1.53,2.16,3.13,3.07,4.79.44.81.86,1.63,1.25,2.47.1.22.2.45.3.67-.02-.04-.29-.72-.1-.24.2.5.4,1.01.58,1.52.63,1.76,1.13,3.56,1.51,5.4.08.41.16.83.23,1.25.06.33.22,1.63.1.6.11.96.2,1.92.25,2.89.1,1.87.06,3.74-.1,5.61-.04.42-.08.84-.13,1.26-.1.85,0,.03.02-.12-.04.24-.07.48-.11.71-.16.95-.35,1.89-.58,2.82-.44,1.81-1.04,3.55-1.7,5.29-.24.62.32-.68.04-.09-.1.22-.19.44-.3.65-.18.38-.36.75-.55,1.12-.43.85-.9,1.68-1.4,2.49-.47.76-.97,1.5-1.5,2.22-.08.11-.56.71-.19.26.34-.43-.04.04-.09.11-.34.41-.69.82-1.05,1.22-.6.67-1.23,1.31-1.89,1.92-.36.34-.73.66-1.1.98-.25.21-1.27.97-.53.44-1.61,1.14-3.24,2.2-5.01,3.08-.38.19-.77.37-1.16.55-.17.08-.34.15-.51.22.84-.37.24-.1.05-.03-.92.35-1.84.68-2.79.96-.88.26-1.78.49-2.68.69-.48.1-.96.2-1.45.28-.18.03-.36.06-.55.09-1.22.2.97-.09-.27.04-1.84.19-3.68.27-5.52.19-.49-.02-.98-.05-1.47-.1-.3-.03-1.72-.22-.63-.05-.97-.15-1.94-.32-2.89-.55-.84-.2-1.66-.43-2.48-.69-.47-.15-.93-.31-1.39-.48-.23-.09-.46-.18-.69-.27.58.22.3.13-.11-.05-1.62-.73-3.22-1.55-4.77-2.42-1.33-.75-2.64-1.55-3.88-2.45-.11-.08-.22-.16-.33-.24-.62-.45.22.14.27.21-.17-.24-.59-.48-.82-.68-.52-.45-1.02-.92-1.5-1.41-.44-.45-.86-.93-1.26-1.42-.63-.74.45.64,0,.01-.2-.28-.4-.55-.59-.84-.74-1.11-1.38-2.28-1.95-3.48-.14-.3-.27-.6-.41-.9-.21-.44.19.41.17.41-.02,0-.19-.48-.22-.55-.28-.72-.55-1.45-.8-2.18-.58-1.71-1.08-3.44-1.55-5.18-.61-2.27-3.23-3.89-5.54-3.14s-3.8,3.1-3.14,5.54c1.8,6.71,4.21,13.49,9.28,18.47,2.39,2.34,5.22,4.25,8.15,5.86,3.69,2.02,7.58,3.81,11.71,4.71,8.75,1.91,17.88.74,25.93-3.16,7.58-3.67,13.76-10.19,17.15-17.89,3.57-8.09,4.59-16.82,3.19-25.54-1.37-8.5-5.56-16.32-11.3-22.66s-13.25-11.11-21.28-14.17c-9.28-3.53-19.32-4.03-29.15-3.7-10.79.36-21.58,1.04-32.37,1.57-10.14.5-20.37.7-30.47,1.86-9.81,1.13-19.82,3.25-28.34,8.51-7.56,4.67-13.56,11.7-16.73,20.01s-2.32,17.63,2.39,25.16,12.35,12.99,19.73,17.93c4.58,3.07,9.61,5.63,15.28,4.57,4.31-.81,8.78-2.9,11.9-6.01,1.75-1.74,2.84-3.83,3.89-6.02s2.06-4.51,2.98-6.81c1.71-4.27,3.11-8.66,4.26-13.12,4.73-18.39,5.28-37.62,5.03-56.51-.12-9.65-.28-19.33-.75-28.97-.5-10.34-1.6-20.81-4.62-30.74-5.06-16.6-16.31-32.44-33.31-38.17-14.89-5.01-34,.11-41.98,14.29-9.54,16.94-.79,37.75,11.9,50.34s28.81,19.03,45.56,21.43c21.26,3.04,42.65-.56,63.37-5.38,18.35-4.27,39.77-8.26,50.82-25.26,4.77-7.35,6.53-16.68,3.61-25.07-2.74-7.9-8.6-13.94-15.35-18.63-3.18-2.21-6.58-4.09-10.08-5.73-3.99-1.87-8.13-3.61-12.36-4.84-4.97-1.45-10.27-1.56-14.88,1.03-3.47,1.95-6.13,5.23-7.89,8.75-4.14,8.26-4.88,17.85-6.08,26.87-1.4,10.47-2.43,20.98-3.1,31.52-1.36,21.32-1.22,42.74.42,64.04.81,10.53,2,21.02,3.5,31.47.34,2.34,3.42,3.83,5.54,3.14,2.56-.83,3.5-3.03,3.14-5.54h0Z"/>
      <path class="cls-4" d="m163.16,213.09c-.21-1.45-.41-2.89-.61-4.34,0-.07-.12-.88-.03-.25-.04-.32-.09-.64-.13-.97-.11-.8-.21-1.61-.31-2.42-.37-2.9-.71-5.8-1.02-8.71-.62-5.65-1.14-11.31-1.57-16.97-.87-11.49-1.37-23.01-1.48-34.54-.22-23.05,1.08-46.12,3.91-68.99.17-1.37.34-2.74.52-4.11.02-.16.16-1.17.06-.49.04-.32.09-.64.13-.97.11-.8.22-1.61.34-2.41.4-2.81.82-5.62,1.27-8.43.64-4.05,1.45-8.07,2.87-11.93.15-.4.27-.88.48-1.25-.61,1.04.16-.35.28-.59.44-.93.92-1.84,1.46-2.71.22-.36.45-.71.69-1.06.05-.08.26-.44.36-.51-.49.3-.43.52-.13.18.63-.74,1.29-1.42,2-2.08.14-.13.52-.6.12-.13-.42.51.12-.08.27-.18.33-.23.67-.44,1.02-.64.17-.1.9-.61,1.08-.55-.29-.1-.84.3-.08.05.25-.08.49-.17.74-.24.48-.14.97-.24,1.46-.34.72-.14-.54-.04.19,0,.38.02.77-.04,1.16-.04.62,0,1.24.04,1.85.11-.69-.08.09.02.19.05.46.09.92.18,1.38.29,2.52.6,4.96,1.5,7.37,2.42.88.33,1.75.68,2.62,1.04.22.09.44.18.66.27-.93-.39-.16-.07.07.03.55.24,1.09.48,1.64.72,3.87,1.75,7.63,3.75,11.18,6.09.84.55,1.66,1.12,2.48,1.71.17.13,1.53,1.16.63.46.41.32.82.65,1.22.98,1.58,1.31,3.08,2.71,4.47,4.22.64.7,1.25,1.42,1.85,2.16-.62-.76.06.09.29.41.32.44.63.9.93,1.36.5.78.97,1.58,1.4,2.39.23.43.44.87.65,1.31.09.19.21.4.27.59-.33-1.11-.05-.09.04.13.33.87.61,1.75.85,2.65.11.43.21.85.3,1.29.06.27.11.54.16.82.03.14.2,1.1.07.4-.13-.75.03.34.04.41.02.23.04.45.06.68.04.48.06.96.07,1.45.02,1.13-.05,2.26-.16,3.39.11-1.14-.11.61-.15.84-.11.55-.23,1.1-.37,1.64-.28,1.09-.63,2.16-1.03,3.21-.09.23-.18.47-.28.7.35-.83.08-.2,0-.04-.25.51-.49,1.03-.75,1.53-.56,1.07-1.17,2.11-1.84,3.12-.28.43-.57.85-.87,1.26-.15.21-.31.41-.46.62.49-.68.11-.13,0,0-.77.95-1.57,1.87-2.42,2.75-.76.79-1.55,1.55-2.36,2.28-.38.34-.77.68-1.17,1.01-.25.2-.5.4-.75.61-.4.33.53-.38-.16.11-2.07,1.48-4.19,2.83-6.44,4.03-1.09.58-2.2,1.13-3.33,1.65-.6.27-1.19.54-1.8.8.18-.08.7-.28-.14.05-.41.16-.81.33-1.22.49-10.05,3.9-20.77,6.15-31.24,8.58-5.56,1.29-11.14,2.5-16.75,3.55-2.88.54-5.77,1.04-8.66,1.48-.64.1-1.29.19-1.93.29-.32.05-.64.09-.96.14-1.55.22.42-.05-.49.07-1.53.2-3.06.38-4.59.55-10.93,1.18-22.03,1.44-32.95.05-.25-.03-1.12-.16-.13-.02-.25-.04-.5-.07-.76-.11-.5-.07-1.01-.15-1.51-.23-1.2-.19-2.39-.41-3.58-.64-2.19-.43-4.37-.94-6.54-1.51s-4.42-1.26-6.6-2c-.97-.33-1.93-.68-2.88-1.04-.54-.2-1.07-.41-1.6-.62-.3-.12-.59-.24-.88-.36-.8-.32.34.15-.16-.06-4.12-1.8-8.12-3.83-11.92-6.23-1.91-1.2-3.76-2.5-5.56-3.86.76.57-.38-.3-.57-.45-.39-.31-.78-.63-1.16-.95-.91-.76-1.8-1.55-2.67-2.35-1.6-1.49-3.13-3.05-4.58-4.68-.75-.84-1.46-1.71-2.17-2.59-.11-.14-.53-.67,0,.02-.15-.2-.3-.4-.46-.6-.38-.5-.75-1.01-1.11-1.53-1.36-1.94-2.62-3.96-3.72-6.06-.5-.96-.98-1.94-1.42-2.93.02.04-.5-1.18-.26-.58.2.5-.11-.29-.16-.41-.25-.63-.49-1.27-.71-1.91-.78-2.23-1.4-4.52-1.83-6.85-.05-.26-.1-.53-.14-.79,0,.02-.2-1.28-.1-.59.08.58-.03-.26-.04-.4-.04-.33-.07-.66-.1-.99-.1-1.19-.15-2.38-.14-3.57,0-1.12.07-2.24.18-3.35.01-.14.11-.97.04-.38-.09.7.09-.57.09-.57.11-.64.24-1.29.39-1.92.24-1.02.53-2.03.88-3.02.09-.25.18-.5.27-.74-.01.03.48-1.17.22-.56-.22.51.12-.26.18-.37.17-.36.35-.72.53-1.08.44-.85.92-1.67,1.44-2.46.24-.37.5-.72.75-1.08.46-.66-.02.02-.11.13.2-.26.41-.51.62-.76,1.27-1.5,2.69-2.83,4.21-4.07-.76.62.06-.04.39-.28.4-.28.81-.56,1.22-.82.87-.56,1.78-1.08,2.7-1.56.78-.4,1.57-.82,2.39-1.13-1.12.43.36-.12.62-.22.52-.19,1.05-.37,1.57-.54,1.86-.59,3.77-1.04,5.7-1.35.21-.03.45-.09.67-.1-1.11.06-.32.05-.03.01.45-.05.89-.09,1.34-.13,1.06-.08,2.13-.12,3.2-.12.96,0,1.91.04,2.86.11.45.03.9.08,1.34.13.29.03,1.08.03-.03-.01.28.01.56.08.83.13,1.93.32,3.84.79,5.69,1.41.49.17.98.34,1.47.53.29.11.58.23.87.34-.15-.06-.82-.36-.05-.02,1.02.45,2.02.93,3.01,1.46,1.96,1.04,3.84,2.23,5.63,3.55.2.15.39.3.59.44-.72-.52-.18-.14-.03-.02.39.31.77.62,1.15.94.9.76,1.77,1.55,2.62,2.36,1.57,1.51,3.05,3.12,4.43,4.8.2.24.4.48.59.73.08.1.57.73.23.28-.41-.53.34.45.33.44.15.2.3.4.45.61.67.92,1.31,1.85,1.92,2.8,1.24,1.9,2.37,3.87,3.41,5.88.46.9.91,1.8,1.33,2.72.24.51.47,1.03.7,1.55.09.22.42,1.01.06.14.12.29.24.58.35.87.92,2.31,1.72,4.67,2.43,7.05,1.58,5.34,2.68,10.81,3.43,16.33-.1-.76.12.98.14,1.11.07.62.15,1.23.21,1.85.16,1.47.3,2.94.42,4.41.23,2.72.4,5.44.53,8.16.51,10.39.68,20.82.83,31.22s.12,20.44-.51,30.64c-.31,5.07-.8,10.12-1.42,15.16-.1.82.15-1.07-.04.28-.04.28-.08.56-.12.84-.08.56-.16,1.12-.25,1.68-.19,1.26-.4,2.52-.62,3.77-.44,2.5-.94,4.98-1.5,7.46-1.1,4.84-2.45,9.62-4.1,14.3-.39,1.12-.8,2.23-1.23,3.33-.2.52-.41,1.04-.62,1.55-.13.32-.26.64-.4.97-.19.46.22-.49-.12.27-1.01,2.29-2.04,4.59-3.24,6.8-.22.4-.46.78-.71,1.16-.58.91.44-.42-.04.04-.17.16-.31.35-.47.51-.37.38-.76.73-1.17,1.08-.17.15-.67.44.06-.04-.3.2-.59.42-.9.62-.83.53-1.69,1-2.58,1.42,0,0-1.12.47-.48.22.55-.22-.19.06-.32.11-.57.21-1.14.41-1.72.58-.51.15-1.02.29-1.53.41-.22.05-.44.1-.67.15-.21.04-.83.03-.09.02-.57,0-1.13.03-1.7-.01.86.06-.05-.02-.27-.06-.35-.07-.7-.16-1.04-.26s-.69-.22-1.03-.34c-.1-.04-.92-.39-.48-.19s-.38-.19-.47-.24c-.33-.16-.66-.34-.99-.51-1.18-.64-2.32-1.36-3.44-2.1-1.96-1.29-3.89-2.61-5.8-3.97-.84-.6-1.68-1.21-2.51-1.83-.26-.19-.51-.39-.77-.59-.55-.41.52.42,0,0-.5-.41-1.01-.8-1.51-1.21-1.72-1.42-3.38-2.92-4.93-4.52-.78-.81-1.54-1.65-2.26-2.53-.16-.19-.31-.39-.47-.58.1.13.52.7.02.02-.37-.5-.73-1-1.07-1.52-.58-.88-1.12-1.78-1.61-2.71-.26-.49-.49-1-.74-1.5-.08-.18-.31-.79.01.05-.13-.35-.27-.7-.4-1.05-.33-.93-.62-1.88-.84-2.85-.12-.53-.23-1.06-.32-1.6-.03-.15-.12-.92-.05-.29.07.67-.04-.51-.05-.65-.08-1.01-.1-2.02-.07-3.03.02-.47.05-.95.09-1.42.02-.24.05-.47.07-.71.1-1.06-.14.75.04-.21.39-2.13.93-4.2,1.72-6.22.09-.23.18-.45.27-.67-.35.87-.11.25-.02.07.23-.5.46-.99.71-1.48.5-.99,1.04-1.95,1.63-2.89s1.16-1.75,1.77-2.61c.49-.68.07-.11-.03.02.19-.25.39-.49.58-.73.39-.48.8-.96,1.21-1.42,1.46-1.63,3.04-3.15,4.72-4.54.19-.16.39-.31.58-.47.93-.76-.48.33.12-.09.41-.28.8-.59,1.21-.87.96-.67,1.96-1.3,2.97-1.88s2.09-1.14,3.16-1.65c.52-.25,1.05-.49,1.57-.73.17-.08,1.04-.44.32-.14.33-.14.67-.27,1-.4,2.35-.92,4.75-1.69,7.19-2.34s5.08-1.21,7.65-1.65c.57-.1,1.15-.19,1.73-.28.36-.06.72-.11,1.08-.16.11-.02,1.02-.14.49-.07-.64.09.78-.1.71-.09.29-.04.58-.07.87-.11.73-.09,1.46-.17,2.19-.24,11.04-1.14,22.18-1.4,33.25-1.95,11.73-.58,23.46-1.27,35.19-1.73,5.6-.22,11.23-.28,16.82.24.72.07,1.43.15,2.15.23.79.09-.56-.08.23.03.4.06.79.12,1.19.18,1.21.19,2.41.42,3.6.69,2.18.48,4.33,1.1,6.44,1.82.94.32,1.87.67,2.79,1.04.23.09.46.19.69.28-.88-.37-.1-.04.12.06.57.25,1.13.51,1.69.78,1.96.94,3.86,1.99,5.7,3.14.94.59,1.87,1.21,2.78,1.85.4.29.8.58,1.2.87.15.11.67.52-.03-.03.29.23.58.46.87.69,1.67,1.36,3.27,2.82,4.76,4.37.73.75,1.43,1.52,2.11,2.32.36.42.71.85,1.06,1.28.08.11.56.72.22.27-.37-.49.25.33.31.43,1.31,1.78,2.5,3.65,3.55,5.6.5.92.97,1.86,1.4,2.82.13.28.25.55.37.83-.06-.14-.34-.86-.04-.07.22.56.44,1.12.64,1.69.7,1.99,1.25,4.03,1.66,6.1.1.53.2,1.07.29,1.6.04.24.07.48.11.72-.16-.99-.04-.34-.02-.12.12,1.08.22,2.16.27,3.25.1,2.17.06,4.34-.15,6.51-.04.48-.1.96-.16,1.44.14-1.21-.09.54-.13.77-.19,1.12-.43,2.24-.7,3.35-.23.93-.5,1.85-.79,2.76-.16.51-.34,1.02-.52,1.53-.1.28-.21.56-.31.84-.05.12-.42,1.06-.18.46.26-.65-.19.43-.2.45-.1.22-.2.43-.3.65-.2.43-.41.86-.63,1.28-.49.95-1.02,1.88-1.58,2.79s-1.18,1.79-1.81,2.65c-.12.16-.54.64.05-.06-.15.18-.3.37-.45.56-.38.46-.77.91-1.17,1.35-.69.75-1.41,1.48-2.16,2.17-.41.38-.82.74-1.25,1.1-.19.16-.38.31-.57.47-.74.6.59-.4-.26.2-1.76,1.24-3.56,2.39-5.49,3.35-.5.25-1,.47-1.5.71-.18.08-.8.32.06-.02-.23.09-.46.18-.68.27-1.03.4-2.08.76-3.14,1.07s-2.14.58-3.22.81c-.48.1-.97.19-1.45.27-.24.04-.49.08-.73.12-1.23.2.97-.09-.27.03-2.21.23-4.42.32-6.63.2-.49-.03-.98-.06-1.47-.11-.31-.03-1.66-.2-.63-.05-1.16-.16-2.3-.38-3.44-.64-1.02-.24-2.02-.52-3.01-.85-.47-.15-.93-.32-1.39-.49-.23-.09-.46-.18-.69-.27-.98-.37.59.28-.28-.12-1.88-.87-3.74-1.79-5.56-2.81-1.55-.87-3.06-1.8-4.49-2.85-.12-.09-.32-.29-.44-.33.07.02.85.68.27.21-.27-.22-.55-.45-.82-.68-.62-.53-1.22-1.09-1.79-1.68-.5-.52-.98-1.05-1.43-1.61-.7-.86.33.47-.07-.09-.22-.31-.45-.62-.66-.94-.84-1.25-1.57-2.58-2.22-3.94-.07-.15-.41-1.13-.53-1.16.04.01.43,1.05.11.27-.07-.18-.15-.37-.22-.55-.32-.82-.62-1.65-.91-2.48-.66-1.93-1.22-3.89-1.75-5.86-.61-2.27-3.23-3.89-5.54-3.14s-3.8,3.1-3.14,5.54c2.02,7.55,4.73,15.2,10.43,20.79,2.7,2.64,5.9,4.79,9.21,6.59,4.12,2.25,8.45,4.23,13.06,5.25,9.89,2.18,20.27.84,29.35-3.62,8.49-4.17,15.37-11.49,19.16-20.14,3.98-9.09,5.11-18.93,3.51-28.71-1.56-9.53-6.26-18.31-12.71-25.43s-15.01-12.59-24.12-16.02c-10.51-3.96-21.84-4.5-32.95-4.13-12.3.41-24.6,1.18-36.89,1.79-11.57.58-23.23.8-34.75,2.13s-22.29,3.67-31.86,9.57c-8.53,5.26-15.36,13.22-18.89,22.63-3.5,9.31-2.52,19.73,2.79,28.16,5.41,8.57,13.91,14.55,22.19,20.09,5.15,3.45,10.8,6.37,17.17,5.1,4.76-.95,9.71-3.26,13.14-6.74,1.91-1.93,3.09-4.24,4.25-6.65,1.22-2.55,2.34-5.14,3.39-7.77,1.94-4.86,3.53-9.85,4.82-14.92,5.34-20.9,5.96-42.73,5.68-64.18-.14-10.82-.32-21.66-.83-32.47-.56-11.75-1.76-23.63-5.14-34.94-5.64-18.84-18.29-36.9-37.56-43.46-16.71-5.69-38.2,0-47.22,15.9-10.81,19.07-.82,42.56,13.46,56.71,13.78,13.66,32.75,21.56,51.79,24.26,23.96,3.39,48.09-.66,71.44-6.08,20.84-4.84,45.43-9.3,57.93-28.69,5.38-8.34,7.29-18.92,3.84-28.38-3.19-8.74-9.74-15.42-17.28-20.61-3.69-2.54-7.64-4.7-11.71-6.58-4.58-2.12-9.36-4.15-14.24-5.46-5.47-1.48-11.41-1.43-16.33,1.66-3.74,2.35-6.54,5.96-8.43,9.9s-3.18,8.26-4.02,12.61c-1.12,5.84-1.86,11.77-2.65,17.67-1.59,11.99-2.76,24.03-3.52,36.1-1.5,24.14-1.33,48.39.53,72.51.92,11.89,2.26,23.75,3.96,35.56.34,2.34,3.42,3.83,5.54,3.14,2.56-.83,3.5-3.03,3.14-5.54h0Z"/>
      <path class="cls-5" d="m166.38,222.49c-.23-1.61-.46-3.22-.68-4.83-.13-.94-.06-.46-.03-.25-.06-.48-.13-.97-.19-1.45-.11-.81-.21-1.61-.31-2.42-.41-3.23-.79-6.46-1.14-9.69-.71-6.47-1.31-12.95-1.8-19.44-.98-12.98-1.53-25.99-1.65-39-.23-26.03,1.27-52.07,4.5-77.9.76-6.04,1.62-12.1,2.66-18.61.72-4.49,1.7-8.95,3.33-13.2.08-.21.16-.42.25-.63.4-1.02-.32.61,0,0,.23-.44.41-.91.63-1.35.52-1.07,1.1-2.11,1.75-3.1.26-.39.57-.76.81-1.17.32-.56-.7.82-.04.05.13-.16.26-.32.4-.47.33-.39.68-.76,1.04-1.12.26-.26,1-1.17,1.35-1.21-.03,0-.89.63-.19.16.21-.14.41-.29.62-.42.38-.25.77-.48,1.17-.69.14-.07.67-.43.82-.4-.02,0-1.05.38-.22.1.6-.2,1.18-.4,1.8-.55.21-.05.42-.09.63-.14,1.34-.29-.4-.05.39-.06.68,0,1.36-.07,2.05-.05,1.42.05,2.37.22,4.24.71,2.64.69,5.21,1.65,7.76,2.63,1.05.4,2.08.82,3.12,1.25s-.59-.26.08.03c.27.12.55.24.82.35.6.26,1.2.53,1.8.81,4.36,2,8.61,4.27,12.6,6.93.93.62,1.85,1.27,2.76,1.93.24.17.47.35.7.53.58.43-.83-.67.06.05.5.4,1,.8,1.48,1.21,1.74,1.47,3.4,3.05,4.92,4.74.34.37.67.75.99,1.14.19.22,1.24,1.6.54.65.68.93,1.35,1.87,1.97,2.85.55.88,1.06,1.78,1.52,2.71.22.44.59,1,.69,1.47-.2-.87-.18-.46-.07-.17.14.36.28.71.41,1.07.35.98.66,1.98.9,2.99.13.54.25,1.08.35,1.62.04.22.08.44.12.66.04.22.07.44.1.67l-.07-.53c.36,1.01.21,2.51.2,3.57,0,.63-.03,1.26-.07,1.89-.02.25-.04.5-.06.75-.04.41-.15,1.09-.02.3-.4,2.49-1.08,4.88-1.99,7.23-.45,1.17.41-.81-.14.31-.11.23-.21.46-.32.69-.27.57-.56,1.13-.86,1.69-.61,1.12-1.27,2.21-1.98,3.26-.36.53-.73,1.05-1.11,1.57-.72,1,.36-.42-.12.16-.2.25-.4.5-.61.75-.82.99-1.69,1.95-2.59,2.87s-1.84,1.8-2.82,2.65c-.49.42-.99.83-1.48,1.23-.13.11-.68.51,0,0-.31.23-.61.46-.93.69-2.3,1.66-4.74,3.13-7.25,4.44-1.29.67-2.59,1.3-3.92,1.89-.27.12-.53.23-.8.35-1.28.56.44-.17-.33.14s-1.48.6-2.23.89c-11.33,4.34-23.4,6.87-35.2,9.6-6.36,1.47-12.73,2.85-19.15,4.03-3.2.59-6.41,1.13-9.63,1.62-.8.12-1.61.24-2.41.35-.32.04-.64.09-.97.13.68-.09-.34.04-.49.06-1.69.22-3.38.42-5.07.59-6.44.68-12.9,1.06-19.38,1.04-3.24,0-6.48-.12-9.71-.34-1.38-.09-2.75-.21-4.13-.34-.57-.06-1.13-.12-1.7-.18-.38-.04-.76-.09-1.13-.13-.24-.03-1.38-.18-.31-.04-5.05-.7-10.05-1.7-14.96-3.04-2.46-.67-4.89-1.42-7.3-2.26-1.08-.38-2.16-.77-3.22-1.18-.59-.23-1.18-.46-1.77-.7-.29-.12-.59-.24-.88-.36-.3-.13-.23-.1.2.08-.23-.1-.47-.2-.7-.3-4.62-2.02-9.09-4.38-13.34-7.1-.95-.61-1.88-1.24-2.81-1.88-.51-.36-1.02-.72-1.53-1.09-.25-.18-.5-.37-.75-.56-.16-.12-1.24-.96-.43-.32-1.96-1.54-3.86-3.15-5.67-4.87s-3.45-3.42-5.05-5.25c-.78-.9-1.53-1.81-2.27-2.74s.34.47-.1-.13c-.18-.25-.38-.5-.56-.75-.41-.56-.81-1.12-1.2-1.69-1.51-2.17-2.88-4.43-4.1-6.79-.59-1.14-1.13-2.31-1.66-3.49.35.78-.02-.04-.1-.24-.13-.31-.25-.63-.37-.95-.27-.7-.52-1.4-.76-2.1-.87-2.55-1.54-5.17-2-7.83-.06-.33-.11-.66-.16-.99-.14-.88-.02-.17,0,0-.08-.66-.15-1.32-.2-1.99-.11-1.38-.15-2.77-.13-4.16.02-1.25.12-2.49.25-3.73s-.12.59.02-.17c.06-.32.1-.65.16-.97.13-.71.28-1.41.45-2.11.3-1.21.66-2.4,1.08-3.57.11-.31.24-.61.35-.92.26-.72-.45.94.09-.2.29-.6.56-1.2.88-1.79.51-.97,1.08-1.92,1.69-2.83.3-.45.63-.89.95-1.33-.65.88.27-.32.52-.61,1.34-1.57,2.93-3.37,4.68-4.48-1.03.65.4-.28.66-.46.44-.31.9-.61,1.35-.9.92-.58,1.87-1.13,2.83-1.63.49-.25.98-.49,1.47-.73.26-.12,1.78-.96.74-.34.9-.54,2.12-.81,3.11-1.13,2.12-.67,4.29-1.18,6.49-1.52.27-.04,1.3-.33.13-.03.2-.05.47-.06.67-.08.56-.06,1.11-.11,1.67-.15,1.12-.08,2.24-.12,3.36-.12s2.24.05,3.35.14c.56.04,1.11.11,1.67.16.39.04.53.26-.2-.03.26.1.72.11.99.15,2.2.36,4.37.9,6.48,1.61.55.19,1.1.39,1.64.6.23.09.46.18.7.27,1.16.45-.83-.39.3.13s2.25,1.04,3.34,1.63c2.18,1.16,4.27,2.49,6.27,3.95.25.18.49.37.74.55.59.44-.82-.66.11.09.48.39.96.78,1.43,1.18.95.8,1.86,1.64,2.76,2.5,1.8,1.73,3.49,3.58,5.07,5.51.2.24.4.49.59.73.14.18.66.86.11.13.38.5.76,1,1.13,1.51.74,1.02,1.45,2.06,2.13,3.12,1.37,2.12,2.64,4.31,3.79,6.56.55,1.07,1.07,2.14,1.58,3.23.24.52.46,1.04.69,1.55.52,1.15-.34-.85.14.32.14.35.29.7.42,1.05,1.06,2.66,1.97,5.38,2.77,8.13,1.74,5.94,2.96,12.04,3.77,18.17-.09-.69,0,.08.02.19.06.46.12.92.17,1.39.08.69.16,1.39.24,2.08.17,1.62.33,3.25.46,4.88.26,3.11.45,6.22.59,9.33.55,11.7.75,23.44.92,35.15.17,11.51.11,23.03-.62,34.52-.18,2.79-.39,5.57-.66,8.36-.13,1.35-.27,2.7-.42,4.05-.08.71-.16,1.42-.25,2.12-.03.28-.07.57-.1.85-.02.16-.2,1.54-.14,1.09.09-.66-.1.73-.09.67-.04.28-.08.56-.12.84-.1.7-.21,1.4-.32,2.1-.23,1.47-.47,2.93-.73,4.4-.5,2.77-1.06,5.53-1.69,8.28-1.26,5.44-2.8,10.83-4.68,16.09-.45,1.25-.91,2.48-1.39,3.71-.25.65-.52,1.29-.78,1.94-.34.82-.1.25-.03.08-.19.45-.38.9-.58,1.34-1.08,2.45-2.19,4.94-3.51,7.28-.16.28-1.17,1.61-.46.8-.39.45-.76.89-1.19,1.3-.21.2-1.57,1.34-.73.7-.49.37-.99.72-1.51,1.04-1.06.66-2.17,1.21-3.3,1.73.82-.38.23-.09.04-.03-.35.13-.69.26-1.04.39-.57.2-1.15.38-1.73.55s-1.14.31-1.71.43c-.03,0-1.19.2-.58.13.65-.08-.69.02-.65.02-.28,0-.55-.02-.83-.02-1.24.03.77.22-.45-.04-.69-.14-1.37-.3-2.03-.52-.41-.13-.81-.28-1.2-.43.18.07.69.33-.11-.06-.66-.31-1.31-.64-1.95-.99-1.28-.71-2.51-1.49-3.73-2.3-2.17-1.44-4.32-2.91-6.45-4.42-1.06-.75-2.11-1.52-3.14-2.3-.21-.16-.41-.31-.62-.47.8.61-.22-.18-.32-.25-.51-.4-1.01-.81-1.51-1.22-1.97-1.63-3.87-3.36-5.63-5.22-.87-.91-1.7-1.86-2.5-2.84-.16-.19-.31-.39-.47-.59.57.72.05.05-.09-.13-.4-.55-.79-1.12-1.17-1.69-.68-1.04-1.31-2.12-1.87-3.22-.25-.5-.48-1.01-.72-1.52-.32-.67.37.99-.05-.14-.13-.35-.27-.7-.4-1.06-.41-1.16-.75-2.35-1.01-3.56-.11-.53-.19-1.06-.29-1.59-.14-.72.11,1.11,0-.05-.03-.36-.07-.71-.1-1.07-.09-1.18-.1-2.37-.04-3.55.03-.53.07-1.06.12-1.59.03-.29.06-.59.1-.88-.15,1.18.02-.03.05-.21.41-2.35,1.08-4.66,1.95-6.88,0-.02.47-1.1.19-.47s.21-.45.21-.46c.25-.55.52-1.1.8-1.64.56-1.09,1.17-2.15,1.82-3.19s1.37-2.05,2.1-3.05c.11-.15.54-.65-.02.03.16-.19.31-.39.47-.58.47-.58.96-1.14,1.46-1.7,1.67-1.85,3.47-3.58,5.4-5.15.19-.16.39-.31.58-.47-.82.66.15-.11.27-.2.45-.33.9-.66,1.36-.97,1.07-.73,2.16-1.42,3.28-2.06s2.33-1.27,3.52-1.84c.58-.28,1.17-.55,1.76-.81.05-.02,1.35-.57.51-.22.4-.16.8-.32,1.2-.48,2.67-1.04,5.4-1.91,8.17-2.64s5.61-1.32,8.45-1.81c.71-.12,1.43-.24,2.14-.35.29-.04.57-.09.86-.13-.07.01,1.34-.19.7-.1s.77-.1.7-.09c.29-.04.58-.07.87-.11.87-.1,1.73-.2,2.6-.29,12.35-1.28,24.81-1.57,37.2-2.19,13.09-.65,26.19-1.4,39.29-1.93,6.45-.26,12.93-.35,19.36.25,1.68.16,2.68.28,3.84.46,1.43.22,2.86.49,4.28.8,2.43.54,4.83,1.21,7.18,2.02,1.12.38,2.23.8,3.33,1.24,0,0,1.13.47.5.2s.49.22.49.22c.63.28,1.25.56,1.87.86,2.24,1.08,4.43,2.28,6.53,3.6,1,.63,1.98,1.28,2.94,1.96.51.36,1,.73,1.5,1.1.68.5.1.08-.03-.03.29.23.58.46.87.69,1.92,1.55,3.75,3.22,5.47,5,.86.89,1.69,1.8,2.48,2.74.4.47.78.95,1.17,1.43.12.14.52.67-.02-.04.22.29.45.59.66.89,1.46,1.99,2.78,4.07,3.95,6.24.59,1.09,1.14,2.2,1.65,3.33.1.22.19.44.29.66-.45-1.02.03.09.1.26.22.56.43,1.12.63,1.69.8,2.27,1.44,4.6,1.9,6.97.12.59.22,1.19.32,1.78,0,.03.19,1.21.08.48s.05.44.06.48c.14,1.2.24,2.4.29,3.61.11,2.41.05,4.82-.17,7.22-.06.6-.13,1.2-.2,1.79.15-1.17-.11.65-.16.94-.21,1.18-.45,2.36-.74,3.52-.58,2.32-1.33,4.59-2.23,6.8.42-1.04-.31.67-.41.88-.25.54-.52,1.07-.79,1.6-.55,1.05-1.14,2.09-1.77,3.09s-1.31,1.98-2.02,2.94c-.12.16-.54.65.05-.06-.19.23-.37.46-.56.69-.42.51-.85,1-1.29,1.49-.81.89-1.66,1.74-2.55,2.55-.41.37-.83.74-1.25,1.1-.24.2-.47.39-.71.59-.95.78.74-.52-.26.2-1.99,1.45-4.07,2.74-6.28,3.84-.55.27-1.11.53-1.67.79-.77.35-.09.05.06-.02-.34.14-.68.28-1.03.41-1.15.44-2.32.84-3.5,1.18s-2.26.61-3.4.85c-.54.11-1.09.22-1.63.31-.36.06-.73.12-1.09.17-.98.15.81-.08-.27.03-2.46.25-4.91.36-7.38.23-.61-.03-1.23-.08-1.84-.13-.24-.02-.49-.05-.73-.07-.02,0-1.22-.16-.5-.06s-.47-.08-.5-.08c-.24-.04-.48-.08-.73-.12-.73-.13-1.45-.28-2.16-.45-1.14-.27-2.26-.58-3.37-.95-.53-.17-1.05-.35-1.57-.55-.35-.13-.69-.27-1.03-.4.73.29.06.03-.28-.13-2.1-.95-4.16-2-6.17-3.12-1.72-.97-3.4-2.01-5-3.17-.15-.11-.29-.22-.44-.33-.79-.58.8.66.05.04-.31-.25-.62-.5-.92-.76-.69-.59-1.35-1.21-1.98-1.86-.53-.55-1.04-1.11-1.52-1.7-.78-.95.49.69-.23-.29-.25-.34-.5-.69-.73-1.04-.94-1.4-1.76-2.88-2.48-4.41-.2-.43-.39-.86-.59-1.29-.34-.77.1.27.11.27-.07-.01-.3-.74-.33-.83-.34-.87-.66-1.74-.96-2.62-.75-2.2-1.4-4.44-2-6.69s-3.23-3.89-5.54-3.14-3.8,3.1-3.14,5.54c2.25,8.39,5.24,16.91,11.59,23.12,3.01,2.94,6.58,5.32,10.27,7.33,4.61,2.51,9.44,4.71,14.58,5.83,10.92,2.38,22.41.89,32.42-4.04s17.17-12.9,21.4-22.63c4.36-10.02,5.56-20.96,3.76-31.72-1.78-10.68-7.09-20.54-14.38-28.47-7.35-7.99-16.74-13.9-26.88-17.67-11.87-4.41-24.65-4.92-37.18-4.47-13.75.49-27.5,1.33-41.24,2.01-12.8.64-25.7.9-38.44,2.35-12.3,1.41-24.86,4.08-35.53,10.65-9.42,5.79-16.96,14.54-20.93,24.87-3.99,10.39-2.95,22.02,3,31.44s15.5,16.18,24.7,22.35c5.65,3.78,11.86,7.06,18.86,5.67,5.27-1.05,10.75-3.6,14.54-7.45,2.09-2.12,3.38-4.68,4.66-7.34,1.38-2.86,2.63-5.78,3.81-8.73,2.16-5.44,3.94-11.04,5.38-16.72,5.94-23.33,6.64-47.69,6.33-71.64-.15-12.21-.36-24.45-.94-36.66-.62-13.08-1.96-26.29-5.7-38.89-6.25-21.03-20.36-41.29-41.88-48.58-18.5-6.27-42.28-.03-52.31,17.56-5.89,10.33-6.14,22.89-2.84,34.11,3.23,11.01,9.7,20.88,17.81,28.92,15.37,15.24,36.49,24.04,57.71,27.09,26.69,3.83,53.6-.66,79.62-6.68,6.44-1.49,12.87-3.03,19.26-4.69,5.94-1.54,11.86-3.25,17.56-5.56,11.22-4.54,21.37-11.2,28.14-21.44,6.1-9.23,8.35-20.97,4.61-31.55-3.45-9.75-10.77-17.23-19.14-23.01-4.14-2.86-8.58-5.29-13.14-7.41-5.01-2.32-10.23-4.51-15.55-6.01-6.05-1.71-12.58-1.79-18.1,1.55-4.23,2.56-7.39,6.65-9.5,11.07-2.14,4.48-3.54,9.25-4.47,14.12-1.23,6.47-2.06,13.04-2.93,19.56-1.8,13.55-3.12,27.16-3.97,40.8-1.67,27.03-1.47,54.19.61,81.19,1.02,13.3,2.52,26.55,4.42,39.75.34,2.34,3.42,3.83,5.54,3.14,2.56-.83,3.5-3.03,3.14-5.54h0Z"/>
      <path class="cls-1" d="m169.6,231.88c-.99-6.88-1.84-13.56-2.64-20.86s-1.45-14.41-2-21.63c-1.09-14.36-1.69-28.75-1.82-43.15-.26-28.88,1.4-57.78,4.99-86.44.84-6.72,1.8-13.45,2.94-20.56.79-4.94,1.84-9.85,3.61-14.54.12-.32.25-.65.38-.97.4-1.05-.3.59.01-.04.28-.56.51-1.14.79-1.7.54-1.1,1.14-2.17,1.79-3.2.29-.46.61-.9.92-1.35.6-.87-.47.51-.02.01.18-.2.34-.41.51-.62.75-.88,1.59-1.66,2.45-2.44.79-.72-.81.54.07-.06.17-.12.34-.24.51-.36.43-.29.87-.56,1.33-.81.27-.15.56-.28.83-.43.9-.48-.69.2-.06.01s1.21-.44,1.83-.6c.27-.07.53-.14.8-.19.11-.02,1.31-.21.55-.12.78-.1,1.58-.11,2.37-.09.32,0,.63.02.95.04-.01,0,1.54.16.7.05.95.13,1.9.34,2.83.57,3.01.74,5.94,1.82,8.84,2.93,1.25.48,2.49.98,3.74,1.48.18.07.8.34-.06-.03.34.14.68.29,1.02.44.68.3,1.36.6,2.03.9,4.8,2.19,9.47,4.67,13.87,7.58,1.07.71,2.13,1.44,3.16,2.2.23.17,1.67,1.27.83.61.57.45,1.13.9,1.68,1.36,1.9,1.59,3.71,3.29,5.39,5.11.86.93,1.68,1.9,2.47,2.9-.67-.85.34.48.52.74.39.56.77,1.12,1.14,1.7.6.95,1.17,1.93,1.69,2.93.26.5.5,1,.74,1.52.09.19.52,1.25.08.16.13.31.25.63.37.94.4,1.06.75,2.13,1.04,3.23.16.61.3,1.22.43,1.83.06.28.11.56.16.85.02.12.22,1.48.13.78-.1-.75.04.4.04.45.04.35.07.7.09,1.06.04.63.07,1.26.08,1.9.01,1.44-.07,2.87-.25,4.3.12-.97,0-.09-.04.15-.05.32-.11.64-.17.96-.13.64-.27,1.27-.43,1.9-.35,1.39-.8,2.75-1.31,4.08-.05.12-.55,1.32-.14.37-.13.3-.26.6-.4.9-.3.66-.62,1.3-.96,1.94-.68,1.28-1.42,2.53-2.23,3.74-.37.55-.75,1.1-1.14,1.64.03-.04-.75,1.02-.37.5s-.42.52-.39.49c-.92,1.14-1.9,2.25-2.92,3.31-.93.96-1.89,1.89-2.89,2.78-.55.49-1.11.97-1.68,1.43-.26.21-.52.42-.78.63.73-.58-.37.28-.52.39-2.53,1.87-5.23,3.51-8,4.98-1.33.71-2.69,1.37-4.06,2-.69.32-1.38.62-2.07.92.78-.33-.59.24-.6.24-.42.17-.84.34-1.26.5-12.6,4.92-26.07,7.74-39.22,10.79-7.09,1.65-14.2,3.19-21.36,4.51-3.49.65-6.98,1.24-10.49,1.77-.83.13-1.67.25-2.5.37-.5.07-1,.14-1.5.21.56-.08-.26.03-.31.04-1.92.25-3.84.48-5.77.69-13.73,1.47-27.64,1.74-41.35,0,1.08.14-.23-.03-.37-.05-.26-.04-.52-.08-.78-.11-.65-.1-1.31-.2-1.96-.31-1.5-.25-3-.52-4.49-.82-2.79-.56-5.57-1.21-8.32-1.95s-5.35-1.54-7.98-2.45c-1.38-.47-2.74-.97-4.1-1.5-.62-.24-1.23-.48-1.84-.73-.24-.1-.49-.2-.73-.3-.48-.2-.49-.2-.02,0-.24-.1-.48-.21-.73-.31-5.11-2.22-10.06-4.81-14.75-7.81-1.15-.74-2.29-1.49-3.41-2.28-.53-.37-1.06-.75-1.59-1.13-.26-.19-.52-.38-.78-.58-.15-.11-1.25-.96-.48-.36-2.15-1.66-4.22-3.43-6.21-5.29s-4.06-4-5.93-6.15c-.85-.98-1.67-1.99-2.48-3s.52.72-.25-.33c-.15-.21-.31-.42-.47-.63-.47-.63-.92-1.27-1.37-1.91-1.68-2.43-3.22-4.95-4.58-7.58-.68-1.31-1.3-2.65-1.9-4.01.3.7.01.03-.04-.09-.16-.39-.32-.78-.47-1.18-.3-.79-.59-1.58-.86-2.38-.94-2.79-1.68-5.64-2.19-8.54-.07-.41-.13-.82-.2-1.24-.21-1.32.04.55-.03-.25-.07-.76-.17-1.51-.22-2.27-.11-1.51-.16-3.02-.12-4.53.03-1.37.14-2.72.28-4.08s-.18.9.06-.42c.05-.27.09-.54.13-.8.14-.8.31-1.6.5-2.39.32-1.32.71-2.63,1.18-3.91.14-.39.29-.77.44-1.15.47-1.21-.24.45.11-.25s.69-1.48,1.08-2.2c.57-1.06,1.19-2.09,1.86-3.09.32-.47.65-.93.99-1.38-.6.82-.14.17.03-.03.25-.3.5-.61.76-.91,1.55-1.79,3.28-3.41,5.14-4.87-.92.72.61-.43.86-.6.51-.36,1.03-.7,1.56-1.03,1.06-.66,2.15-1.28,3.26-1.85.51-.26,1.02-.51,1.54-.75.26-.12.53-.22.78-.35.62-.32-1.01.39.03-.01,1.18-.46,2.36-.9,3.57-1.28,2.38-.75,4.81-1.3,7.27-1.67.27-.04,1.1-.13.01,0,.35-.04.69-.08,1.04-.12.58-.06,1.16-.11,1.74-.15,1.28-.09,2.56-.13,3.84-.11,1.17.01,2.33.06,3.49.16.58.05,1.16.11,1.74.17,1.19.12-.99-.16.19.02.34.05.69.11,1.03.16,2.51.43,4.99,1.06,7.4,1.9.58.2,1.16.42,1.74.65.3.12.6.24.9.36.7.28-.96-.44.17.08,1.28.59,2.55,1.19,3.79,1.86,2.42,1.3,4.73,2.78,6.94,4.42.26.19.51.38.77.58-.81-.62.2.16.3.24.5.4.99.81,1.48,1.22,1.07.92,2.11,1.87,3.13,2.85,1.94,1.89,3.77,3.89,5.48,5.99.25.3.49.61.73.91.79.97-.33-.44.13.16.43.57.86,1.14,1.28,1.72.84,1.16,1.64,2.35,2.42,3.55,1.48,2.3,2.85,4.68,4.1,7.12.6,1.16,1.17,2.33,1.71,3.52.3.65.58,1.31.87,1.96.32.7-.4-.98.08.18.17.42.34.84.51,1.26,1.17,2.96,2.19,5.98,3.08,9.03.94,3.22,1.74,6.48,2.41,9.76.35,1.72.68,3.45.97,5.18.13.79.26,1.58.38,2.37.05.32.1.63.14.95.05.32.09.63.14.95.08.56.09.63.04.23.92,6.76,1.41,13.59,1.74,20.4.62,12.94.83,25.92,1.03,38.87.19,12.81.13,25.63-.67,38.42-.4,6.28-.98,12.54-1.79,18.78-.11.84.15-1.07-.05.33-.06.44-.12.87-.19,1.31-.11.73-.21,1.45-.33,2.18-.25,1.59-.51,3.18-.79,4.77-.54,3.01-1.14,6.01-1.83,9-1.39,6.06-3.09,12.05-5.17,17.92-.48,1.36-.99,2.71-1.51,4.05-.29.74-.58,1.47-.88,2.21-.14.33-.27.67-.41,1,.32-.77-.25.56-.31.71-1.23,2.81-2.49,5.65-4,8.32-.29.51-.61,1.01-.96,1.48.64-.86-.5.51-.71.72-.43.44-.9.83-1.36,1.24-.91.8.74-.47-.27.21-.31.21-.62.43-.94.64-1.18.76-2.43,1.39-3.7,1.99-.17.08-.8.31.02,0-.36.14-.71.28-1.07.41-.7.26-1.42.49-2.14.7-.58.17-1.17.32-1.76.46-.3.07-.61.12-.91.2-.73.19.94.02-.35.03-.74,0-1.46.02-2.19-.05.95.1-.46-.11-.54-.13-.43-.1-.86-.21-1.29-.34-2.55-.77-5.32-2.44-8.08-4.26-2.42-1.6-4.82-3.23-7.18-4.91-1.09-.77-2.17-1.56-3.24-2.37-.32-.24-.64-.48-.96-.73.64.48.08.06-.04-.03-.63-.5-1.26-.99-1.87-1.5-2.24-1.84-4.41-3.79-6.42-5.89-.9-.94-1.77-1.91-2.6-2.91-.25-.3-.49-.6-.73-.9.11.14.5.68,0,0-.46-.62-.91-1.25-1.33-1.89-.71-1.06-1.37-2.16-1.98-3.29-.33-.62-.65-1.25-.94-1.9-.1-.21-.44-1.01-.09-.16-.17-.42-.34-.84-.49-1.26-.47-1.26-.86-2.56-1.16-3.87-.14-.61-.26-1.22-.37-1.83,0-.02-.18-1.23-.08-.5.08.64-.07-.75-.08-.87-.11-1.22-.14-2.45-.11-3.68.02-.61.05-1.22.1-1.83.03-.37.07-.73.11-1.1.1-1.07-.14.71.04-.26.48-2.69,1.14-5.31,2.12-7.87.09-.23.18-.46.27-.7.45-1.17-.4.83.13-.31.27-.57.52-1.14.8-1.71.62-1.25,1.3-2.47,2.03-3.66.67-1.09,1.38-2.15,2.13-3.19.23-.31.46-.62.69-.93-.54.71-.01.02.13-.15.48-.6.98-1.19,1.49-1.78,1.83-2.09,3.83-4.03,5.96-5.81.25-.21.5-.41.75-.61.17-.14.86-.67.15-.13.51-.39,1.03-.77,1.55-1.14,1.15-.81,2.33-1.58,3.54-2.29,1.34-.79,2.72-1.52,4.12-2.2.67-.33,1.35-.64,2.03-.95.27-.12.55-.24.82-.36.49-.21.55-.24.16-.07.28-.11.55-.23.83-.34,2.91-1.16,5.88-2.13,8.9-2.95s6.26-1.52,9.43-2.08c1.56-.27,3.12-.52,4.69-.74.92-.13.35-.05.15-.02.45-.06.9-.12,1.35-.17.9-.11,1.8-.21,2.71-.31,13.7-1.46,27.53-1.78,41.29-2.46,14.63-.73,29.26-1.56,43.9-2.16,13.47-.55,26.07-.43,38.7,3.88,1.22.42,2.44.87,3.64,1.35.3.12.6.24.9.37.71.29-.96-.44.17.08.71.32,1.42.63,2.12.97,2.51,1.19,4.95,2.52,7.3,3.99,1.15.72,2.28,1.46,3.38,2.24.53.37,1.05.75,1.56,1.13-.02-.01.99.75.47.35-.41-.31.65.52.76.6,2.09,1.69,4.09,3.51,5.97,5.43.98,1.01,1.93,2.05,2.84,3.12.41.49.82.98,1.22,1.48.16.2.32.4.48.6-.63-.81.35.47.45.62,1.59,2.17,3.03,4.43,4.31,6.79.61,1.13,1.19,2.28,1.72,3.44.16.34.31.69.46,1.03-.39-.87-.04-.09.05.13.28.69.54,1.39.8,2.09.9,2.52,1.61,5.11,2.13,7.74.12.61.23,1.22.33,1.84.06.37.11.74.17,1.11-.02-.16-.11-.95-.01-.08.16,1.36.29,2.73.36,4.1.14,2.74.08,5.49-.17,8.21-.06.62-.13,1.24-.2,1.85.13-1.14-.12.78-.16,1.02-.22,1.35-.5,2.68-.82,4.01-.63,2.59-1.49,5.09-2.44,7.57-.26.69.44-.97-.05.12-.15.34-.3.67-.45,1.01-.26.56-.53,1.11-.81,1.66-.61,1.2-1.27,2.38-1.98,3.53-.65,1.04-1.33,2.06-2.06,3.06-.09.12-.84,1.1-.19.27-.15.19-.3.39-.46.58-.46.58-.94,1.14-1.44,1.69-.91,1.02-1.86,1.99-2.85,2.92-.47.44-.95.87-1.44,1.28-.2.17-.39.33-.59.49-.14.11-1.42,1.09-.6.48-2.17,1.6-4.43,3.03-6.83,4.25-.57.29-1.15.57-1.73.84-.35.16-.7.31-1.05.47.8-.35.18-.08.01-.01-1.38.53-2.76,1.04-4.17,1.46-1.29.39-2.59.73-3.91,1.01-.63.13-1.26.26-1.89.37-.32.06-.63.11-.95.16-1.19.18.4-.02-.52.08-2.68.29-5.37.43-8.06.31-1.41-.06-2.81-.18-4.21-.36.17.02.92.14.06,0-.38-.06-.76-.12-1.14-.19-.76-.14-1.51-.29-2.26-.46-1.25-.29-2.48-.63-3.7-1.02-.61-.2-1.21-.4-1.81-.63-.36-.13-.72-.28-1.08-.41-.91-.34.62.3-.34-.14-2.36-1.08-4.69-2.23-6.95-3.49-1.94-1.08-3.83-2.24-5.63-3.54-.19-.14-.38-.28-.58-.43-.54-.4-.09-.4.13.1-.12-.29-.81-.66-1.07-.88-.75-.64-1.48-1.31-2.17-2.02s-1.33-1.41-1.94-2.16c-.1-.13-.21-.3-.33-.41.85.79.3.38.06.07-.26-.36-.52-.72-.77-1.09-1.03-1.53-1.93-3.15-2.73-4.82-.23-.49-.45-.98-.67-1.48-.16-.36-.53-.69.04.1-.16-.22-.25-.61-.35-.86-.39-1-.76-2.02-1.11-3.04-.82-2.41-1.53-4.87-2.19-7.33-.61-2.27-3.23-3.89-5.54-3.14s-3.8,3.1-3.14,5.54c2.48,9.24,5.76,18.62,12.76,25.46,3.35,3.26,7.32,5.89,11.41,8.11,5.19,2.82,10.62,5.25,16.42,6.44,12.03,2.47,24.68.76,35.63-4.81,10.45-5.31,18.63-14.39,23.21-25.13,4.7-11.02,5.91-23.12,3.82-34.9s-7.92-22.37-15.92-31c-8.16-8.8-18.59-15.32-29.83-19.42-13.13-4.79-27.23-5.29-41.06-4.78-15.23.56-30.45,1.48-45.67,2.23-14.34.71-28.79.99-43.06,2.68-13.51,1.6-27.34,4.63-39,11.98-10.27,6.48-18.58,16.22-22.74,27.68-4.16,11.47-2.8,24.13,3.89,34.36s17.14,17.57,27.25,24.31c6.19,4.13,13.05,7.61,20.68,5.87,5.77-1.31,11.83-4.08,15.86-8.52,2.16-2.38,3.51-5.2,4.88-8.07,1.53-3.21,2.93-6.49,4.22-9.81,2.31-5.92,4.21-11.99,5.77-18.15,6.51-25.81,7.25-52.73,6.91-79.2-.18-13.62-.4-27.28-1.06-40.89-.7-14.44-2.21-29.03-6.4-42.91-6.93-22.99-22.4-45.13-45.94-53.14-20.35-6.93-46.57-.1-57.57,19.29C-1.08,33.37-1.28,47.27,2.43,59.65c3.6,12.04,10.72,22.82,19.61,31.62,17.1,16.92,40.62,26.62,64.21,29.92,29.7,4.15,59.62-.97,88.54-7.7,13.56-3.16,27.5-6.04,40.41-11.35s23.51-12.54,30.79-23.94c6.48-10.15,8.76-22.91,4.55-34.38-3.91-10.67-12.03-18.83-21.26-25.14-4.61-3.15-9.53-5.82-14.6-8.14-5.51-2.53-11.26-4.95-17.12-6.55-6.63-1.8-13.83-1.78-19.75,2.07-4.51,2.92-7.83,7.35-10.08,12.18s-3.81,10.19-4.81,15.55c-1.36,7.29-2.3,14.68-3.27,22.03-1.95,14.86-3.39,29.79-4.31,44.75-1.84,29.92-1.6,59.97.7,89.85,1.13,14.67,2.78,29.3,4.88,43.87.34,2.34,3.42,3.83,5.54,3.14,2.56-.83,3.5-3.03,3.14-5.54h0Z"/>
    </g>
  </g>
</svg>