<?xml version="1.0" encoding="utf-8"?>
<!-- Generator: Adobe Illustrator 27.5.0, SVG Export Plug-In . SVG Version: 6.00 Build 0)  -->
<svg version="1.1" id="Layer_2_00000030450327913986783530000004795837638972638627_"
	 xmlns="http://www.w3.org/2000/svg" xmlns:xlink="http://www.w3.org/1999/xlink" x="0px" y="0px" viewBox="0 0 183.6 190.2"
	 style="enable-background:new 0 0 183.6 190.2;" xml:space="preserve">
<style type="text/css">
	.st0{fill:#E1FC2C;}
</style>
<g id="Layer_1-2">
	<path class="st0" d="M121.6,154.4c-0.2-1.3-0.4-2.6-0.5-3.9l0.3,2.4c-3.9-28.9-4.8-58.3-2.6-87.4c0.6-8.2,1.5-16.5,2.6-24.7
		l-0.3,2.4c0.9-6.9,1.6-14.1,4.2-20.6l-0.9,2.1c0.7-1.7,1.6-3.3,2.7-4.7l-1.4,1.8c0.7-0.9,1.4-1.7,2.3-2.4l-1.8,1.4
		c0.8-0.6,1.7-1.1,2.6-1.5l-2.2,0.9c0.8-0.3,1.7-0.6,2.5-0.7l-2.4,0.3c1.2-0.2,2.4-0.1,3.6,0l-2.4-0.3c3.7,0.6,7.4,2.1,10.8,3.5
		l-2.1-0.9c4.9,2.1,9.7,4.6,13.9,7.9l-1.8-1.4c2.4,1.9,4.6,4,6.5,6.4l-1.4-1.8c1.2,1.7,2.3,3.4,3.1,5.3l-0.9-2.2
		c0.8,1.8,1.3,3.7,1.6,5.7l-0.3-2.4c0.2,1.8,0.2,3.7,0,5.5l0.3-2.4c-0.3,2-0.8,3.9-1.6,5.8l0.9-2.2c-1,2.2-2.2,4.3-3.7,6.2l1.4-1.8
		c-1.8,2.2-3.8,4.2-6,6l1.8-1.4c-3.1,2.4-6.6,4.3-10.3,5.8l2.1-0.9c-7.7,3.2-15.9,5-24,6.9c-8.8,2.1-17.6,4-26.6,5.2l2.4-0.3
		c-10.3,1.4-20.9,1.8-31.2,0.4l2.4,0.3c-7-1-14-2.8-20.5-5.5l2.2,0.9c-5.3-2.2-10.4-5.1-15-8.6l1.8,1.4c-3.6-2.8-6.9-6.1-9.8-9.7
		l1.4,1.8c-2.3-3-4.3-6.3-5.8-9.8l0.9,2.2c-1.3-3.1-2.2-6.3-2.7-9.7l0.3,2.4c-0.3-2.6-0.4-5.2-0.1-7.9l-0.3,2.4
		c0.3-2.2,0.9-4.4,1.7-6.4l-0.9,2.1c0.8-1.8,1.8-3.5,3-5.1l-1.4,1.8c1.2-1.5,2.6-2.9,4.2-4.1l-1.8,1.4c1.8-1.4,3.8-2.5,6-3.5
		l-2.1,0.9c2.6-1.1,5.3-1.8,8-2.2l-2.4,0.3c2.8-0.4,5.6-0.3,8.4,0L38.1,18c2.6,0.4,5.1,1.1,7.6,2.1l-2.2-0.9c3,1.3,5.7,2.9,8.3,4.9
		L50,22.6c3,2.3,5.6,5,7.9,7.9l-1.4-1.8c2.9,3.8,5.3,8,7.2,12.4l-0.9-2.2c2.7,6.5,4.3,13.4,5.2,20.3l-0.3-2.4
		C68.9,67,69,77.3,69.2,87.5c0.2,9.7,0.4,19.3-0.1,28.9c-0.2,5.4-0.7,10.8-1.4,16.2l0.3-2.4c-1.3,9.7-3.6,19.3-7.4,28.3l0.9-2.1
		c-1,2.4-2,5.1-3.6,7.2l1.4-1.8c-0.7,0.9-1.4,1.6-2.3,2.2l1.8-1.4c-1.2,0.9-2.5,1.6-3.9,2.2l2.2-0.9c-1.4,0.5-2.8,1-4.2,1.2l2.4-0.3
		c-0.8,0.1-1.7,0.1-2.5,0l2.4,0.3c-1-0.2-1.9-0.4-2.8-0.8l2.2,0.9c-2.3-1-4.5-2.4-6.6-3.9c-1.9-1.3-3.8-2.6-5.6-4l1.8,1.4
		c-3-2.3-5.8-4.9-8.2-7.9l1.4,1.8c-1.3-1.8-2.5-3.7-3.4-5.7l0.9,2.1c-0.7-1.7-1.2-3.5-1.4-5.3l0.3,2.4c-0.2-1.9-0.2-3.8,0-5.6
		l-0.3,2.4c0.3-2.2,1-4.4,1.8-6.5l-0.9,2.1c1-2.4,2.3-4.6,3.9-6.6l-1.4,1.8c1.8-2.4,3.9-4.5,6.3-6.3l-1.8,1.4c2.6-2,5.5-3.6,8.6-4.9
		l-2.2,0.9c5.2-2.1,10.7-3.3,16.2-4.1l-2.4,0.3c9.3-1.2,18.7-1.4,28-1.9c10-0.5,20-1.1,30-1.5c5.5-0.2,11.1-0.3,16.6,0.5l-2.4-0.3
		c4.3,0.6,8.4,1.7,12.4,3.4l-2.1-0.9c3.7,1.6,7.1,3.6,10.3,6l-1.8-1.4c2.9,2.3,5.6,4.9,7.9,7.8l-1.4-1.8c1.9,2.6,3.6,5.3,4.9,8.2
		l-0.9-2.1c1.2,2.9,2,5.9,2.5,9l-0.3-2.4c0.4,3.4,0.4,6.7,0,10.1l0.3-2.4c-0.4,3.1-1.2,6.1-2.4,8.9l0.9-2.1c-1.1,2.5-2.4,4.9-4.1,7
		l1.4-1.8c-1.5,1.9-3.2,3.6-5.1,5.1l1.8-1.4c-2.1,1.6-4.3,2.9-6.7,3.9l2.1-0.9c-2.6,1.1-5.4,1.8-8.2,2.2l2.4-0.3
		c-2.8,0.4-5.6,0.4-8.5,0.1l2.4,0.3c-2.7-0.4-5.3-1.1-7.8-2.1l2.1,0.9c-3.2-1.4-6.4-3.1-9.1-5.2l1.8,1.4c-1.4-1.1-2.7-2.4-3.8-3.8
		l1.4,1.8c-1.3-1.7-2.3-3.6-3.2-5.6l0.9,2.1C123.1,159.5,122.3,156.9,121.6,154.4c-1.2-4.6-6.5-7.8-11.1-6.3s-7.6,6.2-6.3,11.1
		c1.9,6.9,4.5,13.9,9.7,19.1c2.5,2.5,5.5,4.6,8.6,6.2c3.7,2,7.7,3.9,11.8,4.8c9.4,2,19,0.8,27.6-3.4c7.6-3.7,14-10.5,17.4-18.2
		c2.1-4.7,3.2-9.1,3.9-14.2c0.5-4.3,0.2-8.5-0.5-12.8c-1.4-8.6-5.8-16.6-11.7-23.1s-13.6-11.2-21.7-14.2c-8.9-3.4-18.7-3.8-28.2-3.5
		c-10,0.3-20,1-29.9,1.5c-9.3,0.5-18.7,0.6-28,1.7c-9.8,1.2-19.7,3.2-28.1,8.5c-8.1,5-14.2,12.5-17.5,21.3s-2.2,18.9,2.8,26.8
		s12.1,12.9,19.5,17.9c5,3.4,10.5,5.9,16.7,5.1c5.2-0.7,10.3-3.1,14.2-6.7s5.8-9,7.7-13.7c1.6-3.9,2.9-7.8,3.9-11.9
		c4.6-17.3,5.2-35.4,5-53.2c-0.1-8.8-0.3-17.7-0.7-26.5c-0.5-10-1.4-20.2-4.3-29.8C77.4,23.7,65.9,8,48.6,2
		C32.9-3.5,12.9,2.3,4.4,17.1c-5,8.7-5.5,19.4-2.8,28.9c2.5,8.8,7.6,16.8,14.1,23.2c11.6,11.7,27.7,18.7,43.8,21.1
		c9.9,1.5,19.9,1.6,29.9,0.6c10.3-1.1,20.6-3,30.7-5.3c8.9-2.1,18-3.9,26.4-7.4c4.6-1.9,9.1-3.9,13.1-7c4.2-3.2,7.7-6.7,10.6-11.1
		c5.1-7.8,6.9-18,3.8-26.9c-3-8.5-9-14.9-16.3-20c-2.9-2-6.1-3.8-9.4-5.3c-4.1-1.9-8.3-3.7-12.6-4.9c-5.8-1.6-12-1.5-17.2,1.6
		c-3.8,2.2-6.9,5.8-8.9,9.8c-4.1,8.3-4.9,17.6-6.2,26.6c-1.3,9.7-2.3,19.5-2.9,29.3c-1.2,19.6-1.1,39.3,0.4,58.9
		c0.8,10.1,1.9,20.2,3.4,30.2c0.3,2.1,2.4,4.4,4.1,5.4c1.9,1.1,4.8,1.6,6.9,0.9s4.3-2.1,5.4-4.1l0.9-2.1
		C122,157.6,122,156,121.6,154.4L121.6,154.4L121.6,154.4z"/>
</g>
</svg>
