<?xml version="1.0" encoding="UTF-8"?>
<svg id="Layer_2" data-name="Layer 2" xmlns="http://www.w3.org/2000/svg" viewBox="0 0 728.73 619.15">
  <defs>
    <style>
      .cls-1 {
        fill: #ea5781;
      }

      .cls-2 {
        fill: none;
        stroke: #ea5781;
        stroke-miterlimit: 10;
        stroke-width: 25px;
      }
    </style>
  </defs>
  <g id="Layer_1-2" data-name="Layer 1">
    <g>
      <path class="cls-1" d="m549.14,309.81s14.45,309.34-236.41,309.34l-312.73-.16,21.36-21.75V22.18L0,0l312.73.47c250.86,0,236.41,309.34,236.41,309.34Zm-152,0c0-285.97-105.31-287.47-105.31-287.47h-84.95c-18.34,0-33.21,14.87-33.21,33.21v508.49c0,18.34,14.86,33.21,33.2,33.21l84.96.02s105.31-1.49,105.31-287.47Z"/>
      <g>
        <path class="cls-2" d="m691.66,591.28h-162.74l-31.81-113.4c-27.33,39.84-94.12,124.88-195.93,127.57-57.49,1.52-93.8-1.94-113.7-31.41-38.39-56.83-18.95-169.97,4.93-245.88C246.78,155.23,372.6,33.9,372.6,33.9l-29.59-20.72h144.52c12.72,0,26.44,15.78,29.87,28.03l147.57,529.77,26.69,20.31Z"/>
        <path class="cls-2" d="m492.96,463.06L376.16,46.58c-9.78,7.8-9.88,4.38-42.21,54.97-109.93,172.06-64.85,484.63,41.59,469.43,45.47-6.48,95.85-75.29,117.41-107.92Z"/>
      </g>
    </g>
    <path class="cls-1" d="m310.81,316.37c1.77-1.37,3.73-2.35,5.49-3.53,4.12-2.94,4.32-7.65.39-10.4-2.55-1.96-5.3-3.73-7.65-5.89-1.57-1.37.78-7.85,2.75-8.63,5.69-1.77,10.6-.2,15.7,2.55,3.93,2.16,4.91,1.37,5.89-3.53.59-3.34.59-6.48,1.57-9.62.59-2.36,2.94-2.94,5.1-2.94,2.55-.2,4.71.2,5.5,2.55,1.37,3.93,2.16,8.24,3.34,12.36.98,3.14,2.36,2.94,4.91.98,3.53-2.75,7.65-3.93,12.36-3.34,3.73.59,6.08,2.55,6.67,5.89.39,2.55-.2,4.52-2.35,5.89-1.77,1.18-3.73,2.16-5.5,3.34-3.93,2.94-3.93,7.65.2,10.6,1.77,1.18,3.73,2.16,5.5,3.34,2.16,1.37,2.55,3.53,2.16,5.89-.78,3.73-3.14,5.5-6.67,5.89-4.71.78-8.64-.98-12.17-3.53-2.75-1.96-4.32-1.96-4.91.98-1.18,4.12-1.57,8.44-2.75,12.56-.78,2.55-2.94,2.94-5.3,2.94-2.55,0-4.71-.2-5.5-2.75-1.18-4.12-1.96-8.24-2.94-12.56-.79-2.94-2.16-2.75-4.91-.78-3.53,2.55-7.65,3.93-12.17,3.34-3.34-.39-6.08-2.36-6.87-5.69-.59-2.55.2-4.51,2.16-5.89Z"/>
  </g>
</svg>