<?xml version="1.0" encoding="utf-8"?>
<!-- Generator: Adobe Illustrator 27.5.0, SVG Export Plug-In . SVG Version: 6.00 Build 0)  -->
<svg version="1.1" id="Layer_2_00000145762728354265322610000018174778239282278823_"
	 xmlns="http://www.w3.org/2000/svg" xmlns:xlink="http://www.w3.org/1999/xlink" x="0px" y="0px" viewBox="0 0 1106.3 493.9"
	 style="enable-background:new 0 0 1106.3 493.9;" xml:space="preserve">
<style type="text/css">
	.st0{fill:#E1FC2C;}
	.st1{fill:#FFE5FC;}
</style>
<path class="st0" d="M10.2,21.1l-6.7-7l98.4,0.1c78.9,0,74.4,97.3,74.4,97.3s4.6,97.3-74.4,97.3l-98.4-0.1l6.7-6.8 M128.4,111.6
	c0-90-33.1-90.4-33.1-90.4H68.6c-5.8,0-10.5,4.7-10.5,10.5v159.9c0,5.8,4.7,10.4,10.4,10.4h26.7C95.3,202,128.4,201.5,128.4,111.6z"
	/>
<path class="st0" d="M242.4,197.4l-54.2,8.8l5.6-6.4c0.6-0.7,1-1.7,1-2.7v-0.6L195,71.8l-6.7-7H249l-6.1,7"/>
<path class="st0" d="M327.7,261.8c-69.4,4.9-70.4-20.3-70.5-28.3c0-9.6,5.6-22.7,21.1-27.5c0,0-20.7,22.7,13.6,25.5
	s88.7-5.5,97.2-16.3s-5.9-13.1-34.6-6.3c-46.3,11-78.4-2-85.8-20.6c-4.9-12.4,1-25.5,13.3-32.8c-12.7-9.4-20.8-23.3-20.8-38.9
	c0-28.2,26.4-51,58.9-51c0.2,0,0.5,0,0.7,0c2.3-7.7,10.7-30.8,31.5-38.9l18.8,26.5c0,0-25.4-2.8-42.9,13
	c28.7,3.4,50.9,24.7,50.9,50.5c0,28.2-26.4,51-58.9,51c-10.6,0-20.5-2.5-29.1-6.7c-0.6,1.1-1.1,2.4-1.4,4
	c-1.9,11.2,23.5,17.5,46.5,12.8c23-4.8,48.4-9.4,58.2,6.4C404.3,199.9,404.4,256.4,327.7,261.8L327.7,261.8z M304.1,117.7
	c10.4,23.8,26,42.6,34.9,42s7.7-20.3-2.7-44s-26-42.6-34.9-42C292.5,74.2,293.7,93.9,304.1,117.7L304.1,117.7z"/>
<path class="st0" d="M413,199l-0.3-127l-6.9-7.2h62.3l-6.3,7.2c0,42.3,0.3,83.8,0.3,126.1c0,1.8,3.2,6.2,6,6.9
	C451.8,203.3,429.2,200.7,413,199L413,199z"/>
<path class="st0" d="M567.2,206.9c0,0-17.2,4.7-32.6,4.7c-19.6,0-50.7-6.8-50.7-60l-0.2-76.5h-3.3v-6.8h3.2l-0.1-41.4l48.2-5.8v47.1
	h30.5V75h-30.5v97.7c0,31.8,34.8,21,34.8,21L567.2,206.9L567.2,206.9z"/>
<path class="st0" d="M705,208.8h-54.5v-17.9c-6.9,9.5-19.8,21.9-39.8,21.3c-26.9-0.8-33.9-14.7-33.9-34.5
	c0-49.2,45.6-49.9,57.7-63.6C656.8,89.2,648,73.7,648,73.7c-8.7,0.4-5,34.4-37.3,34.4s-39.8-14.5-35.1-39.9c0,0,18,12.8,36.8,10.3
	s31.8-14.3,53.1-12.4c20.2,1.8,33.4,9.6,33.4,68v68L705,208.8L705,208.8L705,208.8z M650.5,184v-81.6c-8.6,21-25.4,28-25.4,69.4
	c0,17.5,8.5,29.5,15.6,23.9C644.7,192.6,648,188.2,650.5,184z"/>
<path class="st0" d="M723.4,202V28.1l-6.7-7L771.3,8v194l6.1,6.8h-60.8L723.4,202z"/>
<path class="st0" d="M176.9,408.8h-54.8l-10.7-38.2c-9.2,13.4-33.2,43-66,43c-56.7,0-48.8-54.6-36.6-93.4
	c18.3-58.2,60.7-99.1,60.7-99.1l-10-7h48.7c4.3,0,8.9,5.3,10.1,9.4L167.9,402L176.9,408.8L176.9,408.8z M110,365.6L70.6,225.4
	c-3.3,2.6-3.3,1.5-14.2,18.5c-37,57.9-21.8,163.2,14,158.1C85.7,399.8,102.7,376.6,110,365.6L110,365.6z"/>
<path class="st0" d="M195,402.4c0-9.9-0.2-142.6-0.3-175.7c0-4.1-6.4-5.7-6.4-6.3l54.3-8.1l0.3,190l6.1,6.8h-60.8L195,402.4z"/>
<path class="st0" d="M391.6,369.6c-4.8,16.8-11.5,42-54.1,42c-56.1,0-84.3-27.4-84.3-74.3c0-62.3,51.5-69.2,66.4-69.2
	c21.3,0,19.9,10.1,44,10.1c16.3,0,27.6-10.1,27.6-10.1c5.3,24.2-6.3,44-35.1,39.9c-20.8-2.9-20.3-46.1-37.6-23.1
	c-12.7,16.9-19.7,117.3,20.2,117.3S389.2,376.9,391.6,369.6L391.6,369.6z M392.2,367.6c0,0-0.2,0.7-0.6,2
	C391.8,368.9,392,368.3,392.2,367.6z"/>
<path class="st0" d="M461.2,285.6c1.9-3.4,5.8-9.2,13-13.5c5.5-3.2,10.4-4.1,13.1-4.5c55.7-8.1,75.4,32.7,63,70.5
	c-10,30.6-11.7,53.4-11.8,64.1l6,6.7h-60.7l6.7-6.8h0.1c1.5-44.6,18-56.1,18-90.5c0-22-10.5-41.1-25.5-37.8
	c-15.9,3.5-21.9,37.8-21.9,37.8V402l6.1,6.8h-60.8l6.7-6.8V212.3c16,1.6,38.4,3.8,54.5,5.4c-2.7,1.4-6.4,3.9-6.4,5.2
	C461.3,244.4,461.2,264.1,461.2,285.6L461.2,285.6z"/>
<path class="st0" d="M641,362c-8.6,2.4-15.2,6.1-20.1,10c7.3,17.3,18.5,29.9,33.3,29.9c33.3,0,46.3-34.3,46.3-34.3
	c-3,27.7-19,44-54.7,44c-32.8,0-79.3-5.6-83.9-65.1c-4-51.2,21.4-74.7,69.3-78.4c47.9-3.7,77.1,28.6,69.6,53S671.1,353.6,641,362
	L641,362z M654.7,332.9c6.6-21.4-15.5-70.5-33.3-52.3c-13.3,13.5-13.6,55.5-2.4,86.4C633.2,354.7,648.6,352.7,654.7,332.9z"/>
<path class="st0" d="M946.1,338c-10,30.6-11.7,53.4-11.8,64.1l6,6.7h-60.7l6.7-6.8h0.1c1.5-44.6,18-56.1,18-90.5
	c0-22-10.5-41.1-25.5-37.8c-10.7,2.4-16.9,18.5-19.8,28.9c2.7,11,2,23.4-1.9,35.4c-10,30.6-11.7,53.4-11.8,64.1l6,6.7h-60.7l6.7-6.8
	h0.1c1.5-44.6,18-56.1,18-90.5c0-22-10.5-41.1-25.5-37.8c-15.9,3.5-21.9,37.8-21.9,37.8V402l6.1,6.8h-60.8l6.7-6.8V275.2l-6.7-7
	h50.9l3.7,7v10.4c4.9-8.4,13-16.1,26.2-18c31.1-4.5,50.9,6.2,60.2,23c4.5-10.2,12.9-20.8,28.7-23C938.9,259.5,958.5,300.3,946.1,338
	L946.1,338z"/>
<path class="st1" d="M27.9,475.3H8.1c-0.9,0-0.9-1.9,0-2.2c1.1-0.4,3.7-1.7,3.7-3.1l0.2-29.6c0-1.4-2.6-3.1-3.7-4
	c-0.7-0.6-0.9-2.3,0-2.3H24C52.8,434.1,48.8,475.3,27.9,475.3z M18.7,469.1c0,2.6,1.5,3.1,5.9,3.1c15.5,0,20.3-34.5-2-34.9
	c-3.8-0.1-3.7,2.1-3.7,3.5L18.7,469.1z"/>
<path class="st1" d="M73,467.2c-1.4,5.9-7.1,8.8-11.9,8.9c-6.7,0.2-12.8-5.3-12.8-14.4c0-12.5,9.3-15.1,12.9-15.1
	c7,0,11.9,5,11.8,12.9H54.9c-0.2,6.3,4.5,11.8,8.9,11.8c3.1,0,5.4-1.7,7.3-5.7C72,463.8,73.7,464.5,73,467.2L73,467.2z M65.8,456.5
	c0.4-6.7-8.9-8.7-10.6,0H65.8z"/>
<path class="st1" d="M89.3,476.2l-10.2-24.6c-0.7-1.9-3-2.4-3.7-2.7c-0.9-0.3-0.9-2.1,0-2.1H89c1.2,0,1.1,1.5,0.4,1.8
	c-1.5,0.7-3.8,1.4-2.7,3.7l6.6,16.2l6.5-16.2c1.1-2.3-1.2-3-2.7-3.7c-0.7-0.3-0.8-1.8,0.4-1.8h9.7c0.9,0,0.9,1.8,0,2.1
	c-0.7,0.3-2.9,0.6-3.7,2.3l-10,25L89.3,476.2L89.3,476.2z"/>
<path class="st1" d="M132.9,467.2c-1.4,5.9-7.1,8.8-11.9,8.9c-6.7,0.2-12.8-5.3-12.8-14.4c0-12.5,9.3-15.1,12.9-15.1
	c7,0,11.9,5,11.8,12.9h-18.2c-0.2,6.3,4.5,11.8,8.9,11.8c3.1,0,5.4-1.7,7.3-5.7C131.9,463.8,133.7,464.5,132.9,467.2L132.9,467.2z
	 M125.7,456.5c0.4-6.7-8.9-8.7-10.6,0H125.7z"/>
<path class="st1" d="M145.5,470.5c0,1.4,1.4,2.3,2.5,2.7c0.9,0.3,0.9,2.2,0,2.2h-11.9c-0.9,0-0.9-1.9,0-2.2c1.1-0.4,2.5-1.3,2.5-2.7
	v-32.6c0-1.3-0.5-3.3-2.8-3.7c-1.1-0.2-1.4-2,0-2h8.2c1.4,0,1.4,0.9,1.4,1.6L145.5,470.5L145.5,470.5z"/>
<path class="st1" d="M165.3,446.7c4,0,13.9,2,13.9,15.2c0,9-7.3,14.2-13.9,14.2s-13.9-5.2-13.9-14.2
	C151.3,448.6,161.1,446.7,165.3,446.7z M167.1,472.7c4.1-0.6,6.6-3.2,5.3-11.7c-1.7-10.2-5-11.7-9-11.1c-4.2,0.7-6.4,4.1-5,13.2
	C159.8,471.7,163.6,473.3,167.1,472.7L167.1,472.7z"/>
<path class="st1" d="M191.8,474.5v9.3c0,1.4,1.4,2.3,2.5,2.7c0.9,0.3,0.9,2.1,0,2.1h-11.9c-0.9,0-0.9-1.8,0-2.1
	c1.1-0.4,2.5-1.4,2.5-2.7v-31.4c0-1.3-0.5-3.2-2.8-3.7c-1.1-0.2-1.4-2,0-2h8.2c1.1,0,1.4,0.5,1.4,1.1c1.9-1,3.8-1.4,5.7-1.5
	c6.7-0.2,13.7,5,13.7,14.3c0,12.6-10.2,15.1-13.9,15.1C195.3,475.7,193.4,475.3,191.8,474.5L191.8,474.5z M191.8,469.8
	c3.2,4,12.6,4.2,12.6-6.8c0-7.1-3-12-9.6-12c-1.1,0-2.1,0.2-3.1,0.7L191.8,469.8L191.8,469.8z"/>
<path class="st1" d="M234.4,456.5c0-5.7-9.5-6.5-10.5,0v14c0,1.4,1.4,2.3,2.5,2.7c0.9,0.3,0.9,2.2,0,2.2h-11.9c-0.9,0-0.9-1.9,0-2.2
	c1.1-0.4,2.5-1.3,2.5-2.7v-18.1c0-1.3-0.5-3.2-2.8-3.7c-1.1-0.2-1.4-2,0-2h8.2c1.4,0,1.4,0.8,1.4,1.5v2.4c2.5-2.7,6.1-4,9.2-4
	c3.4,0,6.1,1.8,7.4,5c0.2-0.3,0.5-0.6,0.8-1c2.4-2.7,6.1-4,9.2-4c4.7,0,8.2,3.4,8.2,9.3v14.4c0,1.4,1.4,2.3,2.5,2.7
	c0.9,0.3,0.9,2.2,0,2.2h-11.9c-0.9,0-0.9-1.9,0-2.2c1.1-0.4,2.5-1.3,2.5-2.7v-14c0-5.7-9.5-6.5-10.5,0v14c0,1.4,1.4,2.3,2.5,2.7
	c0.9,0.3,0.9,2.2,0,2.2h-11.9c-0.9,0-0.9-1.9,0-2.2c1.1-0.4,2.5-1.3,2.5-2.7L234.4,456.5L234.4,456.5z"/>
<path class="st1" d="M289,467.2c-1.4,5.9-7.1,8.8-11.9,8.9c-6.7,0.2-12.8-5.3-12.8-14.4c0-12.5,9.3-15.1,12.9-15.1
	c7,0,11.9,5,11.8,12.9h-18.2c-0.2,6.3,4.5,11.8,8.9,11.8c3.1,0,5.4-1.7,7.3-5.7C287.9,463.8,289.7,464.5,289,467.2L289,467.2z
	 M281.7,456.5c0.4-6.7-8.9-8.7-10.6,0H281.7z"/>
<path class="st1" d="M312.8,456.5c0-5.7-9.5-6.5-10.5,0v14c0,1.4,1.4,2.3,2.5,2.7c1,0.3,1,2.2,0,2.2h-11.9c-0.9,0-0.9-1.9,0-2.2
	c1.1-0.4,2.5-1.3,2.5-2.7v-18.1c0-1.3-0.5-3.2-2.8-3.7c-1.1-0.2-1.4-2,0-2h8.2c1.4,0,1.4,0.8,1.4,1.5v2.4c2.5-2.7,6.1-4,9.2-4
	c4.7,0,8.2,3.4,8.2,9.3v14.4c0,1.4,1.4,2.3,2.5,2.7c1,0.3,1,2.2,0,2.2h-11.9c-0.9,0-0.9-1.9,0-2.2c1.1-0.4,2.5-1.3,2.5-2.7
	L312.8,456.5L312.8,456.5z"/>
<path class="st1" d="M327.8,466.8v-17.7h-2.9c-2.8,0-2.7-2.7-1.5-3.1c4.8-2.2,6.1-3.1,8.2-8.3c0.5-1.2,3.1-1.2,3.1,0v8.3h5.9
	c1.7,0,1.8,3.1,0,3.1h-5.9v19.3c0,6.8,5.3,2.4,6.3,1c0.6-1,2,0,0.8,1.9C339.2,475,327.7,480.2,327.8,466.8L327.8,466.8z"/>
<path class="st1" d="M33.9,625.7c7.4,0.1,9.4,2.2,10.4,2.5c0.4,0.1,1-0.1,1.3-0.8c0.7-1.4,2.1-1.7,2.2-0.2l0.7,11.5
	c0.1,1.2-2.1,1.2-2.2,0.1c-1.6-6.6-6.2-9.8-11.4-9.9c-8.9-0.2-13.6,6-13.7,17.7c-0.1,10.7,7,18.2,13.8,18.6
	c5.3,0.3,10.6-0.9,14.4-6.9c1.2-1.9,3.4-0.7,2.4,1.1c-3.4,6.1-8.1,9.2-17.7,9.2s-20.2-4.7-20.4-21.9
	C13.7,630.4,26.4,625.6,33.9,625.7L33.9,625.7z"/>
<path class="st1" d="M64.5,663c0,1.4,1.4,2.3,2.5,2.7c1,0.3,1,2.2,0,2.2H55.1c-0.9,0-0.9-1.9,0-2.2c1.1-0.4,2.5-1.3,2.5-2.7v-18.1
	c0-1.3-0.5-3.2-2.8-3.7c-1.1-0.2-1.4-2,0-2H63c1.4,0,1.4,0.8,1.4,1.5v1.4c3-3.4,7-3.5,8.8-1.8c4.4,4.2-2.3,9.4-4.2,3.6
	c-0.5-1.5-3.5,1-4.5,2.6V663L64.5,663z"/>
<path class="st1" d="M101.6,659.7c-1.4,5.9-7.1,8.8-11.9,8.9c-6.7,0.2-12.8-5.3-12.8-14.4c0-12.5,9.3-15.1,12.9-15.1
	c7,0,11.9,5,11.8,12.9H83.4c-0.2,6.3,4.5,11.8,8.9,11.8c3.1,0,5.4-1.7,7.3-5.7C100.5,656.3,102.3,657,101.6,659.7L101.6,659.7z
	 M94.3,649c0.4-6.7-8.9-8.7-10.6,0H94.3z"/>
<path class="st1" d="M122.2,651.1c-0.2-7.2-3.7-7.9-5.5-7.9c-2,0-2.7,1-3,2.7c-0.2,1.1-0.7,4.5-3.4,4.5c-2,0-2.7-1.8-2.7-3.7
	c0-6.3,8.3-7.5,11.5-7.5c6.6,0,9.9,5.1,9.9,11.1v11.2c0,1,0,2.4,1.3,2.4h0.8c0.2,0,0.5,0.1,0.8,0.2c0.2,0.2,0.3,0.5,0.3,0.9
	c0,2.1-4.2,3.5-6.3,3.5c-2.5,0-3.8-2-3.8-4.6c-2.4,2.1-5.3,4.1-8.6,4.1c-4.9,0-7.9-4.5-7.9-8.6C105.7,652.2,114.9,650.7,122.2,651.1
	L122.2,651.1z M122.2,654.7c-1.1-1.1-2.9-1.4-4.3-1.4c-4,0-6.7,2.7-6.7,5.1c0,2,1.7,5.3,4.9,5.3c2.4,0,4.5-1.8,6.1-3.4V654.7
	L122.2,654.7z"/>
<path class="st1" d="M137.1,659.3v-17.7h-2.9c-2.8,0-2.7-2.7-1.5-3.1c4.8-2.2,6.1-3.1,8.2-8.3c0.5-1.2,3.1-1.2,3.1,0v8.3h5.9
	c1.7,0,1.8,3.1,0,3.1H144v19.3c0,6.8,5.3,2.4,6.3,1c0.7-1,2,0,0.8,1.9C148.5,667.5,137.1,672.7,137.1,659.3L137.1,659.3z"/>
<path class="st1" d="M164.5,663c0,1.4,1.4,2.3,2.5,2.7c1,0.3,1,2.2,0,2.2h-11.9c-0.9,0-0.9-1.9,0-2.2c1.1-0.4,2.5-1.3,2.5-2.7v-18.1
	c0-1.3-0.5-3.2-2.8-3.7c-1.1-0.2-1.4-2,0-2h8.2c1.4,0,1.4,0.8,1.4,1.5L164.5,663L164.5,663z M156.6,627.4c1.1-2.1,3.9-3.8,6.2-2.7
	c2.1,1.1,2.2,4.2,1.2,6.3c-1.1,2.1-3.8,3.7-6.1,2.5C155.7,632.5,155.5,629.5,156.6,627.4L156.6,627.4z"/>
<path class="st1" d="M183.2,668.7L173,644.1c-0.7-1.9-3-2.4-3.7-2.7c-0.9-0.3-0.9-2.1,0-2.1H183c1.2,0,1.1,1.5,0.4,1.8
	c-1.5,0.7-3.8,1.4-2.7,3.7l6.6,16.2l6.5-16.2c1.1-2.3-1.2-3-2.7-3.7c-0.7-0.3-0.8-1.8,0.4-1.8h9.7c0.9,0,0.9,1.8,0,2.1
	c-0.7,0.3-2.9,0.6-3.7,2.3l-10,25L183.2,668.7L183.2,668.7z"/>
<path class="st1" d="M226.9,659.7c-1.4,5.9-7.1,8.8-11.9,8.9c-6.7,0.2-12.8-5.3-12.8-14.4c0-12.5,9.3-15.1,12.9-15.1
	c7,0,11.9,5,11.8,12.9h-18.2c-0.2,6.3,4.5,11.8,8.9,11.8c3.1,0,5.4-1.7,7.3-5.7C225.8,656.3,227.6,657,226.9,659.7L226.9,659.7z
	 M219.6,649c0.4-6.7-8.9-8.7-10.6,0H219.6z"/>
<path class="st1" d="M753.4,473.1c1,0.3,1,2.2,0,2.2h-10.5c-0.9,0-0.9-1.9,0-2.2c1.1-0.4,3.7-1.7,3.7-3.1l0.2-30.3
	c0-1.4-2.6-3-3.7-3.5c-0.7-0.5-0.9-2.2,0-2.2h10.8l15.8,31.9l16-31.9h10c0.9,0,0.8,1.7,0,2.2c-1.1,0.5-3.7,2.1-3.7,3.5l-0.2,30.3
	c0,1.4,2.6,2.8,3.7,3.1c1,0.3,1,2.2,0,2.2h-14.2c-0.9,0-0.9-1.9,0-2.2c1.1-0.4,3.7-1.7,3.7-3.1l0.2-27.9l-15.5,31h-4L750,441.3
	l-0.2,28.7C749.7,471.5,752.3,472.8,753.4,473.1L753.4,473.1z"/>
<path class="st1" d="M815.5,458.6c-0.2-7.2-3.7-7.9-5.5-7.9c-2,0-2.7,1-3,2.7c-0.2,1.1-0.7,4.5-3.4,4.5c-2,0-2.7-1.8-2.7-3.7
	c0-6.3,8.3-7.5,11.5-7.5c6.6,0,9.9,5.1,9.9,11.1V469c0,1,0,2.4,1.3,2.4h0.8c0.2,0,0.5,0.1,0.8,0.2c0.2,0.2,0.4,0.5,0.4,0.9
	c0,2.1-4.2,3.5-6.3,3.5c-2.5,0-3.8-2-3.8-4.6c-2.4,2.1-5.3,4.1-8.6,4.1c-4.9,0-7.9-4.5-7.9-8.6C799,459.7,808.2,458.2,815.5,458.6
	L815.5,458.6z M815.5,462.2c-1.1-1.1-2.9-1.4-4.3-1.4c-4,0-6.7,2.7-6.7,5.1c0,2,1.7,5.3,4.9,5.3c2.4,0,4.5-1.8,6.1-3.4V462.2
	L815.5,462.2z"/>
<path class="st1" d="M838.5,470.5c0,1.4,1.4,2.3,2.5,2.7c1,0.3,1,2.2,0,2.2h-11.9c-0.9,0-0.9-1.9,0-2.2c1.1-0.4,2.5-1.3,2.5-2.7
	v-18.1c0-1.3-0.5-3.2-2.8-3.7c-1.1-0.2-1.4-2,0-2h8.2c1.4,0,1.4,0.8,1.4,1.5v1.4c3-3.4,7-3.5,8.8-1.8c4.4,4.2-2.3,9.4-4.2,3.6
	c-0.5-1.5-3.5,1-4.5,2.6V470.5L838.5,470.5z"/>
<path class="st1" d="M859.9,470.5c0,1.4,1.4,2.3,2.5,2.7c1,0.3,1,2.2,0,2.2h-11.9c-0.9,0-0.9-1.9,0-2.2c1.1-0.4,2.5-1.3,2.5-2.7
	v-32.6c0-1.3-0.5-3.3-2.8-3.7c-1.1-0.2-1.4-2,0-2h8.2c1.4,0,1.4,0.9,1.4,1.6v25.8l7.9-7.5c1.8-1.6-1-3-2.3-3c-1,0-1-2.2,0-2.2H877
	c0.8,0,1,1.9,0,2.2c-2.4,0.6-4.7,2.8-6.3,4.5l7.5,16.7c0.5,1.2,2.1,2.5,3.1,2.8s1,2.2,0,2.2h-13.2c-0.9,0-0.9-1.9,0-2.2
	c1.1-0.4,3.1-1.7,2.7-2.7l-5.3-11.9l-5.6,5.2L859.9,470.5L859.9,470.5z"/>
<path class="st1" d="M907.6,467.2c-1.4,5.9-7.1,8.8-11.9,8.9c-6.7,0.2-12.8-5.3-12.8-14.4c0-12.5,9.3-15.1,12.9-15.1
	c7,0,11.9,5,11.8,12.9h-18.2c-0.2,6.3,4.5,11.8,8.9,11.8c3.1,0,5.4-1.7,7.3-5.7C906.6,463.8,908.3,464.5,907.6,467.2L907.6,467.2z
	 M900.4,456.5c0.4-6.7-8.9-8.7-10.6,0H900.4z"/>
<path class="st1" d="M914.8,466.8v-17.7h-2.9c-2.8,0-2.7-2.7-1.5-3.1c4.8-2.2,6.1-3.1,8.2-8.3c0.5-1.2,3.1-1.2,3.1,0v8.3h5.9
	c1.7,0,1.8,3.1,0,3.1h-5.9v19.3c0,6.8,5.3,2.4,6.3,1c0.7-1,2,0,0.8,1.9C926.2,475,914.8,480.2,914.8,466.8L914.8,466.8z"/>
<path class="st1" d="M942.2,470.5c0,1.4,1.4,2.3,2.5,2.7c1,0.3,1,2.2,0,2.2h-11.9c-0.9,0-0.9-1.9,0-2.2c1.1-0.4,2.5-1.3,2.5-2.7
	v-18.1c0-1.3-0.5-3.2-2.8-3.7c-1.1-0.2-1.4-2,0-2h8.2c1.4,0,1.4,0.8,1.4,1.5L942.2,470.5L942.2,470.5z M934.3,434.9
	c1.1-2.1,3.9-3.8,6.2-2.7c2.1,1.1,2.2,4.2,1.2,6.3c-1.1,2.1-3.8,3.7-6.1,2.5C933.4,440,933.2,437,934.3,434.9L934.3,434.9z"/>
<path class="st1" d="M969,456.5c0-5.7-9.5-6.5-10.5,0v14c0,1.4,1.4,2.3,2.5,2.7c1,0.3,1,2.2,0,2.2h-11.9c-0.9,0-0.9-1.9,0-2.2
	c1.1-0.4,2.5-1.3,2.5-2.7v-18.1c0-1.3-0.5-3.2-2.8-3.7c-1.1-0.2-1.4-2,0-2h8.2c1.4,0,1.4,0.8,1.4,1.5v2.4c2.5-2.7,6.1-4,9.2-4
	c4.7,0,8.2,3.4,8.2,9.3v14.4c0,1.4,1.4,2.3,2.5,2.7c1,0.3,1,2.2,0,2.2h-11.9c-0.9,0-0.9-1.9,0-2.2c1.1-0.4,2.5-1.3,2.5-2.7
	L969,456.5L969,456.5z"/>
<path class="st1" d="M994.4,446.4c1.8,0,4.8,0.4,7.3,2.3c0.7-0.4,1.3-1.1,1.5-2.6c0.1-1.2,0.8-2,2-2s2,0.8,2,2
	c-0.1,2-1.5,4.1-3.4,5.1c0.8,1.5,1.3,3.3,1.3,5.7c0,6.4-5.7,10.1-10.8,10.1c-1.7,0-3.5-0.5-5.1-1.2c-0.3,0.4-0.6,0.9-0.8,1.5
	c-1.1,3.8,8.4,1.8,14.3,3.3c7.9,2,6.9,11,1.2,14.9c-10.8,7.1-29.3,5.4-23.4-4.9c0.8-1.4,2.1-2.8,4-4.5c-5.5-1.6-2.2-7.2,2.8-11.4
	c-2.2-1.8-3.7-4.4-3.7-7.7C983.6,447.4,991.2,446.4,994.4,446.4L994.4,446.4z M986.9,476.3c-1.8,1.9-3,3.6-3.2,5
	c-1.4,6.2,15.1,4.4,18.7,2c3-2.1,3.6-4.8,0.1-5.9C997.7,475.9,988.7,476.3,986.9,476.3z M995.3,463.8c1.7-0.2,4.4-1.8,3.7-7.2
	c-0.9-6.6-4.1-7.1-5.8-7c-1.7,0.2-4.1,2.1-3.4,7.8C990.7,462.8,994,463.9,995.3,463.8z"/>
<path class="st0" d="M413.3,33.3c1.4-1.1,3-1.9,4.4-2.8c3.3-2.3,3.4-6.1,0.3-8.2c-2-1.5-4.2-3-6.1-4.7c-1.2-1.1,0.6-6.2,2.2-6.8
	c4.5-1.4,8.4-0.2,12.4,2c3.1,1.7,3.9,1.1,4.7-2.8c0.5-2.6,0.5-5.1,1.2-7.6c0.5-1.9,2.3-2.3,4-2.3c2-0.2,3.7,0.2,4.4,2
	c1.1,3.1,1.7,6.5,2.6,9.8c0.8,2.5,1.9,2.3,3.9,0.8c2.8-2.2,6.1-3.1,9.8-2.6c3,0.5,4.8,2,5.3,4.7c0.3,2-0.2,3.6-1.9,4.7
	c-1.4,0.9-3,1.7-4.4,2.6c-3.1,2.3-3.1,6.1,0.2,8.4c1.4,0.9,3,1.7,4.4,2.6c1.7,1.1,2,2.8,1.7,4.7c-0.6,3-2.5,4.3-5.3,4.7
	c-3.7,0.6-6.8-0.8-9.6-2.8c-2.2-1.5-3.4-1.5-3.9,0.8c-0.9,3.3-1.2,6.7-2.2,9.9c-0.6,2-2.3,2.3-4.2,2.3c-2,0-3.7-0.2-4.4-2.2
	c-0.9-3.3-1.5-6.5-2.3-9.9c-0.6-2.3-1.7-2.2-3.9-0.6c-2.8,2-6.1,3.1-9.6,2.6c-2.6-0.3-4.8-1.9-5.4-4.5
	C411.1,35.9,411.7,34.4,413.3,33.3L413.3,33.3z"/>
<path class="st0" d="M194.9,33.7c1.4-1.1,2.9-1.9,4.4-2.8c3.3-2.3,3.4-6.1,0.3-8.2c-2-1.5-4.2-3-6.1-4.7c-1.2-1.1,0.6-6.2,2.2-6.8
	c4.5-1.4,8.4-0.2,12.4,2c3.1,1.7,3.9,1.1,4.7-2.8c0.5-2.6,0.5-5.1,1.2-7.6c0.5-1.9,2.3-2.3,4-2.3c2-0.2,3.7,0.2,4.4,2
	c1.1,3.1,1.7,6.5,2.6,9.8c0.8,2.5,1.9,2.3,3.9,0.8c2.8-2.2,6.1-3.1,9.8-2.6c2.9,0.5,4.8,2,5.3,4.7c0.3,2-0.2,3.6-1.9,4.7
	c-1.4,0.9-2.9,1.7-4.4,2.6c-3.1,2.3-3.1,6.1,0.2,8.4c1.4,0.9,2.9,1.7,4.4,2.6c1.7,1.1,2,2.8,1.7,4.7c-0.6,3-2.5,4.3-5.3,4.7
	c-3.7,0.6-6.8-0.8-9.6-2.8c-2.2-1.5-3.4-1.5-3.9,0.8c-0.9,3.3-1.2,6.7-2.2,9.9c-0.6,2-2.3,2.3-4.2,2.3c-2,0-3.7-0.2-4.4-2.2
	c-0.9-3.3-1.6-6.5-2.3-9.9c-0.6-2.3-1.7-2.2-3.9-0.6c-2.8,2-6.1,3.1-9.6,2.6c-2.6-0.3-4.8-1.9-5.4-4.5
	C192.8,36.4,193.4,34.9,194.9,33.7L194.9,33.7z"/>
<path class="st0" d="M373.3,457.9c0.8-0.6,1.6-1,2.4-1.6c1.8-1.3,1.9-3.4,0.2-4.6c-1.1-0.9-2.3-1.6-3.4-2.6
	c-0.7-0.6,0.4-3.5,1.2-3.8c2.5-0.8,4.7-0.1,6.9,1.1c1.7,1,2.2,0.6,2.6-1.6c0.3-1.5,0.3-2.9,0.7-4.2c0.3-1,1.3-1.3,2.3-1.3
	c1.1-0.1,2.1,0.1,2.4,1.1c0.6,1.7,1,3.6,1.5,5.5c0.4,1.4,1,1.3,2.2,0.4c1.6-1.2,3.4-1.7,5.5-1.5c1.6,0.3,2.7,1.1,3,2.6
	c0.2,1.1-0.1,2-1,2.6c-0.8,0.5-1.6,1-2.4,1.5c-1.7,1.3-1.7,3.4,0.1,4.7c0.8,0.5,1.6,1,2.4,1.5c1,0.6,1.1,1.6,1,2.6
	c-0.4,1.6-1.4,2.4-3,2.6c-2.1,0.4-3.8-0.4-5.4-1.6c-1.2-0.9-1.9-0.9-2.2,0.4c-0.5,1.8-0.7,3.7-1.2,5.5c-0.4,1.1-1.3,1.3-2.3,1.3
	c-1.1,0-2.1-0.1-2.4-1.2c-0.5-1.8-0.9-3.6-1.3-5.5c-0.4-1.3-1-1.2-2.2-0.4c-1.6,1.1-3.4,1.7-5.4,1.5c-1.5-0.2-2.7-1-3-2.5
	C372.1,459.4,372.5,458.6,373.3,457.9L373.3,457.9z"/>
<path class="st0" d="M691.3,457.9c0.8-0.6,1.7-1,2.4-1.6c1.8-1.3,1.9-3.4,0.2-4.6c-1.1-0.9-2.3-1.6-3.4-2.6
	c-0.7-0.6,0.3-3.5,1.2-3.8c2.5-0.8,4.7-0.1,6.9,1.1c1.7,1,2.2,0.6,2.6-1.6c0.3-1.5,0.3-2.9,0.7-4.2c0.3-1,1.3-1.3,2.3-1.3
	c1.1-0.1,2.1,0.1,2.4,1.1c0.6,1.7,1,3.6,1.5,5.5c0.4,1.4,1,1.3,2.2,0.4c1.6-1.2,3.4-1.7,5.5-1.5c1.7,0.3,2.7,1.1,3,2.6
	c0.2,1.1-0.1,2-1,2.6c-0.8,0.5-1.7,1-2.4,1.5c-1.7,1.3-1.7,3.4,0.1,4.7c0.8,0.5,1.7,1,2.4,1.5c1,0.6,1.1,1.6,1,2.6
	c-0.3,1.6-1.4,2.4-3,2.6c-2.1,0.4-3.8-0.4-5.4-1.6c-1.2-0.9-1.9-0.9-2.2,0.4c-0.5,1.8-0.7,3.7-1.2,5.5c-0.3,1.1-1.3,1.3-2.3,1.3
	c-1.1,0-2.1-0.1-2.4-1.2c-0.5-1.8-0.9-3.6-1.3-5.5c-0.3-1.3-1-1.2-2.2-0.4c-1.6,1.1-3.4,1.7-5.4,1.5c-1.5-0.2-2.7-1-3-2.5
	C690,459.4,690.4,458.6,691.3,457.9L691.3,457.9z"/>
<path class="st0" d="M969.1,174.4c-0.2-1.3-0.4-2.6-0.5-3.9l0.3,2.4c-3.9-28.9-4.8-58.3-2.6-87.4c0.6-8.2,1.5-16.5,2.6-24.7
	l-0.3,2.4c0.9-6.9,1.6-14.1,4.2-20.6l-0.9,2.2c0.7-1.7,1.6-3.3,2.7-4.7l-1.4,1.8c0.7-0.9,1.5-1.7,2.3-2.4l-1.8,1.4
	c0.8-0.6,1.7-1.1,2.6-1.5l-2.2,0.9c0.8-0.3,1.7-0.6,2.5-0.7l-2.4,0.3c1.2-0.2,2.4-0.1,3.6,0l-2.4-0.3c3.7,0.6,7.3,2.1,10.8,3.5
	l-2.2-0.9c4.9,2.1,9.7,4.6,14,7.9l-1.8-1.4c2.4,1.9,4.6,4,6.5,6.4l-1.4-1.8c1.2,1.7,2.3,3.4,3.2,5.3l-0.9-2.2
	c0.8,1.8,1.3,3.7,1.6,5.7l-0.3-2.4c0.2,1.8,0.2,3.7,0,5.5l0.3-2.4c-0.3,2-0.8,3.9-1.6,5.8l0.9-2.2c-1,2.2-2.2,4.3-3.7,6.2l1.4-1.8
	c-1.8,2.2-3.8,4.2-6,6l1.8-1.4c-3.2,2.4-6.7,4.3-10.3,5.8l2.2-0.9c-7.7,3.2-15.9,5-24,6.9c-8.8,2.1-17.6,4-26.6,5.2l2.4-0.3
	c-10.3,1.4-20.9,1.8-31.2,0.4L913,93c-7-1-14-2.8-20.5-5.5l2.2,0.9c-5.3-2.2-10.4-5.1-15-8.6l1.8,1.4c-3.6-2.8-6.9-6.1-9.8-9.7
	l1.4,1.8c-2.3-3-4.3-6.3-5.8-9.8l0.9,2.1c-1.3-3.1-2.2-6.3-2.7-9.7l0.3,2.4c-0.3-2.6-0.4-5.2-0.1-7.9l-0.3,2.4
	c0.3-2.2,0.9-4.3,1.7-6.4l-0.9,2.2c0.8-1.8,1.8-3.5,3-5.1l-1.4,1.8c1.2-1.5,2.6-2.9,4.2-4.1l-1.8,1.4c1.8-1.4,3.8-2.5,6-3.5L874,40
	c2.6-1.1,5.3-1.8,8-2.2l-2.4,0.3c2.8-0.3,5.6-0.3,8.4,0l-2.4-0.3c2.6,0.4,5.1,1.1,7.6,2.1L891,39c3,1.3,5.7,2.9,8.3,4.9l-1.8-1.4
	c3,2.3,5.6,5,7.9,7.9l-1.4-1.8c2.9,3.8,5.3,8,7.2,12.4l-0.9-2.2c2.7,6.5,4.3,13.4,5.2,20.3l-0.3-2.4c1.3,10.1,1.4,20.4,1.6,30.6
	c0.2,9.7,0.4,19.3-0.1,28.9c-0.2,5.4-0.7,10.8-1.4,16.2l0.3-2.4c-1.3,9.7-3.6,19.3-7.4,28.3l0.9-2.1c-1,2.4-2,5.1-3.6,7.2l1.4-1.8
	c-0.7,0.9-1.4,1.6-2.3,2.2l1.8-1.4c-1.2,0.9-2.5,1.6-3.9,2.2l2.2-0.9c-1.4,0.5-2.8,1-4.2,1.2l2.4-0.3c-0.8,0.1-1.7,0.1-2.5,0
	l2.4,0.3c-1-0.2-1.9-0.4-2.8-0.8l2.2,0.9c-2.3-1-4.5-2.4-6.6-3.9c-1.9-1.3-3.8-2.6-5.6-4l1.8,1.4c-3-2.3-5.8-4.9-8.2-7.9l1.4,1.8
	c-1.3-1.8-2.5-3.7-3.4-5.7l0.9,2.1c-0.7-1.7-1.2-3.5-1.4-5.3l0.3,2.4c-0.2-1.9-0.2-3.8,0-5.6l-0.3,2.4c0.3-2.2,1-4.4,1.8-6.5
	l-0.9,2.1c1-2.4,2.3-4.6,3.9-6.6l-1.4,1.8c1.8-2.4,3.9-4.5,6.3-6.3l-1.8,1.4c2.6-2,5.5-3.6,8.6-4.9l-2.2,0.9
	c5.2-2.1,10.7-3.4,16.2-4.1l-2.4,0.3c9.3-1.2,18.7-1.4,28-1.9c10-0.5,20-1.1,30-1.5c5.5-0.2,11.1-0.3,16.6,0.5l-2.4-0.3
	c4.3,0.6,8.4,1.7,12.4,3.4l-2.2-0.9c3.7,1.6,7.1,3.6,10.3,6l-1.8-1.4c2.9,2.3,5.6,4.9,7.9,7.8l-1.4-1.8c2,2.6,3.6,5.3,4.9,8.2
	l-0.9-2.1c1.2,2.9,2,5.9,2.5,9l-0.3-2.4c0.5,3.4,0.5,6.7,0,10.1l0.3-2.4c-0.4,3.1-1.2,6.1-2.4,8.9l0.9-2.1c-1.1,2.5-2.4,4.9-4.1,7
	l1.4-1.8c-1.5,1.9-3.2,3.6-5.1,5.1l1.8-1.4c-2.1,1.6-4.3,2.9-6.7,3.9l2.2-0.9c-2.6,1.1-5.3,1.8-8.2,2.2l2.4-0.3
	c-2.8,0.4-5.6,0.4-8.5,0.1l2.4,0.3c-2.7-0.4-5.3-1.1-7.8-2.1l2.2,0.9c-3.2-1.4-6.4-3.1-9.1-5.2l1.8,1.4c-1.4-1.1-2.7-2.4-3.8-3.8
	l1.4,1.8c-1.3-1.7-2.3-3.6-3.2-5.6l0.9,2.1C970.6,179.5,969.9,176.9,969.1,174.4c-1.2-4.6-6.4-7.8-11-6.3s-7.6,6.2-6.3,11.1
	c1.9,6.9,4.5,13.9,9.7,19.1c2.5,2.5,5.5,4.6,8.6,6.2c3.7,2,7.7,3.9,11.8,4.8c9.4,2,19,0.8,27.6-3.4c7.6-3.7,14-10.5,17.4-18.2
	c2.1-4.7,3.2-9.1,3.8-14.2c0.5-4.3,0.2-8.5-0.5-12.8c-1.4-8.6-5.8-16.6-11.7-23.1s-13.5-11.2-21.7-14.2c-8.9-3.4-18.7-3.8-28.2-3.5
	c-10,0.3-20,1-29.9,1.5c-9.3,0.5-18.7,0.6-28,1.7c-9.8,1.2-19.7,3.2-28.1,8.5c-8.1,5-14.2,12.5-17.5,21.3s-2.2,18.9,2.8,26.8
	s12.1,12.9,19.5,17.9c5,3.4,10.5,5.9,16.7,5.1c5.2-0.7,10.3-3.1,14.2-6.7s5.8-9,7.7-13.7c1.6-3.9,2.9-7.8,3.9-11.9
	c4.6-17.3,5.2-35.4,5-53.2c-0.1-8.8-0.3-17.7-0.7-26.5c-0.5-10-1.5-20.2-4.3-29.8C925,43.7,913.5,28,896.1,22
	c-15.7-5.4-35.7,0.3-44.2,15.1c-5,8.7-5.5,19.3-2.7,28.8c2.5,8.8,7.6,16.8,14.1,23.2c11.6,11.7,27.7,18.7,43.8,21.1
	c10,1.5,19.9,1.6,29.9,0.6c10.3-1.1,20.6-3,30.7-5.3c8.9-2.1,18-3.9,26.4-7.4c4.6-1.9,9.1-3.9,13-7c4.2-3.2,7.7-6.7,10.6-11.1
	c5.1-7.8,6.9-18,3.8-26.9c-3-8.5-9-14.9-16.3-20c-3-2-6.1-3.8-9.3-5.3c-4.1-1.9-8.3-3.7-12.7-5c-5.8-1.6-12-1.5-17.2,1.6
	c-3.8,2.2-7,5.8-8.9,9.8c-4.1,8.3-5,17.6-6.2,26.6c-1.3,9.7-2.3,19.5-2.9,29.3c-1.2,19.6-1.1,39.3,0.4,58.8
	c0.8,10.1,2,20.2,3.4,30.2c0.3,2.1,2.4,4.4,4.1,5.4c1.9,1.1,4.8,1.6,6.9,0.9s4.3-2.1,5.4-4.1l0.9-2.1
	C969.6,177.5,969.6,175.9,969.1,174.4L969.1,174.4L969.1,174.4z"/>
<path class="st0" d="M1106.3,270.5l-6.7,6.8l-0.1,0.1V401c0,3.5-0.3,6.8-0.8,10.1c-4.9,32.6-33,57.6-67,57.6
	c12.8-15.5,19.8-35,19.8-55v-19.1c-4.9,8.4-13,15.9-26,17.8c-55.7,8.1-75.4-32.7-63-70.5c10.1-30.8,11.7-53.9,11.8-64.6l-6-6.7h60.8
	l-6.8,6.7c-1.5,44.9-18,56.8-18,91.2c0,22,11.4,40.1,27.6,37.8c14.6-2.1,19.1-31.4,19.8-36.8v-92.1l-6-6.7L1106.3,270.5
	L1106.3,270.5z"/>
<g>
	<path class="st1" d="M464.5,462.7c0,8.7-4.9,12.8-14.5,12.8h-20c-0.9,0-0.9-1.9,0-2.2c1.1-0.4,3.7-1.7,3.7-3.2l0.2-30.1
		c0-1.4-2.6-3.2-3.7-4c-0.7-0.6-0.9-2.3,0-2.3h18.4c13,0,13.9,16.4,5.7,17.8C459.6,452.6,464.5,456.9,464.5,462.7z M446.6,472.3
		c4.2,0,11-0.6,11-9.1c0-6.5-5.8-10.1-11-10.1c-2.2,0-4.4-0.1-5.9,0.3l-0.1,15.8C440.6,471.8,442.1,472.3,446.6,472.3z M446.7,449.9
		c8.6-0.3,8-13.1-2.2-13.1c-4.1,0-3.8,2.1-3.8,3.5l-0.1,9.1C441.7,449.7,444.6,450,446.7,449.9z"/>
	<path class="st1" d="M478,470.5c0,1.4,1.4,2.3,2.5,2.7c1,0.3,1,2.2,0,2.2h-12.1c-0.9,0-0.9-1.9,0-2.2c1.1-0.4,2.6-1.3,2.6-2.7
		v-18.4c0-1.3-0.5-3.3-2.8-3.8c-1.1-0.2-1.4-2,0-2h8.3c1.4,0,1.4,0.8,1.4,1.6v1.4c3-3.4,7.1-3.6,8.9-1.9c4.5,4.3-2.3,9.5-4.3,3.7
		c-0.5-1.6-3.6,1-4.6,2.6V470.5z"/>
	<path class="st1" d="M507.2,458.4c-0.2-7.3-3.8-8-5.6-8c-2,0-2.7,1-3,2.8c-0.2,1.1-0.7,4.6-3.4,4.6c-2,0-2.8-1.8-2.8-3.7
		c0-6.4,8.4-7.6,11.7-7.6c6.7,0,10,5.2,10,11.3v11.4c0,1,0,2.5,1.3,2.5h0.8c0.2,0,0.5,0.1,0.8,0.2c0.2,0.2,0.4,0.5,0.4,0.9
		c0,2.2-4.3,3.6-6.4,3.6c-2.5,0-3.8-2-3.9-4.7c-2.4,2.2-5.4,4.1-8.8,4.1c-5,0-8-4.6-8-8.8C490.4,459.6,499.8,458.1,507.2,458.4z
		 M507.2,462.1c-1.1-1.1-2.9-1.4-4.4-1.4c-4,0-6.8,2.8-6.8,5.2c0,2,1.7,5.3,5,5.3c2.4,0,4.6-1.8,6.2-3.4V462.1z"/>
	<path class="st1" d="M541.2,456.4c0-5.8-9.7-6.6-10.6,0v14.2c0,1.4,1.4,2.3,2.5,2.7c1,0.3,1,2.2,0,2.2h-12.1c-0.9,0-0.9-1.9,0-2.2
		c1.1-0.4,2.6-1.3,2.6-2.7v-18.4c0-1.3-0.5-3.3-2.8-3.8c-1.1-0.2-1.4-2,0-2h8.3c1.4,0,1.4,0.8,1.4,1.6v2.5c2.5-2.7,6.2-4,9.3-4
		c4.7,0,8.3,3.5,8.3,9.5v14.6c0,1.4,1.4,2.3,2.5,2.7c1,0.3,1,2.2,0,2.2h-12.1c-0.9,0-0.9-1.9,0-2.2c1.1-0.4,2.6-1.3,2.6-2.7V456.4z"
		/>
	<path class="st1" d="M580.7,470.5c0,1.4,1.6,1.9,4.1,1.2c0.9-0.2,1.7,1.6-1.6,2.7l-5.5,1.8c-1.4,0.4-3.9,0.8-3.9-0.8v-0.7
		c-1.9,1-4,1.4-5.8,1.5c-6.8,0.2-13.9-5.1-13.9-14.6c0-12.7,10.4-15.3,14.1-15.3c2.1,0,4,0.4,5.6,1.3v-10.3c0-1.3-0.5-3.4-2.9-3.8
		c-1.1-0.2-1.4-2,0-2h8.3c1.4,0,1.4,0.9,1.4,1.6V470.5z M573.8,452.4c-3.2-4.1-12.8-4.3-12.8,6.9c0,7.3,2.9,12.2,9.7,12.2
		c1.1,0,2.2-0.2,3.1-0.7V452.4z"/>
	<path class="st1" d="M598.4,470.5c0,1.4,1.4,2.3,2.5,2.7c1,0.3,1,2.2,0,2.2h-12.1c-0.9,0-0.9-1.9,0-2.2c1.1-0.4,2.6-1.3,2.6-2.7
		v-18.4c0-1.3-0.5-3.3-2.8-3.8c-1.1-0.2-1.4-2,0-2h8.3c1.4,0,1.4,0.8,1.4,1.6V470.5z M590.3,434.4c1.1-2.2,4-3.8,6.2-2.7
		c2.2,1.1,2.2,4.3,1.2,6.4c-1.1,2.1-3.9,3.7-6.2,2.6C589.4,439.6,589.2,436.5,590.3,434.4z"/>
	<path class="st1" d="M625.5,456.4c0-5.8-9.7-6.6-10.6,0v14.2c0,1.4,1.4,2.3,2.5,2.7c1,0.3,1,2.2,0,2.2h-12.1c-0.9,0-0.9-1.9,0-2.2
		c1.1-0.4,2.6-1.3,2.6-2.7v-18.4c0-1.3-0.5-3.3-2.8-3.8c-1.1-0.2-1.4-2,0-2h8.3c1.4,0,1.4,0.8,1.4,1.6v2.5c2.5-2.7,6.2-4,9.3-4
		c4.7,0,8.3,3.5,8.3,9.5v14.6c0,1.4,1.4,2.3,2.5,2.7c1,0.3,1,2.2,0,2.2H623c-0.9,0-0.9-1.9,0-2.2c1.1-0.4,2.6-1.3,2.6-2.7V456.4z"/>
	<path class="st1" d="M651.4,446.1c1.8,0,4.9,0.4,7.4,2.3c0.7-0.4,1.3-1.1,1.5-2.6c0.1-1.2,0.8-2,2-2c1.2,0,2,0.8,2,2
		c-0.1,2-1.6,4.1-3.4,5.2c0.8,1.5,1.3,3.4,1.3,5.8c0,6.5-5.8,10.3-11,10.3c-1.7,0-3.6-0.5-5.2-1.3c-0.4,0.4-0.6,0.9-0.8,1.5
		c-1.1,3.8,8.5,1.9,14.5,3.4c8,2,7,11.2,1.2,15.1c-10.9,7.3-29.8,5.5-23.8-5c0.8-1.4,2.1-2.9,4.1-4.6c-5.6-1.6-2.2-7.3,2.8-11.6
		c-2.2-1.8-3.8-4.4-3.8-7.9C640.4,447.1,648.2,446.1,651.4,446.1z M643.7,476.4c-1.8,1.9-3,3.7-3.3,5.1c-1.4,6.3,15.3,4.5,19,2
		c3-2.1,3.7-4.9,0.1-6C654.7,476,645.6,476.4,643.7,476.4z M652.3,463.7c1.7-0.2,4.5-1.9,3.8-7.3c-0.9-6.7-4.2-7.3-5.9-7.1
		c-1.7,0.2-4.1,2.1-3.4,7.9C647.6,462.7,651,463.9,652.3,463.7z"/>
</g>
</svg>
