<?xml version="1.0" encoding="utf-8"?>
<!-- Generator: Adobe Illustrator 27.5.0, SVG Export Plug-In . SVG Version: 6.00 Build 0)  -->
<svg version="1.1" id="Layer_1" xmlns="http://www.w3.org/2000/svg" xmlns:xlink="http://www.w3.org/1999/xlink" x="0px" y="0px"
	 viewBox="0 0 1231 576.5" style="enable-background:new 0 0 1231 576.5;" xml:space="preserve">
<style type="text/css">
	.st0{fill:#E85781;}
	.st1{fill:#DFFB2E;}
	.st2{clip-path:url(#SVGID_00000095322380713142914850000011640898582686492046_);}
	.st3{fill:#E65781;}
	.st4{clip-path:url(#SVGID_00000116211007934657671500000016786289649252771228_);}
</style>
<path class="st0" d="M1038.1,226.9c-0.2-1.3-0.4-2.6-0.5-3.9l0.3,2.4c-3.9-28.9-4.8-58.3-2.6-87.4c0.6-8.2,1.5-16.5,2.6-24.7
	l-0.3,2.4c0.9-6.9,1.6-14.1,4.2-20.6l-0.9,2.2c0.7-1.7,1.6-3.3,2.7-4.7l-1.4,1.8c0.7-0.9,1.5-1.7,2.3-2.4l-1.8,1.4
	c0.8-0.6,1.7-1.1,2.6-1.5l-2.1,0.9c0.8-0.3,1.7-0.6,2.5-0.7l-2.4,0.3c1.2-0.2,2.4-0.1,3.6,0l-2.4-0.3c3.7,0.6,7.3,2.1,10.8,3.5
	l-2.2-0.9c4.9,2.1,9.7,4.6,14,7.9l-1.8-1.4c2.4,1.9,4.6,4,6.5,6.4l-1.4-1.8c1.2,1.7,2.3,3.4,3.2,5.3l-0.9-2.2
	c0.8,1.8,1.3,3.7,1.6,5.7l-0.3-2.4c0.2,1.8,0.2,3.7,0,5.5l0.3-2.4c-0.3,2-0.8,3.9-1.6,5.8l0.9-2.2c-1,2.2-2.2,4.3-3.7,6.2l1.4-1.8
	c-1.8,2.2-3.8,4.2-6,6l1.8-1.4c-3.2,2.4-6.7,4.3-10.3,5.8l2.2-0.9c-7.7,3.2-15.9,5-24,6.9c-8.8,2.1-17.6,4-26.6,5.2l2.4-0.3
	c-10.3,1.4-20.9,1.8-31.2,0.4l2.4,0.3c-7-1-14-2.8-20.5-5.5l2.2,0.9c-5.3-2.2-10.4-5.1-15-8.6l1.8,1.4c-3.6-2.8-6.9-6.1-9.8-9.7
	l1.4,1.8c-2.3-3-4.3-6.3-5.8-9.8l0.9,2.1c-1.3-3.1-2.2-6.3-2.7-9.7l0.3,2.4c-0.3-2.6-0.4-5.2-0.1-7.9l-0.3,2.4
	c0.3-2.2,0.9-4.3,1.7-6.4l-0.9,2.2c0.8-1.8,1.8-3.5,3-5.1l-1.4,1.8c1.2-1.5,2.6-2.9,4.2-4.1l-1.8,1.4c1.8-1.4,3.8-2.5,6-3.5
	l-2.2,0.9c2.6-1.1,5.3-1.8,8-2.2l-2.4,0.3c2.8-0.3,5.6-0.3,8.4,0l-2.4-0.3c2.6,0.4,5.1,1.1,7.6,2.1l-2.2-0.9c3,1.3,5.7,2.9,8.3,4.9
	l-1.8-1.4c3,2.3,5.6,5,7.9,7.9l-1.4-1.8c2.9,3.8,5.3,8,7.2,12.4l-0.9-2.2c2.7,6.5,4.3,13.4,5.2,20.3l-0.3-2.4
	c1.3,10.1,1.4,20.4,1.6,30.6c0.2,9.6,0.4,19.3-0.1,28.9c-0.2,5.4-0.7,10.8-1.4,16.2l0.3-2.4c-1.3,9.7-3.6,19.3-7.4,28.3l0.9-2.1
	c-1,2.4-2,5.1-3.6,7.2l1.4-1.8c-0.7,0.9-1.4,1.6-2.3,2.2l1.8-1.4c-1.2,0.9-2.5,1.6-3.9,2.2l2.2-0.9c-1.4,0.5-2.8,1-4.2,1.2l2.4-0.3
	c-0.8,0.1-1.7,0.1-2.5,0l2.4,0.3c-1-0.2-1.9-0.4-2.8-0.8l2.2,0.9c-2.3-1-4.5-2.4-6.6-3.9c-1.9-1.3-3.8-2.6-5.6-4l1.8,1.4
	c-3-2.3-5.8-4.9-8.2-7.9l1.4,1.8c-1.3-1.8-2.5-3.7-3.4-5.7l0.9,2.1c-0.7-1.7-1.2-3.5-1.4-5.3l0.3,2.4c-0.2-1.9-0.2-3.8,0-5.6
	l-0.3,2.4c0.3-2.2,1-4.4,1.8-6.5l-0.9,2.1c1-2.4,2.3-4.6,3.9-6.6l-1.4,1.8c1.8-2.4,3.9-4.5,6.3-6.3l-1.8,1.4c2.6-2,5.5-3.6,8.6-4.9
	l-2.2,0.9c5.2-2.1,10.7-3.4,16.2-4.1l-2.4,0.3c9.3-1.2,18.7-1.4,28-1.9c10-0.5,20-1.1,30-1.5c5.5-0.2,11.1-0.3,16.6,0.5l-2.4-0.3
	c4.3,0.6,8.4,1.7,12.4,3.4l-2.1-0.9c3.7,1.6,7.1,3.6,10.3,6l-1.8-1.4c2.9,2.3,5.6,4.9,7.9,7.8l-1.4-1.8c1.9,2.6,3.6,5.3,4.9,8.2
	l-0.9-2.1c1.2,2.9,2,5.9,2.5,9l-0.3-2.4c0.5,3.4,0.5,6.7,0,10.1l0.3-2.4c-0.4,3.1-1.2,6.1-2.4,8.9l0.9-2.1c-1.1,2.5-2.4,4.9-4.1,7
	l1.4-1.8c-1.5,1.9-3.2,3.6-5.1,5.1l1.8-1.4c-2.1,1.6-4.3,2.9-6.7,3.9l2.2-0.9c-2.6,1.1-5.3,1.8-8.2,2.2l2.4-0.3
	c-2.8,0.4-5.6,0.4-8.5,0.1l2.4,0.3c-2.7-0.4-5.3-1.1-7.8-2.1l2.2,0.9c-3.2-1.4-6.4-3.1-9.1-5.2l1.8,1.4c-1.4-1.1-2.7-2.4-3.8-3.8
	l1.4,1.8c-1.3-1.7-2.3-3.6-3.2-5.6l0.9,2.1C1039.6,231.9,1038.9,229.4,1038.1,226.9c-1.2-4.6-6.4-7.8-11-6.3s-7.6,6.2-6.3,11.1
	c1.9,6.9,4.5,13.9,9.7,19.1c2.5,2.5,5.5,4.6,8.6,6.2c3.7,2,7.7,3.9,11.8,4.8c9.4,2,19,0.8,27.6-3.5c7.6-3.7,14-10.5,17.4-18.2
	c2.1-4.7,3.2-9.1,3.8-14.2c0.5-4.3,0.2-8.5-0.5-12.8c-1.4-8.6-5.8-16.6-11.7-23.1c-5.8-6.4-13.5-11.2-21.7-14.2
	c-8.9-3.4-18.7-3.9-28.2-3.5c-10,0.3-20,1-29.9,1.5c-9.3,0.5-18.7,0.6-28,1.7c-9.8,1.2-19.7,3.2-28.1,8.5
	c-8.1,5-14.2,12.5-17.5,21.3s-2.2,18.9,2.8,26.8S949,245,956.4,250c5,3.4,10.5,5.9,16.7,5.1c5.2-0.7,10.3-3.1,14.2-6.7
	s5.8-9,7.7-13.7c1.6-3.9,2.9-7.8,3.9-11.9c4.6-17.3,5.2-35.4,5-53.2c-0.1-8.8-0.3-17.6-0.7-26.4c-0.5-10-1.5-20.2-4.3-29.8
	c-5.1-17.1-16.5-32.8-33.9-38.8c-15.7-5.4-35.7,0.3-44.2,15.1c-5,8.7-5.5,19.3-2.7,28.8c2.5,8.8,7.6,16.8,14.1,23.2
	c11.6,11.6,27.7,18.7,43.8,21.1c10,1.5,19.9,1.6,29.9,0.6c10.3-1.1,20.6-3,30.7-5.3c8.9-2.1,18-3.9,26.4-7.4c4.6-1.9,9.1-3.9,13-7
	c4.2-3.2,7.7-6.7,10.6-11.1c5.1-7.8,6.9-18,3.8-26.9c-3-8.5-9-14.9-16.3-20c-2.9-2-6.1-3.8-9.3-5.3c-4.1-1.9-8.3-3.7-12.7-4.9
	c-5.8-1.6-12-1.5-17.2,1.6c-3.8,2.2-6.9,5.8-8.9,9.8c-4.1,8.3-5,17.6-6.2,26.6c-1.3,9.7-2.3,19.5-2.9,29.3
	c-1.2,19.6-1.1,39.3,0.4,58.8c0.8,10.1,2,20.2,3.4,30.2c0.3,2.1,2.4,4.4,4.1,5.4c1.9,1.1,4.8,1.6,6.9,0.9s4.3-2.1,5.4-4.1l0.9-2.1
	C1038.6,230,1038.6,228.4,1038.1,226.9L1038.1,226.9L1038.1,226.9z"/>
<g>
	<g>
		<path class="st1" d="M36.4,238.8c33.2-4.8,69.2-10.6,93.6-35.9c19.6-20.4,26.4-51.7,9.8-76.1c-8.2-12-20.9-18.6-35.5-18.7
			c-15.6-0.1-34.8,3.8-47.6,13.2c-11.5,8.4-18.2,24.5-12.4,38.1c5.8,13.8,22.9,22.3,36.4,26.7c30.7,9.9,64.2,4,95.1-1.8
			c38.9-7.2,78-12.8,117.5-15.2c19.4-1.2,38.8-1.4,58.2-1.6c16.8-0.2,34.7-1.3,49.6-10c14.1-8.2,25.3-23.6,42.7-24.9
			c8.5-0.6,16.4,3,19.5,11.4c2.8,7.7,2.1,16.8,0.7,24.7c-2.7,16.4-10.6,32-22.2,44c-10.2,10.6-24,17.3-33.3,28.8
			c-9.1,11.3-10.5,26.1-3.8,39c7.7,14.8,22.8,22.4,38.6,25.5c18.4,3.6,37.8,3.8,56.5,2.9c16-0.8,31.6-4.5,40.5-18.9
			c15.6-25.2,8-63.5-15.1-81.6c-11.3-8.9-26.6-13.1-40.9-10.4c-12.9,2.4-29.3,11.9-25.6,27.4c3.1,13.1,19.1,14.2,30,13.6
			c17.9-1,35.9-2.2,53.6-5.1c17.2-2.9,34.2-7.4,49.8-15.2c14.6-7.3,27.7-17.3,39.1-28.9c11.5-11.7,21.4-24.8,30.2-38.6
			c4.5-7,8.8-14.2,12.8-21.5c3.9-7,7.2-14.5,12-20.9c4.5-6.1,10.8-10.8,18.6-9.8c2.9,0.4,6.4,1.6,8.1,4.2c2.7,4,0,11.1-0.8,15.4
			c-3.9,19.9-7.8,39.8-11.7,59.8c-3.1,15.7-6.8,34.4,5.1,47.5c13.2,14.6,30.3,3,43.4-5.3c17.3-11,34.5-22,51.8-32.9
			c8.6-5.5,17.3-11,25.9-16.5c8.3-5.3,16.5-11.4,25.3-15.9c17.8-9,18.4,15.5,18.4,26.5c0,16.8,2.5,34.8,12.5,48.8
			c8.2,11.5,21,19.7,35.3,19.6c3.9,0,3.8-9-0.2-8.9c-15.2,0.1-28.4-10.2-35-23.5c-3.9-8-5.7-16.8-6.4-25.6
			c-0.6-7.4,0.1-14.8-0.6-22.1c-0.8-9.5-3.8-23.6-15.1-25.5c-7.6-1.3-14.1,4-20.1,7.9c-8.1,5.1-16.2,10.3-24.2,15.4
			c-15.9,10.1-31.8,20.2-47.6,30.3c-8.1,5.1-16.2,10.3-24.2,15.4c-7.1,4.5-15.3,10.8-24.1,10.6c-7.7-0.2-13.6-6-16-12.9
			c-3.1-8.9-0.6-18.8,1.1-27.7c3.6-18.3,7.2-36.6,10.7-54.9c2.3-12,8.9-31-6.4-37.2c-12.7-5.2-23.7,4.2-30.1,14.4
			c-8,12.8-14.5,26.5-22.7,39.3c-8.4,13-17.6,25.5-28.5,36.6c-23.2,23.8-52.2,37.3-84.8,43c-16.3,2.8-32.8,4.1-49.2,5.1
			c-6.9,0.4-14,1.2-20.8-0.5c-6.5-1.6-13-6.2-7.3-13c9.3-11.2,28.3-11.8,41.1-7.7c14.6,4.7,25.6,16,31,30.2
			c5.2,13.5,5.5,30.3-1.5,43.3c-8.4,15.5-25.2,17.7-41.2,18.2c-17.7,0.6-36.4,0.5-53.8-3.3c-15.1-3.4-31.8-12-35.4-28.5
			c-3.2-14.7,9.8-25.1,20.1-33c11.4-8.7,21.9-17.5,29.6-29.8c7.7-12.2,12.6-26.4,13.9-40.8c1.2-12.9,0.5-29.7-11.6-37.5
			c-11.7-7.5-26.6-2.4-37,4.8c-6.4,4.4-12,9.7-18.4,14.1c-7.1,5-15.1,8.2-23.6,9.9c-16.2,3.4-33.2,2.3-49.7,2.5
			c-18.9,0.3-37.8,1.3-56.7,2.9c-35.7,3-70.6,9-105.8,15.2c-28.8,5.1-60.3,9.8-88.5-0.3c-12.3-4.4-33.9-14.8-30.8-30.9
			c3.2-16.5,21.5-23.1,35.9-26.1c15.1-3.2,31.9-4.8,44.5,5.9c9.9,8.3,15.1,21.6,14.8,34.4c-0.9,30.6-31.2,51.1-57.3,59.8
			c-16.2,5.4-33.1,7.8-50,10.3C32.2,230.5,32.6,239.4,36.4,238.8L36.4,238.8z"/>
	</g>
</g>
<path class="st0" d="M79.2,73.6l-6.7-7l98.4,0.2c78.9,0,74.4,97.3,74.4,97.3s4.6,97.3-74.4,97.3H72.5l6.7-6.8 M197.4,164
	c0-90-33.1-90.4-33.1-90.4h-26.7c-5.8,0-10.4,4.7-10.4,10.5v160c0,5.8,4.7,10.4,10.4,10.4h26.7C164.3,254.5,197.4,254,197.4,164z"/>
<path class="st0" d="M311.4,249.8l-54.2,8.8l5.6-6.4c0.6-0.7,1-1.7,1-2.7v-0.6l0.1-124.7l-6.7-7H318l-6.1,7"/>
<path class="st0" d="M396.7,314.2c-69.4,4.9-70.4-20.3-70.5-28.3c0-9.6,5.6-22.7,21.1-27.5c0,0-20.7,22.7,13.6,25.5
	s88.7-5.5,97.2-16.3c8.6-10.8-5.9-13.1-34.6-6.3c-46.3,11-78.4-2-85.8-20.6c-4.9-12.4,1-25.5,13.3-32.8
	c-12.7-9.4-20.8-23.3-20.8-38.9c0-28.2,26.4-51,58.9-51c0.2,0,0.5,0,0.7,0c2.3-7.7,10.7-30.8,31.5-38.9l18.8,26.5
	c0,0-25.4-2.8-42.9,13c28.7,3.4,50.9,24.7,50.9,50.5c0,28.2-26.4,51-58.9,51c-10.6,0-20.5-2.5-29.1-6.7c-0.6,1.1-1.1,2.4-1.4,4
	c-1.9,11.2,23.5,17.5,46.5,12.8c23-4.8,48.4-9.4,58.2,6.4C473.3,252.3,473.4,308.8,396.7,314.2L396.7,314.2z M373.1,170.1
	c10.4,23.8,26,42.6,34.9,42s7.7-20.3-2.7-44s-26-42.6-34.9-42C361.5,126.7,362.7,146.4,373.1,170.1L373.1,170.1z"/>
<path class="st0" d="M482,251.4l-0.3-127l-6.9-7.2h62.3l-6.3,7.2c0,42.3,0.3,83.8,0.3,126.1c0,1.8,3.2,6.2,6,6.9
	C520.8,255.7,498.2,253.2,482,251.4L482,251.4z"/>
<path class="st0" d="M636.2,259.3c0,0-17.2,4.7-32.6,4.7c-19.6,0-50.7-6.8-50.7-60l-0.2-76.5h-3.3v-6.8h3.2l-0.1-41.4l48.2-5.8v47.1
	h30.5v6.8h-30.5v97.7c0,31.8,34.8,21,34.8,21L636.2,259.3L636.2,259.3z"/>
<path class="st0" d="M774,261.3h-54.5v-17.9c-6.9,9.5-19.8,21.9-39.8,21.3c-26.9-0.8-33.9-14.7-33.9-34.5
	c0-49.2,45.6-49.9,57.7-63.6C725.7,141.5,717,126,717,126c-8.7,0.4-5,34.4-37.3,34.4s-39.8-14.5-35.1-39.9c0,0,18,12.8,36.8,10.3
	c18.8-2.4,31.8-14.3,53.1-12.4c20.2,1.8,33.4,9.6,33.4,68v68L774,261.3L774,261.3L774,261.3z M719.5,236.5v-81.6
	c-8.6,21-25.4,28-25.4,69.4c0,17.5,8.5,29.5,15.6,23.9C713.7,245.1,717,240.7,719.5,236.5z"/>
<path class="st0" d="M792.4,254.4V80.5l-6.7-7l54.6-13.2v194l6.1,6.8h-60.8L792.4,254.4z"/>
<path class="st0" d="M482.3,85.7c1.4-1.1,3-1.9,4.4-2.8c3.3-2.3,3.4-6.1,0.3-8.2c-2-1.5-4.2-2.9-6.1-4.7c-1.2-1.1,0.6-6.2,2.2-6.8
	c4.5-1.4,8.4-0.2,12.4,2c3.1,1.7,3.9,1.1,4.7-2.8c0.5-2.6,0.5-5.1,1.2-7.6c0.5-1.9,2.3-2.3,4-2.3c2-0.2,3.7,0.2,4.4,2
	c1.1,3.1,1.7,6.5,2.6,9.8c0.8,2.5,1.9,2.3,3.9,0.8c2.8-2.2,6.1-3.1,9.8-2.6c3,0.5,4.8,2,5.3,4.7c0.3,2-0.2,3.6-1.9,4.7
	c-1.4,0.9-3,1.7-4.4,2.6c-3.1,2.3-3.1,6.1,0.2,8.4c1.4,0.9,3,1.7,4.4,2.6c1.7,1.1,2,2.8,1.7,4.7c-0.6,3-2.5,4.3-5.3,4.7
	c-3.7,0.6-6.8-0.8-9.6-2.8c-2.2-1.5-3.4-1.5-3.9,0.8c-0.9,3.3-1.2,6.7-2.2,9.9c-0.6,2-2.3,2.3-4.2,2.3c-2,0-3.7-0.2-4.4-2.2
	c-0.9-3.3-1.5-6.5-2.3-9.9c-0.6-2.3-1.7-2.2-3.9-0.6c-2.8,2-6.1,3.1-9.6,2.6c-2.6-0.3-4.8-1.9-5.4-4.5
	C480.1,88.4,480.7,86.9,482.3,85.7L482.3,85.7z"/>
<path class="st0" d="M264,86.2c1.4-1.1,2.9-1.9,4.3-2.8c3.3-2.3,3.4-6.1,0.3-8.2c-2-1.6-4.2-3-6.1-4.7c-1.2-1.1,0.6-6.2,2.2-6.8
	c4.5-1.4,8.4-0.2,12.4,2c3.1,1.7,3.9,1.1,4.7-2.8c0.5-2.6,0.5-5.1,1.2-7.6c0.5-1.9,2.3-2.3,4-2.3c2-0.2,3.7,0.2,4.4,2
	c1.1,3.1,1.7,6.5,2.6,9.8c0.8,2.5,1.9,2.3,3.9,0.8c2.8-2.2,6.1-3.1,9.8-2.6c3,0.5,4.8,2,5.3,4.7c0.3,2-0.2,3.6-1.9,4.7
	c-1.4,0.9-2.9,1.7-4.3,2.6c-3.1,2.3-3.1,6.1,0.2,8.4c1.4,0.9,3,1.7,4.4,2.6c1.7,1.1,2,2.8,1.7,4.7c-0.6,2.9-2.5,4.3-5.3,4.7
	c-3.7,0.6-6.8-0.8-9.6-2.8c-2.2-1.6-3.4-1.6-3.9,0.8c-0.9,3.3-1.2,6.7-2.2,9.9c-0.6,2-2.3,2.3-4.2,2.3c-2,0-3.7-0.2-4.4-2.2
	c-0.9-3.3-1.5-6.5-2.3-9.9c-0.6-2.3-1.7-2.2-3.9-0.6c-2.8,2-6.1,3.1-9.6,2.6c-2.6-0.3-4.8-1.9-5.4-4.5
	C261.8,88.9,262.4,87.3,264,86.2L264,86.2z"/>
<g>
	<defs>
		<path id="SVGID_1_" d="M31.4,87.9v223.5H923V87.9H31.4z M127.2,192.1c-3.4,0.2-6.7,0.3-9.9,0.3c-13.8,0-25.9-1.8-37.1-5.4
			c-0.3-0.1-0.7-0.2-1-0.4v-11.2l0.2,0.1c11.1,4,23.4,5.9,37.6,5.9c3.2,0,6.6-0.1,10.1-0.3v11H127.2z M245.1,174.5
			c-15.5,1.9-31.3,4.2-48.2,7c0.2-3.5,0.3-7.1,0.4-10.9c18.4-3.1,33.7-5.3,48-7.1c0,0.4,0,0.6,0,0.6S245.5,168.1,245.1,174.5z
			 M351.4,168.5c-6.8,0.1-14,0.2-21.2,0.3c0-3.8,0.5-7.5,1.5-11.1c2.1,0,4.1,0,6.2,0h8.2c6.7,0,14.5-0.1,22.1-0.8
			c1.1,3.4,2.3,6.9,3.8,10.5C364.7,168.2,357.5,168.4,351.4,168.5z M439.7,226.2c-3.4,3-7.2,6.1-12.3,10
			c-10.4,7.9-20.5,16.6-20.2,28.2c-2.6,0.3-5.2,0.6-7.7,0.8c-0.3-8.6,2.6-17.2,8.2-24.1c4.4-5.5,9.8-9.9,15.2-14
			c5.9-0.9,11.7-1.4,17-1.2L439.7,226.2z M488.7,240c-1.6,0.1-3.1,0.1-4.6,0.1l0,0c-0.7,0-1.4,0-2.1,0v-10.9c0.4,0,0.9,0,1.3,0
			c2.8,0,5.7-0.2,8.5-0.4c0.9-0.1,1.8-0.1,2.6-0.2c11.7-0.7,24.2-1.6,36.6-3.2c0,3.7,0,7.3,0,11C516.6,238.3,502.2,239.2,488.7,240z
			 M662.2,151.7c-1.1,1.7-2.3,3.5-3.6,5.5c-3.1-1.2-5.7-2.8-7.8-4.6c1.8-2.7,3.7-5.4,5.4-8.2c3.2-4.9,6.1-10,8.7-14.8
			c3,0.8,6.3,1.3,9.6,1.5C670.3,138.7,666.2,145.4,662.2,151.7z M708.3,174.2c-4.3,6.5-8.4,13.4-11.1,23.5l-0.7-1
			c0.5-6.2,1.7-12.3,2.8-18.2l1.9-9.8c0.9-0.7,1.6-1.4,2.3-2.2c3.1-3.5,5.6-6.9,7.6-10l0.5,0.9L708.3,174.2z M840.3,163.3
			c-1.8,1.2-3.7,2.4-5.5,3.6c-2.5,1.7-5.2,3.5-7.8,5.1l-34.6,22h-0.1v-12l47.7-30.3h0.2L840.3,163.3L840.3,163.3z"/>
	</defs>
	<clipPath id="SVGID_00000147211991274492088770000017089691279466379661_">
		<use xlink:href="#SVGID_1_"  style="overflow:visible;"/>
	</clipPath>
	<g style="clip-path:url(#SVGID_00000147211991274492088770000017089691279466379661_);">
		<g>
			<path class="st1" d="M36.4,238.8c33.2-4.8,69.2-10.6,93.6-35.9c19.6-20.4,26.4-51.7,9.8-76.1c-8.2-12-20.9-18.6-35.5-18.7
				c-15.6-0.1-34.8,3.8-47.6,13.2c-11.5,8.4-18.2,24.5-12.4,38.1c5.8,13.8,22.9,22.3,36.4,26.7c30.7,9.9,64.2,4,95.1-1.8
				c38.9-7.2,78-12.8,117.5-15.2c19.4-1.2,38.8-1.4,58.2-1.6c16.8-0.2,34.7-1.3,49.6-10c14.1-8.2,25.3-23.6,42.7-24.9
				c8.5-0.6,16.4,3,19.5,11.4c2.8,7.7,2.1,16.8,0.7,24.7c-2.7,16.4-10.6,32-22.2,44c-10.2,10.6-24,17.3-33.3,28.8
				c-9.1,11.3-10.5,26.1-3.8,39c7.7,14.8,22.8,22.4,38.6,25.5c18.4,3.6,37.8,3.8,56.5,2.9c16-0.8,31.6-4.5,40.5-18.9
				c15.6-25.2,8-63.5-15.1-81.6c-11.3-8.9-26.6-13.1-40.9-10.4c-12.9,2.4-29.3,11.9-25.6,27.4c3.1,13.1,19.1,14.2,30,13.6
				c17.9-1,35.9-2.2,53.6-5.1c17.2-2.9,34.2-7.4,49.8-15.2c14.6-7.3,27.7-17.3,39.1-28.9c11.5-11.7,21.4-24.8,30.2-38.6
				c4.5-7,8.8-14.2,12.8-21.5c3.9-7,7.2-14.5,12-20.9c4.5-6.1,10.8-10.8,18.6-9.8c2.9,0.4,6.4,1.6,8.1,4.2c2.7,4,0,11.1-0.8,15.4
				c-3.9,19.9-7.8,39.8-11.7,59.8c-3.1,15.7-6.8,34.4,5.1,47.5c13.2,14.6,30.3,3,43.4-5.3c17.3-11,34.5-22,51.8-32.9
				c8.6-5.5,17.3-11,25.9-16.5c8.3-5.3,16.5-11.4,25.3-15.9c17.8-9,18.4,15.5,18.4,26.5c0,16.8,2.5,34.8,12.5,48.8
				c8.2,11.5,21,19.7,35.3,19.6c3.9,0,3.8-9-0.2-8.9c-15.2,0.1-28.4-10.2-35-23.5c-3.9-8-5.7-16.8-6.4-25.6
				c-0.6-7.4,0.1-14.8-0.6-22.1c-0.8-9.5-3.8-23.6-15.1-25.5c-7.6-1.3-14.1,4-20.1,7.9c-8.1,5.1-16.2,10.3-24.2,15.4
				c-15.9,10.1-31.8,20.2-47.6,30.3c-8.1,5.1-16.2,10.3-24.2,15.4c-7.1,4.5-15.3,10.8-24.1,10.6c-7.7-0.2-13.6-6-16-12.9
				c-3.1-8.9-0.6-18.8,1.1-27.7c3.6-18.3,7.2-36.6,10.7-54.9c2.3-12,8.9-31-6.4-37.2c-12.7-5.2-23.7,4.2-30.1,14.4
				c-8,12.8-14.5,26.5-22.7,39.3c-8.4,13-17.6,25.5-28.5,36.6c-23.2,23.8-52.2,37.3-84.8,43c-16.3,2.8-32.8,4.1-49.2,5.1
				c-6.9,0.4-14,1.2-20.8-0.5c-6.5-1.6-13-6.2-7.3-13c9.3-11.2,28.3-11.8,41.1-7.7c14.6,4.7,25.6,16,31,30.2
				c5.2,13.5,5.5,30.3-1.5,43.3c-8.4,15.5-25.2,17.7-41.2,18.2c-17.7,0.6-36.4,0.5-53.8-3.3c-15.1-3.4-31.8-12-35.4-28.5
				c-3.2-14.7,9.8-25.1,20.1-33c11.4-8.7,21.9-17.5,29.6-29.8c7.7-12.2,12.6-26.4,13.9-40.8c1.2-12.9,0.5-29.7-11.6-37.5
				c-11.7-7.5-26.6-2.4-37,4.8c-6.4,4.4-12,9.7-18.4,14.1c-7.1,5-15.1,8.2-23.6,9.9c-16.2,3.4-33.2,2.3-49.7,2.5
				c-18.9,0.3-37.8,1.3-56.7,2.9c-35.7,3-70.6,9-105.8,15.2c-28.8,5.1-60.3,9.8-88.5-0.3c-12.3-4.4-33.9-14.8-30.8-30.9
				c3.2-16.5,21.5-23.1,35.9-26.1c15.1-3.2,31.9-4.8,44.5,5.9c9.9,8.3,15.1,21.6,14.8,34.4c-0.9,30.6-31.2,51.1-57.3,59.8
				c-16.2,5.4-33.1,7.8-50,10.3C32.2,230.5,32.6,239.4,36.4,238.8L36.4,238.8z"/>
		</g>
	</g>
</g>
<g>
	<g>
		<g>
			<path class="st1" d="M41.7,327.9c-16.5,23.8-7.5,62,19.4,74.2c39.1,17.7,78.8-19.5,109.7-38.2c17.9-10.9,37.4-21.1,58.4-24.4
				c20.7-3.3,40.2,1.8,57.1,14c15.4,11.1,28.3,25.3,44.7,34.9c18.7,10.9,40.7,15,62.1,16.4c95.8,6.1,184.8-44.6,280.3-42.4
				c23.3,0.5,44.5,6.6,65.9,15.2c20.6,8.3,41.1,15.3,63,19c44.6,7.5,90.3,3.5,134.4-5.3c44.7-8.9,91.9-22.9,137.5-11.5
				c39,9.8,74.9,40.4,117.1,31.1c8.4-1.8,15.9-5.3,22.7-10.5c2.9-2.2,0.7-10.6-3.2-7.6c-34.5,26.4-78.8,0-112.4-13.8
				c-19.6-8.1-39.9-12.3-61.1-12.2c-22.3,0-44.4,4-66.2,8.4c-43.4,8.9-86.3,17.7-130.9,16.2c-22.1-0.7-44.2-3.8-65.5-10
				c-20.6-6-39.7-16-60.3-22c-42.6-12.4-89.2-4.2-131.6,4.9c-45.2,9.7-89.6,23.4-135.5,29.3c-42.4,5.4-90.9,5.4-126.4-21.8
				c-14.4-11.1-27.1-24.6-43.2-33.4c-16.7-9.1-35.9-10.8-54.3-6.9c-19.5,4.2-37.5,13.4-54.4,23.7c-17.2,10.4-33.1,23.1-51.1,32.1
				c-17.5,8.8-38.9,14.8-57.4,5.2C47,385.4,39,369.9,39.3,354.9c0.1-7.5,2.5-14.6,6.8-20.7C48.2,331,44.8,323.4,41.7,327.9
				L41.7,327.9z"/>
		</g>
	</g>
</g>
<path class="st3" d="M245.9,461.3h-54.8l-10.7-38.2c-9.2,13.4-33.2,43-66,43c-56.7,0-48.8-54.6-36.6-93.4
	c18.3-58.2,60.7-99.1,60.7-99.1l-10-7h48.7c4.3,0,8.9,5.3,10.1,9.4L237,454.4L245.9,461.3L245.9,461.3z M179,418.1l-39.3-140.3
	c-3.3,2.6-3.3,1.5-14.2,18.5c-37,57.9-21.8,163.2,14,158.1C154.7,452.3,171.7,429.1,179,418.1L179,418.1z"/>
<path class="st3" d="M264,454.9c0-9.9-0.2-142.6-0.3-175.7c0-4.1-6.4-5.7-6.4-6.3l54.3-8.1l0.3,190l6.1,6.8h-60.8L264,454.9z"/>
<path class="st3" d="M460.6,422.1c-4.8,16.8-11.5,42-54.1,42c-56.1,0-84.3-27.4-84.3-74.3c0-62.3,51.5-69.2,66.4-69.2
	c21.3,0,19.9,10.1,44,10.1c16.3,0,27.6-10.1,27.6-10.1c5.3,24.2-6.3,44-35.1,39.9c-20.8-2.9-20.3-46.1-37.6-23.1
	c-12.7,16.9-19.7,117.3,20.2,117.3S458.2,429.4,460.6,422.1L460.6,422.1z M461.2,420.1c0,0-0.2,0.7-0.6,2
	C460.8,421.4,461,420.7,461.2,420.1z"/>
<path class="st3" d="M530.2,338c1.9-3.4,5.8-9.2,13-13.5c5.5-3.2,10.4-4.1,13.1-4.5c55.7-8.1,75.4,32.7,63,70.5
	c-10,30.6-11.7,53.4-11.8,64.1l6,6.7h-60.7l6.7-6.8h0.1c1.5-44.6,18-56.1,18-90.5c0-22-10.5-41.1-25.5-37.8
	c-15.9,3.5-21.9,37.8-21.9,37.8v90.5l6.1,6.8h-60.8l6.7-6.8V264.8c16,1.6,38.4,3.8,54.5,5.4c-2.7,1.4-6.4,3.9-6.4,5.2
	C530.3,296.9,530.2,316.5,530.2,338L530.2,338z"/>
<path class="st3" d="M710,414.5c-8.6,2.4-15.2,6.1-20.1,10c7.3,17.3,18.5,29.9,33.3,29.9c33.3,0,46.3-34.3,46.3-34.3
	c-3,27.7-19,44-54.7,44c-32.8,0-79.3-5.6-83.9-65.1c-4-51.2,21.4-74.7,69.3-78.4c47.9-3.7,77.1,28.6,69.6,53S740.1,406,710,414.5
	L710,414.5z M723.7,385.3c6.6-21.4-15.5-70.5-33.3-52.3c-13.3,13.5-13.6,55.5-2.4,86.4C702.2,407.2,717.6,405.2,723.7,385.3z"/>
<path class="st3" d="M1015.1,390.5c-10,30.6-11.7,53.4-11.8,64.1l6,6.7h-60.7l6.7-6.8h0.1c1.5-44.6,18-56.1,18-90.5
	c0-22-10.5-41.1-25.5-37.8c-10.7,2.4-16.9,18.5-19.8,28.9c2.7,11,2,23.4-1.9,35.4c-10,30.6-11.7,53.4-11.8,64.1l6,6.7h-60.7l6.7-6.8
	h0.1c1.5-44.6,18-56.1,18-90.5c0-22-10.5-41.1-25.5-37.8c-15.9,3.5-21.9,37.8-21.9,37.8v90.5l6.1,6.8h-60.8l6.7-6.8V327.7l-6.7-7
	h50.9l3.7,7v10.4c4.9-8.4,13-16.1,26.2-18c31.1-4.5,50.9,6.2,60.2,23c4.5-10.2,12.9-20.8,28.7-23
	C1007.9,311.9,1027.5,352.7,1015.1,390.5L1015.1,390.5z"/>
<path class="st3" d="M1175.3,323l-6.7,6.8l-0.1,0.1v123.5c0,3.5-0.3,6.8-0.8,10.1c-4.9,32.6-33,57.6-67,57.6
	c12.8-15.5,19.8-35,19.8-55.1v-19c-4.9,8.4-13,15.9-26,17.8c-55.7,8.1-75.4-32.7-62.9-70.5c10.1-30.8,11.7-53.9,11.8-64.6l-6-6.7
	h60.8l-6.8,6.7c-1.5,44.9-18,56.8-18,91.2c0,22,11.4,40.1,27.6,37.8c14.6-2.1,19.1-31.4,19.8-36.8v-92.1l-6-6.7L1175.3,323
	L1175.3,323z"/>
<g>
	<defs>
		<path id="SVGID_00000008130198101478630750000016767316494612745089_" d="M31.5,324.5v90.1h1185.9v-90.1H31.5z M82.7,407.7
			L82.7,407.7c-4.3,0-8.5-0.5-12.6-1.5c0.5-3.6,1.1-7.2,1.8-10.7c3,0.6,6.2,1,9.5,1c7.1,0,14.9-1.5,23.2-4.4
			c0.3,3.9,0.7,7.7,1.2,11.4C97.6,406.3,90,407.7,82.7,407.7z M311.5,375.4c-2.7-2.2-5.4-4.5-7.9-6.7c-5.7-4.9-11.6-10-17.8-14.5
			c-6.9-5-14.3-8.7-21.9-11.2c0-3.9,0-7.7,0-11.4c5.1,1.5,9.9,3.5,14.4,5.9c10.7,5.9,20.1,13.9,29.1,21.6c1.5,1.3,3,2.6,4.5,3.8
			v12.5L311.5,375.4z M530.2,386.8c-15.3,3.8-31.5,7.8-48,11.2v-11.2c16.2-3.3,32.6-7.2,48-11V386.8z M680.3,363.6
			c-2.4-0.2-4.7-0.3-6.9-0.3c-2,0-4.1-0.1-6.1-0.1c-10.9,0-21.9,0.6-33.8,2c1.1-4.1,2.6-7.9,4.4-11.4c10.3-1.1,19.7-1.7,28.8-1.7
			c5.1,0,10.2,0.2,15,0.5C681.1,356.1,680.6,359.8,680.3,363.6z M837.1,401.2c-12-0.5-23.8-1.7-35-3.6c-4.3-0.7-8.5-1.6-13-2.6v-11
			c15.1,3.4,31.2,5.5,48,6.2V401.2z M1018.1,377.5c-16.3,1.5-32.9,4.7-47,7.6c0.8-3.6,1.4-7.3,1.8-11.3c14.4-2.9,29.9-5.8,45.7-7.1
			C1018.8,370.2,1018.6,373.8,1018.1,377.5z M1168.5,413.3c-16.8-1.4-32.7-7.7-47.7-14.3v-11.5c14.5,6.3,31.2,13.1,47.7,15V413.3z"
			/>
	</defs>
	<clipPath id="SVGID_00000157278501989763157340000011250121778711060923_">
		<use xlink:href="#SVGID_00000008130198101478630750000016767316494612745089_"  style="overflow:visible;"/>
	</clipPath>
	<g style="clip-path:url(#SVGID_00000157278501989763157340000011250121778711060923_);">
		<g>
			<path class="st1" d="M41.7,327.9c-16.5,23.8-7.5,62,19.4,74.2c39.1,17.7,78.8-19.5,109.7-38.2c17.9-10.9,37.4-21.1,58.4-24.4
				c20.7-3.3,40.2,1.8,57.1,14c15.4,11.1,28.3,25.3,44.7,34.9c18.7,10.9,40.7,15,62.1,16.4c95.8,6.1,184.8-44.6,280.3-42.4
				c23.3,0.5,44.5,6.6,65.9,15.2c20.6,8.3,41.1,15.3,63,19c44.6,7.5,90.3,3.5,134.4-5.3c44.7-8.9,91.9-22.9,137.5-11.5
				c39,9.8,74.9,40.4,117.1,31.1c8.4-1.8,15.9-5.3,22.7-10.5c2.9-2.2,0.7-10.6-3.2-7.6c-34.5,26.4-78.8,0-112.4-13.8
				c-19.6-8.1-39.9-12.3-61.1-12.2c-22.3,0-44.4,4-66.2,8.4c-43.4,8.9-86.3,17.7-130.9,16.2c-22.1-0.7-44.2-3.8-65.5-10
				c-20.6-6-39.7-16-60.3-22c-42.6-12.4-89.2-4.2-131.6,4.9c-45.2,9.7-89.6,23.4-135.5,29.3c-42.4,5.4-90.9,5.4-126.4-21.8
				c-14.4-11.1-27.1-24.6-43.2-33.4c-16.7-9.1-35.9-10.8-54.3-6.9c-19.5,4.2-37.5,13.4-54.4,23.7c-17.2,10.4-33.1,23.1-51.1,32.1
				c-17.5,8.8-38.9,14.8-57.4,5.2C47,385.4,39,369.9,39.3,354.9c0.1-7.5,2.5-14.6,6.8-20.7C48.2,331,44.8,323.4,41.7,327.9
				L41.7,327.9z"/>
		</g>
	</g>
</g>
<g id="Layer_3">
</g>
</svg>
