<?xml version="1.0" encoding="UTF-8"?>
<svg id="Layer_2" data-name="Layer 2" xmlns="http://www.w3.org/2000/svg" xmlns:xlink="http://www.w3.org/1999/xlink" viewBox="0 0 686.06 619.15">
  <defs>
    <style>
      .cls-1 {
        fill: none;
      }

      .cls-2 {
        fill: url(#linear-gradient);
      }

      .cls-3 {
        clip-path: url(#clippath);
      }

      .cls-4 {
        fill: url(#linear-gradient-3);
      }

      .cls-5 {
        fill: url(#linear-gradient-2);
      }
    </style>
    <linearGradient id="linear-gradient" x1="138.42" y1="310.02" x2="686.06" y2="310.02" gradientUnits="userSpaceOnUse">
      <stop offset="0" stop-color="#e8a3ce"/>
      <stop offset="1" stop-color="#ea5781"/>
    </linearGradient>
    <linearGradient id="linear-gradient-2" x1="549.3" y1="309.57" x2="0" y2="309.57" xlink:href="#linear-gradient"/>
    <clipPath id="clippath">
      <path class="cls-1" d="m136.42-.77v621.56h551.64V-.77H136.42Zm357.49,527.98l-.17-.16-10.92-38.95c-27.06,38.99-95.62,122.82-189.09,131.03l-33.25-.02c-44.29-3.32-77-19.02-97.38-46.8-19.6-26.71-28.04-64.88-25.09-113.47,2.25-37.14,11.17-80.7,26.52-129.48,2.54-8.07,5.33-16.33,8.28-24.53l.87-.51v259.71c0,18.34,14.86,33.21,33.2,33.21l84.96.02s16.87-.24,37.1-18.86c6.39,2.64,13.04,3.99,19.78,3.99,2.5,0,5.05-.18,7.59-.55,47.3-6.74,100.52-80.05,121.48-111.71L356.52,37.76c-.73.57-1.42,1.08-2.07,1.57-4.03,3.02-6.98,5.25-13.81,14.48-2.95-3.67-5.88-6.91-8.75-9.78,10.29-11.43,17.53-18.7,19.92-21.07l-29.87-20.91.45-1.42c240.82,7.85,226.75,309.17,226.75,309.17,0,0,5.89,126.21-55.23,217.4Z"/>
    </clipPath>
    <linearGradient id="linear-gradient-3" x1="278.72" y1="314.24" x2="361.99" y2="314.24" xlink:href="#linear-gradient"/>
  </defs>
  <g id="Layer_1-2" data-name="Layer 1">
    <g>
      <g>
        <path class="cls-2" d="m686.06,604.02h-169.69l-33.17-118.24c-28.5,41.54-102.76,133.02-204.3,133.02-175.61,0-151.23-168.94-113.42-289.13C222.19,149.35,353.37,22.84,353.37,22.84l-30.85-21.6h150.7c13.26,0,27.57,16.45,31.14,29.22l153.87,552.39,27.83,21.17Zm-207.19-133.7L357.08,36.05c-10.2,8.13-10.31,4.57-44.01,57.32-114.62,179.41-67.62,505.33,43.37,489.48,47.42-6.76,99.94-78.5,122.43-112.53Z"/>
        <path class="cls-5" d="m549.14,309.81s14.45,309.34-236.41,309.34l-312.73-.16,21.36-21.75V22.18L0,0l312.73.47c250.86,0,236.41,309.34,236.41,309.34Zm-152,0c0-285.97-105.31-287.47-105.31-287.47h-84.95c-18.34,0-33.21,14.87-33.21,33.21v508.49c0,18.34,14.86,33.21,33.2,33.21l84.96.02s105.31-1.49,105.31-287.47Z"/>
        <g class="cls-3">
          <path class="cls-2" d="m686.06,604.02h-169.69l-33.17-118.24c-28.5,41.54-102.76,133.02-204.3,133.02-175.61,0-151.23-168.94-113.42-289.13C222.19,149.35,353.37,22.84,353.37,22.84l-30.85-21.6h150.7c13.26,0,27.57,16.45,31.14,29.22l153.87,552.39,27.83,21.17Zm-207.19-133.7L357.08,36.05c-10.2,8.13-10.31,4.57-44.01,57.32-114.62,179.41-67.62,505.33,43.37,489.48,47.42-6.76,99.94-78.5,122.43-112.53Z"/>
        </g>
      </g>
      <path class="cls-4" d="m281.75,325.67c2.28-1.77,4.81-3.04,7.09-4.56,5.32-3.8,5.57-9.88.51-13.43-3.29-2.53-6.84-4.81-9.88-7.6-2.03-1.77,1.01-10.13,3.55-11.15,7.35-2.28,13.68-.25,20.27,3.29,5.07,2.79,6.33,1.77,7.6-4.56.76-4.31.76-8.36,2.03-12.41.76-3.04,3.8-3.8,6.59-3.8,3.29-.25,6.08.25,7.1,3.29,1.77,5.07,2.79,10.64,4.31,15.96,1.27,4.05,3.04,3.8,6.34,1.27,4.56-3.55,9.88-5.07,15.96-4.31,4.81.76,7.85,3.29,8.61,7.6.51,3.29-.25,5.83-3.04,7.6-2.28,1.52-4.81,2.79-7.1,4.31-5.07,3.8-5.07,9.88.25,13.68,2.28,1.52,4.81,2.79,7.1,4.31,2.79,1.77,3.29,4.56,2.79,7.6-1.01,4.81-4.05,7.1-8.61,7.6-6.08,1.01-11.15-1.27-15.71-4.56-3.55-2.53-5.57-2.53-6.34,1.27-1.52,5.32-2.03,10.89-3.55,16.21-1.01,3.29-3.8,3.8-6.84,3.8-3.29,0-6.08-.25-7.1-3.55-1.52-5.32-2.53-10.64-3.8-16.21-1.02-3.8-2.79-3.55-6.34-1.01-4.56,3.29-9.88,5.07-15.71,4.31-4.31-.51-7.85-3.04-8.87-7.35-.76-3.29.25-5.83,2.79-7.6Z"/>
    </g>
  </g>
</svg>