<?xml version="1.0" encoding="UTF-8"?>
<svg id="Layer_2" data-name="Layer 2" xmlns="http://www.w3.org/2000/svg" viewBox="0 0 1106.32 468.69">
  <defs>
    <style>
      .cls-1 {
        fill: #ea5781;
      }
    </style>
  </defs>
  <g id="Layer_1-2" data-name="Layer 1">
    <path class="cls-1" d="m10.21,21.09l-6.72-6.98,98.38.15c78.91,0,74.37,97.31,74.37,97.31,0,0,4.55,97.31-74.37,97.31l-98.38-.05,6.72-6.84m118.21-90.42c0-89.96-33.13-90.43-33.13-90.43h-26.72c-5.77,0-10.45,4.68-10.45,10.45v159.95c0,5.77,4.67,10.45,10.44,10.45h26.73s33.13-.46,33.13-90.42Z"/>
    <path class="cls-1" d="m242.43,197.35l-54.19,8.8,5.57-6.42c.65-.74,1-1.69,1-2.68v-.57s.15-124.68.15-124.68l-6.72-6.98h60.76l-6.13,6.98"/>
    <path class="cls-1" d="m327.71,261.75c-69.41,4.87-70.42-20.31-70.46-28.29-.05-9.56,5.64-22.71,21.14-27.49,0,0-20.67,22.71,13.62,25.5,34.29,2.79,88.68-5.53,97.23-16.33s-5.88-13.11-34.64-6.31c-46.34,10.96-78.41-2.03-85.77-20.57-4.91-12.36,1.01-25.48,13.28-32.76-12.71-9.36-20.79-23.28-20.79-38.86,0-28.17,26.36-51,58.87-51,.23,0,.46.03.7.03,2.28-7.67,10.69-30.76,31.46-38.94l18.79,26.46s-25.35-2.78-42.93,12.98c28.71,3.4,50.85,24.67,50.85,50.48,0,28.17-26.36,51-58.87,51-10.6,0-20.52-2.46-29.12-6.71-.65,1.13-1.15,2.45-1.42,4-1.88,11.16,23.49,17.53,46.5,12.75,23.02-4.78,48.38-9.43,58.25,6.37,9.86,15.81,10,72.31-66.7,77.69Zm-23.59-144.08c10.38,23.76,25.99,42.56,34.86,42s7.66-20.28-2.72-44.04c-10.38-23.76-25.99-42.56-34.86-41.99-8.88.56-7.66,20.28,2.72,44.03Z"/>
    <path class="cls-1" d="m412.99,198.98l-.32-127-6.89-7.15h62.28l-6.28,7.15c0,42.28.28,83.78.28,126.06,0,1.77,3.22,6.22,6,6.95-16.26-1.72-38.81-4.28-55.07-6Z"/>
    <path class="cls-1" d="m567.18,206.87s-17.2,4.67-32.64,4.67c-19.59,0-50.67-6.81-50.67-60.01l-.2-76.46h-3.27v-6.84h3.25l-.11-41.36,48.24-5.77v47.13h30.48v6.84h-30.48v97.73c0,31.76,34.78,21.03,34.78,21.03l.62,13.04Z"/>
    <path class="cls-1" d="m704.99,208.84h-54.48v-17.9c-6.92,9.52-19.79,21.92-39.78,21.34-26.94-.79-33.9-14.72-33.9-34.46,0-49.16,45.6-49.94,57.69-63.56,22.24-25.05,13.5-40.55,13.5-40.55-8.7.45-5.04,34.37-37.28,34.37s-39.8-14.48-35.08-39.93c0,0,17.96,12.76,36.79,10.33s31.78-14.33,53.09-12.45c20.17,1.78,33.44,9.55,33.44,67.95v68l6.02,6.84h0Zm-54.48-24.83v-81.55c-8.62,20.97-25.38,28-25.38,69.41,0,17.54,8.52,29.53,15.62,23.9,3.94-3.12,7.21-7.52,9.76-11.76Z"/>
    <path class="cls-1" d="m723.41,201.98V28.07l-6.72-6.98,54.63-13.15v194.04l6.13,6.84h-60.76l6.72-6.84Z"/>
    <path class="cls-1" d="m176.9,408.82h-54.82l-10.71-38.19c-9.21,13.42-33.19,42.97-65.99,42.97-56.73,0-48.85-54.57-36.64-93.4,18.32-58.25,60.7-99.11,60.7-99.11l-9.97-6.98h48.68c4.28,0,8.91,5.31,10.06,9.44l49.71,178.44,8.99,6.84Zm-66.93-43.19l-39.34-140.28c-3.3,2.63-3.33,1.48-14.22,18.51-37.03,57.95-21.84,163.23,14.01,158.11,15.32-2.18,32.28-25.36,39.55-36.35Z"/>
    <path class="cls-1" d="m194.96,402.43c0-9.89-.21-142.62-.28-175.66,0-4.09-6.43-5.7-6.44-6.31l54.34-8.06.29,190.03,6.13,6.84h-60.76l6.72-6.84Z"/>
    <path class="cls-1" d="m391.6,369.6c-4.82,16.83-11.45,42.05-54.12,42.05-56.06,0-84.26-27.35-84.26-74.31,0-62.27,51.47-69.19,66.41-69.19,21.29,0,19.93,10.11,44.04,10.11,16.26,0,27.57-10.11,27.57-10.11,5.26,24.24-6.27,44-35.08,39.93-20.78-2.93-20.26-46.12-37.64-23.11-12.74,16.87-19.73,117.29,20.22,117.29s50.47-25.36,52.87-32.66Zm.56-1.95s-.16.73-.56,1.95c.19-.66.38-1.32.56-1.95Z"/>
    <path class="cls-1" d="m461.18,285.58c1.89-3.35,5.84-9.25,13-13.49,5.48-3.25,10.43-4.15,13.15-4.54,55.74-8.09,75.38,32.7,62.96,70.5-10.04,30.56-11.66,53.43-11.76,64.1l5.99,6.69h-60.74l6.72-6.84h.1c1.55-44.62,18.02-56.14,18.02-90.51,0-21.97-10.49-41.11-25.53-37.77-15.91,3.54-21.92,37.77-21.92,37.77v90.51l6.13,6.84h-60.76l6.72-6.84v-189.66c16.03,1.61,38.44,3.79,54.47,5.4-2.66,1.39-6.39,3.9-6.4,5.19-.06,21.51-.11,41.14-.17,62.65Z"/>
    <path class="cls-1" d="m641.05,362c-8.58,2.42-15.15,6.09-20.13,10.01,7.29,17.26,18.48,29.92,33.29,29.92,33.35,0,46.27-34.27,46.27-34.27-3.05,27.72-19.03,44-54.68,44-32.84,0-79.27-5.61-83.9-65.13-3.98-51.22,21.39-74.71,69.26-78.38,47.88-3.66,77.07,28.56,69.6,52.99s-29.64,32.41-59.71,40.87Zm13.62-29.12c6.58-21.4-15.5-70.46-33.35-52.33-13.28,13.49-13.56,55.54-2.39,86.39,14.27-12.24,29.64-14.21,35.74-34.06Z"/>
    <path class="cls-1" d="m946.14,338.04c-10.04,30.56-11.66,53.43-11.76,64.1l5.99,6.69h-60.74l6.72-6.84h.1c1.55-44.62,18.02-56.14,18.02-90.51,0-21.97-10.49-41.11-25.53-37.77-10.67,2.37-16.87,18.5-19.8,28.9,2.71,10.99,2.03,23.36-1.94,35.43-10.04,30.56-11.66,53.43-11.76,64.1l5.99,6.69h-60.74l6.72-6.84h.1c1.55-44.62,18.02-56.14,18.02-90.51,0-21.97-10.49-41.11-25.53-37.77-15.91,3.54-21.92,37.77-21.92,37.77v90.51l6.13,6.84h-60.76l6.72-6.84v-126.78l-6.72-6.98h50.92l3.71,6.98v10.38c4.92-8.43,12.97-16.12,26.15-18.04,31.07-4.51,50.9,6.17,60.24,23.05,4.5-10.2,12.93-20.76,28.69-23.05,55.74-8.09,75.38,32.7,62.96,70.5Z"/>
    <path class="cls-1" d="m413.26,33.28c1.4-1.09,2.95-1.86,4.35-2.8,3.26-2.33,3.42-6.06.31-8.23-2.02-1.55-4.19-2.95-6.06-4.66-1.24-1.09.62-6.21,2.17-6.83,4.5-1.4,8.39-.16,12.43,2.02,3.11,1.71,3.88,1.09,4.66-2.8.47-2.64.47-5.13,1.24-7.61.47-1.86,2.33-2.33,4.04-2.33,2.02-.16,3.73.16,4.35,2.02,1.09,3.11,1.71,6.52,2.64,9.79.78,2.49,1.86,2.33,3.88.78,2.8-2.17,6.06-3.11,9.79-2.64,2.95.47,4.82,2.02,5.28,4.66.31,2.02-.16,3.57-1.86,4.66-1.4.93-2.95,1.71-4.35,2.64-3.11,2.33-3.11,6.06.16,8.39,1.4.93,2.95,1.71,4.35,2.64,1.71,1.09,2.02,2.8,1.71,4.66-.62,2.95-2.49,4.35-5.28,4.66-3.73.62-6.83-.78-9.63-2.8-2.17-1.55-3.42-1.55-3.88.78-.93,3.26-1.24,6.68-2.17,9.94-.62,2.02-2.33,2.33-4.19,2.33-2.02,0-3.73-.16-4.35-2.17-.93-3.26-1.55-6.52-2.33-9.94-.62-2.33-1.71-2.17-3.88-.62-2.8,2.02-6.06,3.11-9.63,2.64-2.64-.31-4.82-1.86-5.44-4.5-.47-2.02.16-3.57,1.71-4.66Z"/>
    <path class="cls-1" d="m194.95,33.74c1.4-1.09,2.95-1.86,4.35-2.8,3.26-2.33,3.42-6.06.31-8.23-2.02-1.55-4.19-2.95-6.06-4.66-1.24-1.09.62-6.21,2.17-6.83,4.5-1.4,8.39-.16,12.43,2.02,3.11,1.71,3.88,1.09,4.66-2.8.47-2.64.47-5.13,1.24-7.61.47-1.86,2.33-2.33,4.04-2.33,2.02-.16,3.73.16,4.35,2.02,1.09,3.11,1.71,6.52,2.64,9.79.78,2.49,1.86,2.33,3.88.78,2.8-2.17,6.06-3.11,9.79-2.64,2.95.47,4.82,2.02,5.28,4.66.31,2.02-.16,3.57-1.86,4.66-1.4.93-2.95,1.71-4.35,2.64-3.11,2.33-3.11,6.06.16,8.39,1.4.93,2.95,1.71,4.35,2.64,1.71,1.09,2.02,2.8,1.71,4.66-.62,2.95-2.49,4.35-5.28,4.66-3.73.62-6.83-.78-9.63-2.8-2.17-1.55-3.42-1.55-3.88.78-.93,3.26-1.24,6.68-2.17,9.94-.62,2.02-2.33,2.33-4.19,2.33-2.02,0-3.73-.16-4.35-2.17-.93-3.26-1.55-6.52-2.33-9.94-.62-2.33-1.71-2.17-3.88-.62-2.8,2.02-6.06,3.11-9.63,2.64-2.64-.31-4.82-1.86-5.44-4.5-.47-2.02.16-3.57,1.71-4.66Z"/>
    <path class="cls-1" d="m969.14,174.4c-.18-1.28-.36-2.57-.54-3.86l.32,2.39c-3.89-28.95-4.77-58.29-2.59-87.42.62-8.25,1.48-16.48,2.59-24.69l-.32,2.39c.93-6.87,1.56-14.1,4.25-20.57l-.91,2.15c.72-1.68,1.58-3.27,2.68-4.73l-1.41,1.82c.69-.88,1.45-1.67,2.32-2.38l-1.82,1.41c.8-.61,1.65-1.12,2.57-1.52l-2.15.91c.83-.33,1.66-.56,2.54-.71l-2.39.32c1.22-.16,2.41-.14,3.63.01l-2.39-.32c3.74.56,7.35,2.06,10.81,3.52l-2.15-.91c4.93,2.1,9.69,4.64,13.95,7.91l-1.82-1.41c2.42,1.89,4.64,4,6.53,6.43l-1.41-1.82c1.25,1.66,2.32,3.43,3.15,5.34l-.91-2.15c.77,1.83,1.29,3.73,1.56,5.7l-.32-2.39c.22,1.83.22,3.65-.02,5.48l.32-2.39c-.29,2-.84,3.92-1.6,5.79l.91-2.15c-.96,2.24-2.2,4.31-3.67,6.24l1.41-1.82c-1.75,2.25-3.76,4.25-6,6.01l1.82-1.41c-3.15,2.42-6.65,4.29-10.29,5.83l2.15-.91c-7.68,3.19-15.89,4.98-23.96,6.89-8.78,2.09-17.62,3.97-26.57,5.18l2.39-.32c-10.34,1.37-20.86,1.82-31.23.45l2.39.32c-7.05-.97-13.97-2.78-20.55-5.52l2.15.91c-5.32-2.25-10.37-5.1-14.95-8.63l1.82,1.41c-3.64-2.84-6.92-6.07-9.76-9.71l1.41,1.82c-2.32-3.02-4.29-6.27-5.8-9.77l.91,2.15c-1.31-3.11-2.24-6.34-2.71-9.67l.32,2.39c-.34-2.62-.38-5.24-.06-7.87l-.32,2.39c.31-2.21.87-4.35,1.72-6.41l-.91,2.15c.79-1.83,1.78-3.53,3-5.11l-1.41,1.82c1.22-1.54,2.62-2.9,4.16-4.11l-1.82,1.41c1.84-1.4,3.83-2.54,5.95-3.45l-2.15.91c2.58-1.08,5.27-1.79,8.04-2.16l-2.39.32c2.8-.35,5.61-.34,8.4.02l-2.39-.32c2.61.37,5.13,1.07,7.57,2.07l-2.15-.91c2.97,1.26,5.73,2.9,8.29,4.86l-1.82-1.41c2.95,2.3,5.56,4.97,7.87,7.92l-1.41-1.82c2.93,3.8,5.31,7.97,7.19,12.38l-.91-2.15c2.71,6.49,4.26,13.38,5.2,20.33l-.32-2.39c1.33,10.13,1.4,20.39,1.64,30.59.23,9.65.36,19.31-.08,28.95-.25,5.41-.7,10.81-1.41,16.18l.32-2.39c-1.32,9.69-3.58,19.26-7.39,28.29l.91-2.15c-1.03,2.41-2.04,5.05-3.58,7.18l1.41-1.82c-.66.85-1.42,1.57-2.26,2.23l1.82-1.41c-1.2.88-2.49,1.58-3.86,2.16l2.15-.91c-1.36.54-2.75.98-4.19,1.24l2.39-.32c-.84.11-1.65.1-2.49,0l2.39.32c-.98-.16-1.91-.44-2.83-.8l2.15.91c-2.35-1-4.45-2.44-6.56-3.86-1.91-1.3-3.8-2.62-5.63-4.03l1.82,1.41c-3-2.33-5.84-4.87-8.18-7.87l1.41,1.82c-1.35-1.78-2.49-3.67-3.36-5.73l.91,2.15c-.69-1.71-1.17-3.46-1.42-5.29l.32,2.39c-.23-1.88-.21-3.76.04-5.64l-.32,2.39c.32-2.25.95-4.41,1.83-6.51l-.91,2.15c1.03-2.36,2.34-4.55,3.9-6.6l-1.41,1.82c1.83-2.36,3.93-4.46,6.29-6.29l-1.82,1.41c2.64-2.01,5.52-3.58,8.57-4.87l-2.15.91c5.19-2.14,10.67-3.35,16.22-4.1l-2.39.32c9.27-1.22,18.68-1.39,28.01-1.86,9.99-.5,19.99-1.07,29.98-1.48,5.54-.23,11.09-.26,16.6.47l-2.39-.32c4.26.6,8.4,1.71,12.37,3.37l-2.15-.91c3.67,1.57,7.12,3.56,10.3,5.98l-1.82-1.41c2.94,2.27,5.58,4.87,7.86,7.81l-1.41-1.82c1.95,2.55,3.58,5.31,4.86,8.25l-.91-2.15c1.21,2.89,2.03,5.9,2.47,9l-.32-2.39c.45,3.35.45,6.71.01,10.06l.32-2.39c-.43,3.08-1.24,6.08-2.43,8.95l.91-2.15c-1.08,2.51-2.44,4.87-4.11,7.04l1.41-1.82c-1.5,1.9-3.19,3.61-5.1,5.1l1.82-1.41c-2.06,1.57-4.29,2.86-6.66,3.89l2.15-.91c-2.62,1.1-5.35,1.84-8.16,2.25l2.39-.32c-2.82.37-5.64.39-8.46.05l2.39.32c-2.69-.36-5.3-1.06-7.8-2.1l2.15.91c-3.2-1.39-6.36-3.07-9.14-5.2l1.82,1.41c-1.43-1.12-2.73-2.37-3.85-3.8l1.41,1.82c-1.31-1.7-2.33-3.58-3.17-5.55l.91,2.15c-1.02-2.45-1.79-4.99-2.48-7.56-1.22-4.55-6.47-7.78-11.07-6.29s-7.59,6.2-6.29,11.07c1.87,6.95,4.51,13.91,9.74,19.07,2.52,2.48,5.53,4.55,8.62,6.24,3.72,2.03,7.67,3.85,11.83,4.75,9.41,2.03,18.99.77,27.61-3.45,7.62-3.73,14.04-10.49,17.44-18.25,2.05-4.66,3.24-9.13,3.85-14.18.52-4.31.19-8.53-.49-12.81-1.37-8.65-5.84-16.64-11.67-23.06s-13.55-11.15-21.73-14.25c-8.93-3.38-18.72-3.85-28.17-3.53-9.98.34-19.96.96-29.94,1.46-9.32.46-18.72.64-27.99,1.74-9.76,1.16-19.66,3.21-28.11,8.5-8.06,5.03-14.19,12.46-17.52,21.34s-2.18,18.92,2.8,26.8,12.12,12.94,19.47,17.89c5.02,3.37,10.48,5.93,16.67,5.09,5.22-.7,10.31-3.11,14.19-6.68s5.75-9.03,7.67-13.73c1.57-3.86,2.87-7.82,3.93-11.85,4.56-17.28,5.19-35.43,4.98-53.21-.1-8.81-.26-17.65-.66-26.45-.46-9.99-1.45-20.15-4.3-29.77-5.07-17.11-16.55-32.83-33.88-38.85-15.68-5.44-35.68.34-44.17,15.08-5.01,8.69-5.47,19.33-2.73,28.83,2.53,8.8,7.63,16.75,14.06,23.21,11.59,11.65,27.66,18.71,43.79,21.11,9.95,1.48,19.91,1.63,29.93.6,10.35-1.06,20.57-3,30.69-5.35,8.87-2.05,17.99-3.93,26.44-7.37,4.61-1.87,9.08-3.95,13.05-6.99,4.16-3.18,7.68-6.7,10.57-11.12,5.08-7.78,6.94-18.02,3.83-26.9-2.98-8.52-9.03-14.9-16.33-19.97-2.95-2.04-6.1-3.78-9.35-5.29-4.07-1.89-8.32-3.73-12.65-4.95-5.76-1.63-11.96-1.47-17.24,1.57-3.83,2.21-6.95,5.83-8.91,9.76-4.13,8.28-4.95,17.56-6.16,26.6-1.3,9.73-2.28,19.5-2.91,29.3-1.25,19.59-1.13,39.27.37,58.85.77,10.11,1.95,20.17,3.39,30.21.3,2.07,2.42,4.37,4.14,5.38,1.93,1.13,4.77,1.61,6.94.91s4.28-2.05,5.38-4.14l.91-2.15c.43-1.6.43-3.19,0-4.79h0Z"/>
    <path class="cls-1" d="m1106.32,270.51l-6.73,6.84-.11.11v123.51c0,3.46-.26,6.84-.75,10.15-4.92,32.58-33.03,57.57-66.96,57.57,12.81-15.48,19.8-34.95,19.8-55.05v-19.15c-4.93,8.35-12.96,15.94-26.03,17.83-55.74,8.09-75.38-32.7-62.95-70.5,10.11-30.76,11.67-53.94,11.76-64.64l-6-6.68h60.76l-6.83,6.68c-1.5,44.89-18.03,56.76-18.03,91.21,0,21.97,11.43,40.12,27.56,37.77,14.64-2.13,19.08-31.43,19.77-36.83v-92.1l-6.01-6.71h60.76Z"/>
  </g>
</svg>