<?xml version="1.0" encoding="UTF-8"?>
<svg id="Layer_2" data-name="Layer 2" xmlns="http://www.w3.org/2000/svg" xmlns:xlink="http://www.w3.org/1999/xlink" viewBox="0 0 317.2 329.39">
  <defs>
    <style>
      .cls-1 {
        fill: url(#linear-gradient);
      }

      .cls-2 {
        fill: #872d4b;
      }

      .cls-3 {
        fill: url(#linear-gradient-3);
      }

      .cls-4 {
        fill: url(#linear-gradient-4);
      }

      .cls-5 {
        fill: url(#linear-gradient-2);
      }

      .cls-6 {
        fill: url(#linear-gradient-6);
      }

      .cls-7 {
        fill: url(#linear-gradient-5);
      }
    </style>
    <linearGradient id="linear-gradient" x1="238.05" y1="164.68" x2="79.18" y2="164.68" gradientUnits="userSpaceOnUse">
      <stop offset="0" stop-color="#974161"/>
      <stop offset="1" stop-color="#983454"/>
    </linearGradient>
    <linearGradient id="linear-gradient-2" x1="253.09" y1="164.7" x2="64.13" y2="164.7" gradientUnits="userSpaceOnUse">
      <stop offset="0" stop-color="#a75477"/>
      <stop offset="1" stop-color="#a83b5d"/>
    </linearGradient>
    <linearGradient id="linear-gradient-3" x1="268.13" y1="164.69" x2="49.09" y2="164.69" gradientUnits="userSpaceOnUse">
      <stop offset="0" stop-color="#b8688d"/>
      <stop offset="1" stop-color="#b94266"/>
    </linearGradient>
    <linearGradient id="linear-gradient-4" x1="283.18" y1="164.7" x2="34.04" y2="164.7" gradientUnits="userSpaceOnUse">
      <stop offset="0" stop-color="#c87ca2"/>
      <stop offset="1" stop-color="#c9496f"/>
    </linearGradient>
    <linearGradient id="linear-gradient-5" x1="298.22" y1="164.69" x2="19" y2="164.69" gradientUnits="userSpaceOnUse">
      <stop offset="0" stop-color="#d88fb8"/>
      <stop offset="1" stop-color="#d95078"/>
    </linearGradient>
    <linearGradient id="linear-gradient-6" x1="313.27" y1="164.7" x2="3.96" y2="164.7" gradientUnits="userSpaceOnUse">
      <stop offset="0" stop-color="#e8a3ce"/>
      <stop offset="1" stop-color="#ea5781"/>
    </linearGradient>
  </defs>
  <g id="Layer_1-2" data-name="Layer 1">
    <g>
      <path class="cls-2" d="m180.31,209.57c-.07-.48-.14-.97-.21-1.45,0-.04-.23-1.63-.09-.65s-.08-.62-.09-.65c-.05-.4-.1-.81-.16-1.21-.22-1.78-.43-3.55-.63-5.33-.38-3.48-.7-6.96-.96-10.45-.51-6.82-.81-13.65-.88-20.48-.14-13.83.62-27.68,2.29-41.41.1-.81.2-1.62.3-2.42.03-.25.22-1.89.04-.34.04-.32.09-.65.13-.97.25-1.77.51-3.54.78-5.31.4-2.53.85-5.05,1.68-7.47.09-.27.19-.53.29-.79.41-1.17-.63,1.31-.09.2.24-.49.47-.98.74-1.45s.63-.87.86-1.33c-.59,1.16-.71.85-.36.49.28-.3.54-.6.85-.87.14-.13.32-.25.46-.39-1.05,1.11-.76.57-.23.25.17-.1.35-.19.53-.29.98-.57-1.42.41-.3.15.22-.05.56-.1.76-.2.44-.22-1.34-.06-.05.03.38.03.78.03,1.16.04.46.04.31.02-.44-.06.31.06.61.12.92.2,1.41.34,2.77.85,4.13,1.36.55.21,1.09.42,1.63.64,1.2.48-1.32-.58-.13-.06.33.14.65.29.98.43,2.27,1.03,4.49,2.2,6.59,3.57.54.35,1.07.72,1.6,1.1.23.17.46.37.7.52-1.42-.87-.48-.37-.13-.08.96.8,1.87,1.65,2.71,2.57.37.4.68.9,1.08,1.26-.06-.06-.87-1.22-.34-.43.18.27.38.53.55.81.29.45.57.92.82,1.4.13.24.24.48.36.72.65,1.25-.39-1.17-.04-.09s.51,2.12.83,3.16c-.44-1.45-.13-1.01-.08-.43.02.3.04.59.05.89,0,.38,0,.76-.02,1.14l-.02.38c-.06.66-.03.5.09-.47-.23.52-.23,1.27-.38,1.84-.16.61-.37,1.2-.58,1.79-.46,1.26.62-1.24,0-.04-.11.23-.22.46-.34.68-.35.68-.75,1.33-1.17,1.97-.05.07-.63.96-.67.94-.05-.02.83-1,.22-.3-.47.54-.93,1.07-1.42,1.58-.45.46-.92.9-1.41,1.33-.24.21-.49.41-.74.62-.91.78,1.07-.77-.17.11s-2.52,1.64-3.85,2.32c-.65.33-1.31.64-1.96.94-.98.46.08-.01.23-.09-.51.26-1.09.44-1.63.64-5.98,2.23-12.32,3.57-18.52,5.01-3.34.77-6.68,1.5-10.05,2.13-1.68.31-3.36.6-5.05.86-.4.06-.8.12-1.21.18-.26.04-1.87.32-.34.05-.87.15-1.77.22-2.66.31-3.46.37-6.93.58-10.41.58-1.62,0-3.24-.05-4.85-.14-1.49-.09-3.1-.48-4.58-.42,1.47-.05.81.11.27.03-.31-.05-.63-.1-.94-.15-.63-.1-1.25-.21-1.88-.34-1.38-.27-2.74-.58-4.1-.94-1.23-.33-2.45-.69-3.66-1.09-.66-.22-1.32-.45-1.98-.7-.3-.11-.59-.22-.89-.34-.18-.07-1.69-.57-.69-.28s-.17-.08-.33-.15c-.29-.13-.58-.26-.86-.4-.63-.3-1.25-.6-1.87-.92-1.23-.64-2.43-1.33-3.6-2.06-1.06-.67-2.08-1.39-3.09-2.13-.85-.62.3.18.32.25-.06-.19-.71-.57-.87-.71-.57-.48-1.14-.97-1.68-1.48-.91-.85-1.79-1.73-2.62-2.66-.42-.46-.82-.94-1.22-1.42l-.24-.29c-.39-.5-.31-.39.25.32,0-.2-.56-.76-.67-.91-.76-1.07-1.46-2.17-2.08-3.32-.32-.59-.63-1.19-.91-1.8l-.17-.37c-.26-.6-.22-.49.13.31-.22-.19-.33-.84-.43-1.14-.48-1.33-.86-2.69-1.13-4.08-.02-.1-.15-.98-.18-.99l.1.8c-.03-.26-.06-.53-.09-.79-.07-.72-.1-1.45-.1-2.17s.06-1.44.11-2.16c.07-.89.18.29-.06.43.1-.06.19-1.01.22-1.15.14-.64.32-1.26.53-1.88-.02.05.24-.74.27-.74-.36.82-.41.94-.14.35.11-.24.23-.48.35-.71.26-.49.54-.96.84-1.42.12-.18.25-.36.37-.54.67-1-.95,1.08-.14.19s1.71-1.63,2.56-2.47c-1.31,1.29-.1.11.37-.19s.93-.57,1.41-.82,1.01-.44,1.48-.71c-1.46.84-.69.29-.21.11.31-.11.62-.22.94-.32,1.06-.34,2.14-.56,3.23-.78,1.23-.24-1.52.14-.27.03.28-.02.55-.06.83-.08.61-.05,1.23-.07,1.84-.07s1.23.03,1.84.07c.27.02.56.09.83.08-1.67.04-.84-.12-.27-.03,1.2.21,2.39.51,3.54.91.22.08.44.16.66.24,1.25.46-1.26-.61-.06-.03.56.27,1.11.53,1.66.82,1.19.64,2.31,1.39,3.42,2.17.85.6-.31-.18-.34-.26.07.2.69.56.85.71.47.4.92.82,1.37,1.25.98.95,1.91,1.96,2.77,3.01l.24.29c.39.5.31.39-.25-.33,0,.09.43.58.44.6.37.51.72,1.02,1.06,1.55.75,1.16,1.45,2.35,2.08,3.58.29.56.56,1.12.83,1.69.13.27.26.81.46,1.03-.69-.74-.38-.91-.1-.22.58,1.45,1.08,2.94,1.52,4.44s.84,3.13,1.17,4.71c.16.76.3,1.51.43,2.27.05.3.1.61.15.91s.37,2.38.12.7c.49,3.22.67,6.5.83,9.74.59,12.24.93,24.64.23,36.88-.17,2.99-.43,5.97-.79,8.94-.01.11-.2,1.51-.06.47s-.05.35-.07.46c-.1.7-.21,1.39-.33,2.09-.25,1.52-.54,3.04-.87,4.55-.63,2.93-1.41,5.82-2.37,8.66-.47,1.38-.98,2.74-1.52,4.09-.16.39-.16.91.12-.28-.09.38-.35.79-.51,1.14-.35.76-.71,1.51-1.08,2.25-.13.25-.25.5-.38.74-.31.57-.85.84.17-.07-.17.15-.31.36-.47.52-.38.38-1.18.74.12,0-.53.31-1.02.69-1.57.98-.26.14-1.18.33-.3.18.99-.18-.44.15-.67.23-.17.06-1.66.34-1.71.46.06-.13,1.36-.22.13-.09-.76.08,1.38.43.15.01-.3-.1-.98-.15-1.21-.38.05.05,1.27.65.24.07-.77-.44-1.53-.86-2.28-1.34-1.1-.71-2.18-1.46-3.26-2.21-.53-.37-1.05-.75-1.57-1.13-.18-.13-.86-.49-.93-.7.7.55.8.62.3.22l-.3-.24c-1.04-.85-2.05-1.74-2.99-2.69-.49-.49-.96-1-1.4-1.53-.16-.19-.31-.4-.48-.58,1.15,1.19.21.25-.06-.14-.38-.56-.74-1.14-1.05-1.74-.12-.22-.22-.44-.33-.66-.6-1.18.43,1.32.02.06-.19-.59-.4-1.17-.55-1.78-.06-.24-.11-.47-.16-.71-.05-.24-.09-.47-.12-.71.13,1,.16,1.18.1.53-.03-.59-.06-1.18-.03-1.78,0-.24.02-.47.04-.71l.03-.35c.07-.65.05-.47-.07.54.22-.46.24-1.24.38-1.75.19-.7.43-1.37.67-2.06.42-1.18-.49,1.01-.11.26.14-.27.26-.55.4-.82.28-.55.58-1.08.91-1.6s.68-1.03,1.04-1.54c.77-1.09-.89,1.05-.02.04.24-.28.48-.57.73-.85.84-.94,1.77-1.76,2.7-2.59.99-.89-1.12.78-.04.02.25-.18.5-.36.76-.54.56-.38,1.14-.74,1.73-1.08.67-.38,1.36-.74,2.06-1.07.31-.15.65-.35.98-.45-1.51.43-.15.07.17-.04,1.48-.56,3-1.03,4.53-1.41,1.4-.36,2.83-.65,4.25-.89.43-.07,2.74-.51,1-.17.85-.17,1.76-.21,2.62-.3,6.5-.64,13.05-.81,19.56-1.13,7.05-.35,14.09-.75,21.14-1.04,3.36-.14,6.74-.2,10.09.08.4.03.8.07,1.19.11.36.04,1.47.07.07,0,.71.04,1.46.23,2.15.37,1.34.27,2.66.63,3.96,1.05.59.19,1.18.4,1.76.63.37.14,1.48.73-.05-.04.22.11.46.2.68.3,1.24.57,2.45,1.21,3.62,1.92.58.35,1.16.72,1.72,1.11.26.18.51.35.76.54.14.1,1.15.7.28.2s.11.1.26.23c.28.24.56.48.84.73.55.49,1.09,1,1.6,1.53.43.44.85.89,1.25,1.36.34.39,1.39,2.02.45.51.71,1.15,1.54,2.21,2.2,3.41.3.54.58,1.09.84,1.65.06.14.6,1.25.14.28s.03.12.09.29c.46,1.24.82,2.51,1.09,3.8.11.52.18,2.46.14.54.01.59.13,1.2.17,1.79.08,1.32.07,2.64-.04,3.96-.03.34-.12.73-.11,1.07-.06-1.31.16-1.03.07-.53-.11.59-.21,1.18-.34,1.76-.31,1.34-.74,2.63-1.22,3.91-.29.78.66-1.4.11-.29-.13.27-.25.54-.39.8-.29.58-.61,1.15-.95,1.71-.31.51-.65.99-.98,1.48-.56.82.2-.31.29-.37-.34.22-.65.78-.92,1.08-.4.44-.82.87-1.26,1.27-.36.33-1.98,1.48-.47.48-1.13.75-2.2,1.51-3.42,2.13-.27.14-.55.26-.83.4-.75.38,1.44-.54.25-.1-.58.21-1.15.42-1.73.6s-1.18.34-1.77.47c-.36.08-.72.15-1.08.22l-.36.06c-.65.1-.48.08.5-.06-.56-.07-1.25.12-1.83.15-.61.03-1.22.03-1.83,0-.55-.02-1.3-.24-1.83-.13l.87.12c-.24-.03-.48-.07-.72-.12-.36-.06-.72-.14-1.08-.22-.6-.14-1.19-.29-1.77-.48-.35-.11-.7-.23-1.04-.36-.17-.06-1.3-.38-.3-.11s-.09-.06-.28-.15c-.32-.15-.64-.31-.95-.47-.54-.27-1.08-.56-1.61-.85-.9-.5-1.79-1.05-2.63-1.65-1.21-.87,1.07.91-.06-.05-.39-.33-.77-.68-1.13-1.05-.29-.3-.56-.62-.84-.94-.56-.64.49.59.47.62.01-.02-.41-.57-.44-.62-.49-.73-.92-1.51-1.3-2.3-.12-.25-.22-.52-.35-.77.01.02.59,1.5.27.62-.18-.48-.36-.96-.53-1.44-.41-1.2-.76-2.43-1.09-3.66-.82-3.03-4.31-5.18-7.38-4.19s-5.06,4.13-4.19,7.38c1.37,5.09,3.27,10.17,7.08,13.96s9.6,6.88,14.89,8.08c13,2.96,27.4-3.12,33.08-15.48,2.88-6.25,3.74-12.89,2.73-19.69-.94-6.37-4.01-12.17-8.2-17s-9.89-8.44-15.91-10.83c-6.59-2.62-13.82-3.08-20.84-2.88-7.53.22-15.05.71-22.57,1.09-7.12.35-14.29.49-21.37,1.3s-14.66,2.34-21,6.2c-5.94,3.62-10.46,9.05-12.98,15.51s-1.77,13.77,1.79,19.6,9,9.71,14.46,13.38c3.32,2.23,7.1,4.28,11.24,3.92s7.91-2.1,10.91-4.73c2.82-2.48,4.2-6.32,5.6-9.7,1.22-2.95,2.24-5.98,3.07-9.06,3.48-12.94,3.97-26.55,3.83-39.88-.07-6.61-.2-13.23-.48-19.83-.32-7.46-1.03-15.05-3.11-22.25-3.66-12.71-12-24.34-24.74-29.02-11.41-4.18-25.79-.13-32.39,10.28-7.88,12.42-1.86,28.45,7.42,38.2,8.52,8.95,20.62,14.36,32.72,16.26,15.21,2.39,30.48.03,45.35-3.39,13.73-3.16,29.18-6.21,37.57-18.74,3.77-5.64,5.18-13.03,3.04-19.55-2.03-6.18-6.4-10.85-11.59-14.56-4.81-3.44-10.51-5.99-16.14-7.75-4.28-1.33-8.61-1.35-12.66.66-2.79,1.39-5.09,4.03-6.56,6.73-3.08,5.63-3.73,12.13-4.59,18.38-1.05,7.71-1.88,15.44-2.39,23.21-.98,14.86-.91,29.79.21,44.64.58,7.68,1.46,15.33,2.56,22.95.2,1.38,1.61,2.92,2.76,3.59,1.29.75,3.18,1.07,4.62.6s2.85-1.37,3.59-2.76c.81-1.52.85-2.93.6-4.62h0Z"/>
      <path class="cls-1" d="m184.14,220.77c-.15-1.04-.29-2.09-.44-3.13-.1-.7.04.34.05.39-.04-.24-.06-.48-.1-.72-.08-.64-.17-1.29-.25-1.93-.26-2.09-.51-4.19-.74-6.28-.47-4.27-.87-8.56-1.19-12.84-.65-8.57-1.03-17.17-1.12-25.77-.18-17.28.78-34.57,2.88-51.73.12-.97.24-1.93.37-2.9.03-.24.06-.48.09-.72.15-1.14,0-.06-.02.15.06-.56.15-1.13.23-1.69.3-2.17.63-4.34.97-6.5.48-3.07,1.05-6.12,2.08-9.07.11-.32.23-.63.35-.94.06-.15.14-.31.18-.46.01-.06-.57,1.23-.28.67.35-.68.65-1.37,1.03-2.03.34-.59.81-1.12,1.12-1.72.02-.04-.88,1.02-.46.61.11-.11.2-.24.3-.35.27-.3.55-.59.85-.87.11-.1.24-.19.34-.3.37-.43-.66.48-.63.47.26-.14.49-.35.74-.51.29-.18.64-.31.92-.51.46-.32-.76.3-.74.3.19-.04.39-.15.58-.21.33-.11.76-.13,1.06-.28.53-.26-.55.18-.51.05.01-.04.64-.04.7-.04.47-.02.93.04,1.39.03.86,0-1.05-.23-.2-.04.31.07.62.12.92.19,1.86.42,3.66,1.08,5.44,1.75.71.27,1.42.54,2.12.83.16.07.33.14.49.2.61.25-.67-.28-.62-.26.43.2.87.38,1.31.57,2.88,1.3,5.69,2.78,8.35,4.5.64.42,1.28.85,1.9,1.3.28.2.56.43.85.62.04.03-1.03-.81-.52-.4.22.18.45.36.68.54,1.14.94,2.23,1.95,3.24,3.02.49.53.93,1.11,1.43,1.64.43.45-.45-.6-.43-.56.08.14.2.26.29.4.25.36.51.71.74,1.08.36.55.69,1.11,1,1.68.18.33.35.67.51,1.01.07.15.13.3.2.44.33.64-.44-1.23-.23-.54s.48,1.33.67,2.01c.2.74.25,1.54.48,2.26.02.06-.15-1.42-.11-.76.01.17.04.34.05.51.03.35.05.71.06,1.07.03.88-.16,1.79-.11,2.66,0,.03.22-1.32.09-.66-.04.18-.06.37-.1.56-.08.43-.18.86-.29,1.29-.22.86-.53,1.68-.81,2.52-.2.62.25-.57.25-.56-.09.16-.16.35-.23.52-.16.35-.33.69-.5,1.03-.41.79-.87,1.57-1.36,2.31-.25.38-.51.74-.77,1.11-.64.9.7-.84,0,.01-.58.7-1.18,1.38-1.81,2.03-.54.56-1.11,1.09-1.69,1.61-.34.3-.68.59-1.04.88-.15.12-.31.23-.45.36.22-.21.93-.69.29-.24-1.56,1.1-3.17,2.1-4.86,2.99-.83.44-1.67.85-2.53,1.23-.2.09-.4.17-.59.26-.61.29.41-.17.44-.18-.45.07-.98.4-1.41.56-7.45,2.88-15.39,4.55-23.15,6.36-4.2.98-8.41,1.9-12.64,2.69-2.15.41-4.31.78-6.48,1.11-.48.07-.96.15-1.44.22-.32.05-.64.09-.96.14-.7.1.34-.04.39-.05-1.11.19-2.25.29-3.37.41-8.24.9-16.53,1.04-24.77.1-1.13-.13,1.22.18.08.01-.38-.06-.76-.11-1.13-.17-.88-.14-1.76-.29-2.64-.46-1.69-.33-3.37-.71-5.04-1.14-3.29-.86-6.41-2.05-9.59-3.23-.03,0,1.16.51.56.23-.17-.08-.35-.15-.52-.23-.41-.18-.81-.36-1.21-.55-.74-.35-1.48-.71-2.21-1.09-1.51-.78-2.99-1.61-4.44-2.51s-2.73-1.78-4.04-2.75c-1.18-.88.7.57-.12-.09-.29-.24-.58-.47-.87-.71-.67-.56-1.33-1.13-1.97-1.72-1.2-1.09-2.34-2.24-3.42-3.45-.54-.6-1.07-1.22-1.58-1.85-.12-.15-.24-.29-.35-.44-.64-.79.18.22.25.32-.23-.37-.53-.71-.78-1.06-1.03-1.44-1.98-2.94-2.82-4.5-.39-.72-.75-1.44-1.09-2.18-.11-.23-.2-.54-.33-.74,0,0,.45,1.12.21.49-.17-.45-.35-.88-.51-1.33-.62-1.72-1.11-3.48-1.46-5.27-.08-.4-.13-.79-.21-1.19-.13-.67.08.61.08.6,0-.19-.05-.4-.07-.6-.09-.92-.15-1.85-.15-2.78,0-.86.03-1.71.11-2.57.02-.2.04-.39.06-.59.06-.68-.09.64-.08.62.16-.48.18-1.05.29-1.54.17-.77.38-1.53.63-2.27.06-.19.64-1.63.25-.76s.24-.5.36-.73c.33-.66.7-1.3,1.1-1.92.18-.27.37-.54.55-.81.73-1.06-.79.9.06-.07.94-1.07,1.96-1.98,3-2.94.45-.42-.63.47-.58.44.18-.1.35-.26.52-.38.26-.19.53-.37.8-.55.64-.42,1.29-.8,1.96-1.16.29-.15.58-.3.88-.44.22-.11,1.49-.66.48-.24s.13-.04.35-.13c.36-.14.72-.26,1.09-.38,1.42-.47,2.88-.82,4.35-1.06.16-.03.33-.04.49-.08.08-.02-1.43.17-.77.1.39-.04.78-.09,1.16-.12.72-.06,1.45-.09,2.17-.09s1.45.02,2.17.06c.33.02.67.05,1,.08.21.02.45.07.66.07-.18,0-1.43-.22-.6-.07,1.42.25,2.83.56,4.21,1.01.38.12.75.25,1.12.39.21.08,1.39.56.5.18s.46.22.64.3c.39.19.78.38,1.16.58,1.48.77,2.89,1.66,4.24,2.64.15.11.3.22.45.33.53.38-.5-.39-.48-.37.27.25.58.47.86.7.67.56,1.31,1.14,1.94,1.74,1.22,1.16,2.36,2.4,3.43,3.7.14.17.92,1.17.35.42s.19.26.33.44c.52.71,1.02,1.43,1.5,2.17.93,1.43,1.79,2.9,2.58,4.41.35.67.68,1.35,1,2.04.19.4.36.81.55,1.2.28.6-.24-.59-.23-.57.09.23.19.46.29.7.71,1.77,1.33,3.58,1.87,5.4s1.05,3.85,1.47,5.81c.21.98.4,1.96.57,2.94.07.42.74,3,.5,3.19,0,0-.15-1.17-.06-.45.03.23.06.46.09.69.06.46.11.92.16,1.38.12,1.07.22,2.15.32,3.23.18,2.08.31,4.17.42,6.26.39,7.74.51,15.5.63,23.24s.11,15.21-.33,22.81c-.22,3.77-.54,7.54-1,11.3-.03.21-.06.42-.08.63-.08.69.08-.54.08-.54-.08.49-.14.98-.21,1.47-.14.98-.3,1.95-.46,2.93-.31,1.8-.65,3.6-1.04,5.38-.79,3.61-1.76,7.18-2.95,10.68-.6,1.78-1.28,3.52-1.98,5.26-.25.63.2-.47.2-.47-.1.17-.17.39-.25.57-.2.45-.39.89-.6,1.33-.38.82-.77,1.63-1.18,2.44-.21.41-.41.83-.64,1.23-.08.14-.19.28-.27.43-.27.52.42-.52.43-.53-.26.21-.46.53-.7.77-.17.17-.35.31-.52.48-.57.55.14-.17.37-.27-.69.29-1.35.88-2.03,1.23-.21.11-1.35.61-.45.24s-.4.14-.65.22c-.72.25-1.49.37-2.2.62-.6.21.64-.13.59-.05-.04.06-.85.03-.84.03-.2.01-.86-.12-.03.04.91.17-.06-.03-.23-.07-.41-.1-.81-.26-1.22-.36-.62-.15.39.13.43.21-.06-.09-.64-.3-.79-.37-.92-.46-1.8-1-2.67-1.55-1.44-.93-2.85-1.9-4.25-2.88-.68-.48-1.36-.97-2.04-1.46-.31-.23-.62-.46-.93-.69-.52-.39.46.34.45.35-.08.04-.69-.54-.75-.6-1.29-1.04-2.53-2.13-3.7-3.31-.58-.58-1.13-1.17-1.67-1.79-.24-.27-.45-.62-.72-.86-.02-.02.75,1.01.37.48-.18-.25-.37-.5-.54-.75-.42-.61-.82-1.23-1.19-1.87-.21-.37-.42-.76-.61-1.14-.08-.17-.16-.33-.24-.5-.36-.73.1.15.16.41-.18-.77-.56-1.52-.76-2.3-.09-.35-.18-.7-.25-1.06-.04-.18-.07-.35-.1-.53-.25-1.23.09,1.09.04.36s-.11-1.41-.11-2.13c0-.41.01-.83.04-1.24.02-.27.18-1.66.03-.61s.08-.39.12-.6c.07-.35.15-.7.23-1.04.2-.81.45-1.61.73-2.4.12-.34.28-.67.39-1.01.01-.03-.54,1.19-.24.6.08-.16.15-.33.23-.49.37-.77.77-1.52,1.21-2.26.41-.69.85-1.36,1.31-2.01.13-.18.88-1.19.31-.43s-.04.06.11-.12c.16-.19.32-.38.48-.57,1.06-1.22,2.21-2.37,3.44-3.42.26-.22.88-.54,1.01-.83,0,0-1,.73-.48.37.15-.11.3-.22.45-.33.7-.5,1.42-.98,2.16-1.42s1.52-.86,2.3-1.25c.39-.19.77-.38,1.17-.56.2-.09.39-.18.59-.27.7-.32.07-.1-.25.1.73-.46,1.8-.7,2.62-.98.95-.32,1.91-.62,2.88-.88,1.81-.5,3.64-.91,5.48-1.24.93-.17,1.86-.31,2.79-.46.16-.02.91-.11.07-.01-.89.11.06,0,.28-.03.51-.06,1.01-.12,1.52-.18,8.17-.9,16.42-1.08,24.62-1.49,8.77-.44,17.54-.92,26.31-1.3,4.24-.19,8.49-.29,12.72.02.89.06,2.27-.05,3.1.3-.03-.01-1.12-.17-.41-.05.24.04.47.07.71.11.56.09,1.12.19,1.67.3,1.58.32,3.14.72,4.67,1.21.77.24,1.53.51,2.29.79.35.13.69.27,1.04.41.74.28-1.12-.5-.4-.17.23.1.45.2.68.3,1.47.67,2.9,1.41,4.29,2.24s2.77,1.86,4.15,2.8c.02.02-.98-.79-.48-.37.14.12.29.23.43.35.33.27.66.55.99.84.6.53,1.19,1.07,1.76,1.63s1.12,1.14,1.66,1.73c.29.32.57.64.85.97.16.19,1.03,1.29.45.54s.17.24.3.42c.25.35.5.7.74,1.06.48.71.93,1.44,1.36,2.19.37.64.71,1.29,1.04,1.96.19.39.36.78.55,1.17.29.59-.26-.64-.25-.6.07.23.18.45.27.67.58,1.52,1.05,3.08,1.4,4.66.16.71.27,1.42.4,2.13.14.78-.15-1.31-.06-.52.02.18.04.36.06.54.05.42.08.84.11,1.26.11,1.62.12,3.25,0,4.88-.03.36-.06.72-.09,1.08-.02.18-.04.36-.06.54-.06.67.11-.76.1-.7-.17.82-.27,1.66-.45,2.48-.35,1.58-.81,3.13-1.39,4.63-.06.16-.15.33-.2.5-.01.04.53-1.21.26-.61-.17.38-.34.76-.52,1.13-.34.69-.7,1.38-1.09,2.04s-.81,1.32-1.25,1.95c-.2.29-.44.57-.63.86.06-.09.92-1.13.27-.37-.15.18-.3.37-.46.55-1.04,1.2-2.18,2.27-3.39,3.29-.81.67.97-.71-.12.07-.3.21-.61.42-.92.63-.72.47-1.47.91-2.24,1.31-.33.17-.66.34-.99.5-.17.08-.34.16-.5.24-.91.44.3-.13.41-.16-.76.24-1.5.58-2.27.82-1.61.51-3.24.77-4.88,1.12-.04,0,1.35-.15.67-.1-.18.01-.37.04-.55.06-.43.04-.86.07-1.3.09-.8.04-1.61.05-2.41.02s-1.6-.11-2.4-.17c-.67-.05.71.11.68.1-.2-.07-.54-.08-.73-.12-.43-.07-.85-.16-1.27-.25-.78-.17-1.56-.38-2.33-.62-.35-.11-.71-.23-1.05-.35-.47-.17-1.77-.9-.29-.08-1.33-.73-2.75-1.3-4.08-2.04-1.18-.65-2.34-1.36-3.44-2.15-.21-.15-1.04-.78-.17-.11s.07.04-.13-.12c-.47-.39-.91-.8-1.34-1.24-.39-.39-.76-.8-1.12-1.23-.75-.91.33.4.31.41,0,0-.51-.71-.52-.73-.62-.92-1.17-1.9-1.65-2.91-.12-.26-.24-.52-.36-.77-.39-.84.55,1.4.1.21-.24-.63-.48-1.27-.7-1.91-.49-1.44-.91-2.91-1.31-4.39-.81-3.03-4.31-5.18-7.38-4.19s-5.06,4.13-4.19,7.38c1.64,6.11,3.9,12.26,8.51,16.78,2.22,2.19,4.88,3.98,7.61,5.46,3.31,1.8,6.82,3.4,10.52,4.18,15.84,3.37,32.92-4.33,39.42-19.49,3.22-7.51,4.09-15.47,2.71-23.53-1.31-7.58-5.19-14.57-10.35-20.2s-12.05-9.92-19.32-12.63c-8.15-3.04-17-3.43-25.61-3.13-9.33.33-18.65.9-27.98,1.36-8.8.44-17.67.59-26.42,1.67-8.67,1.06-17.51,2.97-24.98,7.74-6.9,4.41-12.3,10.88-15.1,18.6-2.77,7.63-1.8,16.31,2.59,23.14,4.34,6.74,10.95,11.47,17.51,15.86,4.46,2.99,9.25,5.14,14.73,4.14,4.04-.74,8.21-2.79,11.15-5.67,3.12-3.06,4.73-7.67,6.34-11.64,1.49-3.67,2.71-7.45,3.71-11.28,4.16-15.97,4.69-32.69,4.48-49.11-.1-8.23-.24-16.47-.63-24.69-.42-9.04-1.34-18.22-3.93-26.93-4.5-15.16-14.7-29.44-30.17-34.68-13.58-4.61-30.79.18-38.28,12.86-8.98,15.2-1.44,34.21,9.96,45.77,10.56,10.71,25.29,17.08,40.04,19.26,18.62,2.76,37.3-.25,55.48-4.47,16.47-3.82,35.25-7.47,45.21-22.63,4.44-6.75,6.08-15.5,3.41-23.24s-7.86-12.91-14.13-17.28c-2.74-1.91-5.67-3.53-8.69-4.94-3.61-1.69-7.37-3.29-11.21-4.4-4.8-1.39-9.92-1.36-14.36,1.14-3.24,1.83-5.81,4.9-7.47,8.19-3.62,7.17-4.35,15.33-5.4,23.17-1.25,9.27-2.19,18.58-2.79,27.92-1.17,18.3-1.06,36.68.34,54.96.71,9.27,1.77,18.51,3.09,27.72.2,1.38,1.61,2.92,2.76,3.59,1.29.75,3.18,1.07,4.62.6s2.85-1.37,3.59-2.76c.81-1.52.85-2.93.6-4.62h0Z"/>
      <path class="cls-5" d="m187.98,231.96c-.18-1.28-.41-2.57-.54-3.86.02.21.17,1.29.02.15-.03-.24-.06-.48-.1-.72-.1-.72-.19-1.45-.28-2.18-.33-2.58-.63-5.16-.91-7.75-.57-5.17-1.04-10.35-1.44-15.53-.78-10.29-1.22-20.6-1.32-30.92-.2-20.72.98-41.45,3.52-62.01.15-1.21.3-2.42.46-3.63.03-.2.17-1.24.05-.41s.03-.21.06-.41c.1-.72.2-1.45.3-2.17.36-2.57.75-5.15,1.16-7.71.57-3.6,1.3-7.18,2.56-10.61.07-.2.69-1.72.25-.69-.41.95.12-.25.24-.5.39-.83.83-1.65,1.31-2.44.2-.32.4-.63.61-.93.86-1.24-.63.69,0-.03.58-.65,1.17-1.27,1.82-1.85.92-.82-.97.63-.14.11.34-.21.67-.44,1.03-.63.18-.1.36-.18.54-.28.44-.24.73-.06-.59.23.4-.09.79-.29,1.18-.4.33-.09,1.07-.4,1.38-.3l-.7.11.45-.03c.3.01.6-.02.9-.01s.6.03.9.04c.92.04-.13.19-.25-.05.08.17,1.58.31,1.78.36,2.19.53,4.33,1.31,6.43,2.12.88.33,1.75.68,2.62,1.04.97.4-1.19-.51.04.02.49.21.98.43,1.47.65,3.48,1.58,6.88,3.38,10.08,5.48.74.49,1.47.99,2.18,1.51.16.12,1.5,1.13.66.48-.8-.61.52.43.75.62,1.4,1.17,2.73,2.41,3.96,3.76.57.62,1.08,1.27,1.63,1.9.41.48-.46-.61-.43-.56.09.18.27.36.39.53.29.4.56.81.83,1.22.44.69.85,1.39,1.23,2.11.2.38.39.77.58,1.17.09.19.16.41.27.59-.19-.35-.5-1.3-.18-.38.27.77.54,1.54.75,2.33.11.43.21.85.3,1.28.06.27.32,1.97.17.85s.03.5.05.72c.03.43.05.85.06,1.28,0,.51,0,1.02-.03,1.53-.01.25-.03.51-.05.76-.02.23-.15,1.36-.02.33s-.09.45-.14.7c-.1.49-.21.99-.34,1.47-.28,1.04-.65,2.04-1.01,3.06-.22.62.25-.57.24-.56-.12.21-.21.47-.32.69-.22.46-.45.92-.69,1.37-.48.91-1.01,1.79-1.58,2.64-.29.43-.59.85-.89,1.27-.65.92.23-.28.23-.29.01.06-.5.62-.49.61-.66.8-1.36,1.58-2.08,2.32s-1.49,1.46-2.27,2.14c-.34.3-.69.59-1.04.87-.28.23-.85.37-.16.13.4-.31.4-.31-.01,0l-.31.23c-1.83,1.32-3.77,2.48-5.77,3.52-.95.5-1.92.97-2.91,1.41-.26.12-.53.23-.79.35-.76.35,1.02-.41.24-.1-.6.24-1.2.49-1.81.72-8.91,3.41-18.39,5.41-27.67,7.57-5.06,1.18-10.14,2.28-15.24,3.23-2.55.48-5.1.91-7.66,1.31-.56.09-1.12.17-1.68.25-.32.05-.64.09-.96.14-1.14.16-.05.01.15-.02-1.27.2-2.56.32-3.85.47-9.92,1.09-19.91,1.27-29.83.1-.41-.05-1.02-.28.46.06-.24-.06-.51-.07-.76-.11-.44-.06-.88-.13-1.32-.2-1.07-.17-2.14-.36-3.2-.57-2.01-.39-4-.85-5.97-1.37s-3.93-1.11-5.87-1.77c-.91-.31-1.8-.63-2.7-.97-.42-.16-.83-.32-1.25-.48-.24-.09-.47-.19-.71-.28-.1-.04-1.28-.53-.34-.14s-.67-.3-.86-.38c-.41-.18-.81-.37-1.21-.55-.97-.46-1.94-.93-2.89-1.43-1.79-.93-3.54-1.93-5.25-3s-3.34-2.22-4.95-3.41c-.63-.47.94.74.32.25-.15-.12-.29-.23-.44-.35-.39-.31-.78-.63-1.16-.95-.81-.68-1.61-1.38-2.39-2.1-1.42-1.31-2.78-2.69-4.06-4.14-.67-.75-1.31-1.51-1.94-2.29-.16-.19-.3-.4-.47-.59.08.09.85,1.14.25.32-.3-.41-.6-.81-.89-1.22-1.21-1.71-2.33-3.48-3.31-5.33-.51-.95-.98-1.92-1.42-2.9-.08-.18-.16-.37-.24-.56-.33-.74.42,1.08.14.31-.21-.57-.44-1.13-.64-1.7-.72-2.02-1.29-4.1-1.69-6.21-.1-.51-.13-1.07-.27-1.58,0-.02.15,1.29.08.61-.03-.26-.06-.53-.09-.79-.11-1.11-.17-2.23-.17-3.35,0-.98.04-1.96.13-2.94.02-.26.06-.52.08-.78.08-.82-.21,1.24-.05.43.11-.57.2-1.15.33-1.72.21-.95.48-1.89.79-2.82.14-.41.39-.86.47-1.29-.21,1.1-.36.8-.14.34.17-.36.33-.72.51-1.07.39-.76.81-1.5,1.27-2.22.21-.32.42-.64.65-.95.12-.17.28-.35.39-.53-.8,1.33-.53.67-.23.32,1.15-1.34,2.39-2.49,3.71-3.65.56-.49-1.05.77-.44.34.18-.13.35-.26.53-.39.31-.22.62-.44.94-.65.78-.51,1.58-.99,2.4-1.42.73-.39,1.51-.68,2.23-1.08-1.58.88-.38.16.1-.02s.94-.34,1.41-.5c1.64-.54,3.33-.95,5.04-1.23.21-.04.45-.05.66-.1-1.52.38-1.04.13-.59.08s.89-.1,1.34-.13c.9-.07,1.79-.11,2.69-.12s1.8.02,2.69.09c.45.03.9.07,1.34.12.17.02.33.04.5.06.76.08-1.48-.23-.43-.05,1.77.3,3.51.7,5.21,1.26.44.14.87.3,1.3.46.45.17,1.82.89.29.09.88.45,1.79.82,2.67,1.28,1.74.92,3.41,1.96,5,3.12.38.28,1.51,1.32.26.17.32.29.67.54,1,.82.8.67,1.58,1.37,2.34,2.1,1.43,1.37,2.78,2.83,4.05,4.37.28.34.55.68.82,1.02.49.61-.72-.96-.25-.32.15.2.3.4.45.6.59.81,1.16,1.63,1.71,2.47,1.1,1.68,2.12,3.41,3.05,5.19.44.83.86,1.68,1.26,2.53.21.45.42.91.62,1.37.08.18.18.51.3.69-.29-.41-.46-1.1-.1-.22.84,2.09,1.58,4.22,2.22,6.38,1.4,4.68,2.35,9.47,3.06,14.3.17,1.16.03-.07-.03-.21.09.21.09.67.12.92.08.62.15,1.24.22,1.85.14,1.24.26,2.48.36,3.72.21,2.49.37,4.98.5,7.47.47,9.37.61,18.77.76,28.15s.11,18.25-.43,27.36c-.27,4.49-.66,8.97-1.23,13.44-.04.28-.06.57-.11.84.28-1.46.09-.67.04-.33-.08.56-.16,1.12-.24,1.68-.17,1.12-.35,2.23-.54,3.35-.38,2.22-.82,4.43-1.31,6.62-.97,4.36-2.17,8.67-3.63,12.89-.34.98-.7,1.96-1.07,2.94-.2.52-.4,1.04-.61,1.55-.15.37-.74,2.27-.27.68-.6,2.06-1.86,4.14-2.85,6.04-.2.38-.4.75-.63,1.11-.76,1.18.83-.89-.13.16-.28.31-.57.6-.88.88-.05.04-.51.37-.55.47.69-.52.85-.65.49-.39-.15.11-.3.21-.45.31-.77.52-1.59.97-2.43,1.37-.16.08-.35.14-.51.24,1.1-.68.83-.33.4-.17-.52.19-1.04.38-1.56.55-.85.27-1.82.35-2.65.66,1.06-.39.86-.08.33-.11-.27-.01-.56-.02-.84-.02-1.13-.02.26-.05.35.05-.09-.1-.84-.2-1.03-.25-.27-.08-.54-.16-.81-.26-.2-.07-1.07-.42-.29-.09s-.09-.05-.28-.15-.39-.2-.59-.3c-1.11-.58-2.18-1.24-3.22-1.93-1.76-1.15-3.49-2.34-5.21-3.55-.8-.56-1.59-1.13-2.37-1.72-.21-.16-.41-.31-.62-.47-.62-.46-.14.18.29.22-.35-.04-1.09-.87-1.37-1.09-1.54-1.26-3.02-2.59-4.4-4.02-.7-.72-1.38-1.47-2.03-2.25-.15-.19-.3-.42-.48-.58.09.08.85,1.14.25.32-.29-.4-.59-.81-.86-1.22-.55-.83-1.07-1.68-1.53-2.56-.2-.39-.4-.78-.58-1.17-.1-.21-.48-.96-.07-.14.44.88-.03-.12-.11-.33-.34-.93-.63-1.89-.85-2.86-.09-.41-.18-.83-.25-1.24-.04-.25-.2-1.06-.02-.09.19,1.03.01-.03,0-.27-.07-.89-.09-1.78-.06-2.67.02-.47.05-.95.09-1.42.02-.24.05-.47.07-.71.08-.76-.25,1.42-.04.36.38-1.9.87-3.72,1.55-5.53.18-.48.47-.53-.19.42.12-.17.21-.48.3-.67.18-.39.37-.77.56-1.15.47-.93.99-1.84,1.55-2.72.5-.79,1.04-1.54,1.58-2.3.45-.64-.75.93-.26.33.12-.14.23-.29.35-.44.4-.48.8-.96,1.22-1.42,1.3-1.44,2.71-2.78,4.21-4.01,1.14-.93-.92.66.26-.21.35-.26.7-.51,1.06-.76.87-.6,1.76-1.16,2.67-1.68s1.84-1,2.79-1.45c.52-.25,1.04-.48,1.56-.72.34-.16.84-.56-.25.1.29-.18.68-.27,1-.4,2.13-.83,4.32-1.52,6.53-2.09s4.48-1.05,6.75-1.44c1.07-.18,2.14-.38,3.22-.49-.16.02-1.4.17-.3.05.29-.03.58-.07.86-.1.58-.07,1.16-.13,1.73-.19,9.87-1.03,19.84-1.26,29.75-1.75,10.45-.52,20.9-1.12,31.36-1.54,5.11-.21,10.24-.29,15.34.16.56.05,1.11.1,1.67.17.31.03.64.05.95.11-1.32-.26-.47-.07-.17-.02,1.18.19,2.36.39,3.52.64,1.87.4,3.73.91,5.55,1.52.94.31,1.87.65,2.79,1.02.23.09.46.2.69.28-.11-.04-1.34-.58-.41-.17.45.2.91.4,1.35.61,1.79.84,3.54,1.78,5.23,2.82.84.52,1.67,1.06,2.48,1.62.35.25.71.5,1.05.75.2.15.39.3.59.44.6.44-1.02-.83-.19-.14,1.52,1.25,3,2.54,4.38,3.95.64.66,1.27,1.33,1.87,2.02.32.37.64.74.95,1.12.15.19.3.38.46.57.47.58-.9-1.22-.16-.19,1.15,1.6,2.23,3.22,3.18,4.94.45.81.86,1.63,1.25,2.47.18.38.34.78.52,1.16-.8-1.7.02.12.19.57.63,1.75,1.14,3.54,1.52,5.35.18.88.31,1.77.47,2.66-.33-1.86-.05-.29,0,.19.05.54.09,1.08.12,1.62.11,1.92.09,3.84-.07,5.75-.03.42-.08.83-.12,1.25-.1,1.02.06-.44.08-.53-.04.23-.07.47-.11.71-.16,1-.35,2-.59,2.99-.44,1.85-1.01,3.67-1.71,5.44-.49,1.24.42-.91-.02.04-.2.43-.4.86-.61,1.28-.42.85-.87,1.68-1.36,2.49s-1.01,1.6-1.56,2.37c-.14.19-.3.38-.42.57.05-.09.92-1.14.28-.37-.3.37-.6.73-.91,1.09-.63.72-1.29,1.4-1.98,2.06-.31.3-.63.59-.95.87s-1.09.7-1.28,1.07c.32-.6.89-.66.33-.26-.2.14-.4.29-.6.43-.4.28-.82.56-1.23.82-.83.53-1.69,1.02-2.57,1.47-.44.23-.88.44-1.33.65-.22.1-.47.19-.68.3-.03.02,1.2-.48.58-.24-.98.38-1.96.75-2.97,1.06-.89.27-1.78.51-2.69.71-.48.11-.97.21-1.46.3-.18.03-.37.07-.55.1-.6.1-1.34-.08.13,0-.89-.05-1.88.19-2.77.24-1.05.05-2.1.05-3.15,0-.93-.04-1.85-.13-2.77-.23-.68-.07.72.1.68.09-.23-.06-.49-.08-.73-.12-.61-.1-1.21-.22-1.81-.36-.9-.21-1.8-.45-2.68-.73-.41-.13-.82-.27-1.23-.42-.23-.08-.46-.18-.69-.26-1.2-.43.92.42.23.11-1.7-.79-3.37-1.6-5.01-2.5-1.4-.77-2.76-1.61-4.06-2.54-.15-.11-.3-.22-.45-.33-.51-.35.77.61.67.52-.27-.23-.56-.45-.83-.68-.56-.48-1.1-.98-1.62-1.5-.45-.45-.87-.93-1.28-1.42-.04-.05-.31-.4-.32-.4.02,0,.97,1.31.47.61-.17-.24-.35-.49-.52-.73-.78-1.14-1.45-2.35-2.04-3.6-.16-.34-.3-.7-.47-1.04-.05-.1.55,1.36.32.76-.07-.19-.15-.37-.22-.55-.29-.72-.55-1.45-.81-2.19-.61-1.77-1.12-3.57-1.61-5.38-.81-3.03-4.31-5.18-7.38-4.19s-5.06,4.13-4.19,7.38c1.91,7.13,4.52,14.33,9.92,19.59,2.57,2.51,5.63,4.56,8.78,6.28,3.89,2.11,8,3.98,12.36,4.9,9.46,1.99,19.27.68,27.9-3.67,7.89-3.97,14.29-10.92,17.77-19.02,3.71-8.64,4.73-17.86,3.17-27.12-1.5-8.89-5.99-17.09-12.04-23.7-6.13-6.71-14.01-11.61-22.48-14.79-9.64-3.62-20.09-4.1-30.28-3.75-11.02.38-22.03,1.06-33.04,1.61-10.34.51-20.76.72-31.05,1.89s-20.54,3.33-29.45,8.7c-8.22,4.96-14.66,12.53-18.1,21.48-3.42,8.91-2.43,19.05,2.67,27.1s12.89,13.53,20.6,18.69c5.07,3.4,10.5,5.94,16.73,4.82,4.65-.84,9.53-3.21,12.86-6.57,1.83-1.84,3-4.02,4.12-6.33,1.19-2.47,2.27-5,3.29-7.54,1.7-4.27,3.1-8.65,4.25-13.1,4.92-19.04,5.5-38.96,5.25-58.52-.13-9.8-.29-19.62-.76-29.4-.52-10.73-1.63-21.62-4.75-31.94-5.31-17.55-17.18-34.17-35.14-40.23-15.84-5.35-36.14.23-44.62,15.29-10.03,17.83-1.12,39.71,12.22,53.06,12.58,12.59,29.97,19.99,47.43,22.5,21.93,3.16,43.94-.44,65.32-5.4,19.3-4.48,41.54-8.69,53.23-26.47,5.16-7.84,7.06-17.95,3.93-26.94-2.95-8.47-9.17-14.91-16.42-19.94-3.29-2.28-6.81-4.21-10.44-5.9-4.16-1.94-8.5-3.77-12.92-5.05-5.44-1.57-11.26-1.61-16.29,1.25-3.72,2.11-6.62,5.63-8.52,9.42-4.36,8.69-5.15,18.7-6.42,28.19-1.44,10.79-2.51,21.63-3.2,32.5-1.38,21.81-1.23,43.72.44,65.51.84,10.91,2.08,21.77,3.64,32.6.2,1.38,1.61,2.92,2.76,3.59,1.29.75,3.18,1.07,4.62.6s2.85-1.37,3.59-2.76c.81-1.52.85-2.93.6-4.62h0Z"/>
      <path class="cls-3" d="m191.81,243.16c-.21-1.45-.41-2.9-.61-4.35-.22-1.58.12.89-.01-.1-.04-.32-.09-.64-.13-.97-.12-.89-.23-1.77-.34-2.66-.37-2.9-.71-5.81-1.03-8.72-.66-6.06-1.23-12.14-1.69-18.22-.91-12.08-1.43-24.2-1.53-36.31-.21-24.07,1.17-48.16,4.14-72.05.18-1.45.37-2.9.56-4.36.21-1.58-.12.89.01-.1.04-.32.09-.64.13-.97.12-.89.25-1.77.37-2.66.41-2.9.85-5.79,1.31-8.68.68-4.25,1.56-8.48,3.08-12.52.19-.5.97-1.91.08-.27.23-.43.41-.91.62-1.35.45-.92.94-1.82,1.49-2.69.25-.4.53-.79.79-1.18.29-.42.82-.76-.28.34.14-.14.27-.33.39-.48.63-.74,1.32-1.4,2.04-2.04.98-.86-1.17.79.11-.06.38-.25.76-.48,1.16-.7.22-.12.45-.23.68-.34.46-.24.69-.03-.59.24.5-.11.98-.35,1.48-.48.26-.07.52-.13.78-.18l.16-.03c.68-.12.6-.11-.24.02.36-.22,1.38-.07,1.81-.06.3,0,.6.02.9.04.1,0,1.54.24.56.04s.48.11.55.12c.45.09.9.19,1.34.31,2.46.62,4.86,1.5,7.24,2.41.99.38,1.97.77,2.95,1.17.15.06,1.26.51.27.11s.12.06.27.12c.55.24,1.09.48,1.64.73,4.03,1.83,7.96,3.93,11.66,6.37.89.59,1.76,1.19,2.62,1.82.19.14.38.28.57.42.8.58-.31-.24-.38-.3.47.42,1,.8,1.49,1.2,1.62,1.35,3.16,2.8,4.59,4.35.68.74,1.27,1.56,1.95,2.29-1.25-1.32-.15-.19.15.24.35.49.68.99,1.01,1.5.49.78.96,1.58,1.38,2.41.22.43.44.87.64,1.32.09.19.17.4.26.6-.81-1.6-.28-.65-.12-.22.35.92.65,1.86.89,2.81.13.48.24.96.34,1.45.06.27.11.55.15.82.09.5.02,1.53-.02-.26.02,1.06.2,2.12.2,3.18s-.33,2.34-.2,3.39c-.16-1.23.14-.96.02-.3-.05.31-.11.62-.17.92-.1.49-.21.98-.34,1.46-.32,1.22-.72,2.4-1.17,3.57-.37.99.1-.34.17-.39-.16.11-.3.67-.39.86-.24.51-.5,1.02-.76,1.53-.57,1.07-1.19,2.1-1.86,3.11-.32.48-.65.95-.99,1.42.03-.05-.44.62-.46.62.07.03.87-1.1.1-.16s-1.59,1.86-2.44,2.74c-.81.83-1.65,1.63-2.52,2.4-.43.38-.88.76-1.32,1.12-.09.07-.7.63-.75.6.08.05,1.17-.88.14-.13-2.1,1.54-4.33,2.9-6.64,4.12-1.15.61-2.32,1.18-3.51,1.73-.26.12-.53.24-.79.36-.07.03-1.39.6-.48.21s-.42.17-.49.2c-.4.16-.81.32-1.22.48-10.45,4.03-21.58,6.37-32.46,8.9-5.88,1.37-11.78,2.65-17.71,3.75-3.04.57-6.09,1.09-9.14,1.55-.64.1-1.29.19-1.93.28-.32.05-.64.09-.96.14-1.57.23.89-.11-.09.01-1.53.19-3.06.39-4.59.55-11.56,1.26-23.22,1.46-34.78.05-.87-.11,1.58.23.27.04-.25-.04-.5-.07-.76-.11-.57-.08-1.13-.17-1.7-.27-1.2-.2-2.39-.41-3.58-.65-2.32-.46-4.62-.99-6.91-1.6s-4.55-1.3-6.78-2.06c-1.09-.37-2.17-.76-3.24-1.17-.54-.2-1.07-.41-1.6-.63-.3-.12-.59-.24-.88-.36-1.09-.44,1.19.53.03.01-4.29-1.89-8.45-4.02-12.4-6.52-1.96-1.24-3.85-2.58-5.71-3.97-.68-.51,1.18.94.18.13-.19-.16-.39-.31-.59-.47-.39-.31-.77-.63-1.16-.95-.96-.8-1.89-1.63-2.8-2.48-1.69-1.57-3.3-3.23-4.83-4.97-.74-.85-1.47-1.71-2.17-2.59l-.12-.15c-.39-.5-.31-.39.25.32-.02-.13-.4-.53-.45-.6-.38-.5-.74-1.01-1.11-1.53-1.44-2.05-2.75-4.19-3.91-6.41-.53-1.02-1.03-2.06-1.49-3.11-.25-.56-.7-.77.05.12-.12-.15-.24-.6-.3-.75-.25-.63-.48-1.27-.71-1.91-.84-2.42-1.51-4.9-1.96-7.42-.04-.22-.12-1.54-.25-1.58.19.06.17,1.44.04.21-.04-.33-.07-.66-.1-.99-.1-1.19-.15-2.38-.14-3.57s.07-2.36.19-3.54c.02-.15.1-1.44.03-.37s.04-.2.07-.36c.11-.64.24-1.28.39-1.92.27-1.15.6-2.28.99-3.39.13-.37.27-1.23.57-1.47l-.29.71c.08-.18.16-.36.25-.54.17-.36.35-.72.53-1.07.46-.89.97-1.76,1.53-2.6.27-.41.56-.81.85-1.21.25-.35.68-.62-.34.43.22-.23.41-.51.62-.76,1.31-1.54,2.78-2.87,4.32-4.18.61-.52-1.26.92-.31.24.18-.13.35-.26.53-.38.4-.28.81-.56,1.22-.82.87-.56,1.77-1.09,2.69-1.57.44-.23.88-.45,1.32-.66s2.03-.78.23-.13c1.04-.37,2.06-.81,3.12-1.14,1.91-.61,3.87-1.07,5.85-1.39.19-.03,1.32-.18.2-.04s.01,0,.2-.02c.45-.05.89-.09,1.34-.13,1.12-.09,2.24-.13,3.36-.13,1.01,0,2.02.04,3.03.12.45.03.89.08,1.34.12.19.02,1.33.17.2.02s.13.03.37.07c2.04.34,4.05.83,6.01,1.49.49.17.98.34,1.47.53.44.17,2.06.99.47.17,1.05.53,2.14.98,3.18,1.53,2.02,1.07,3.95,2.29,5.8,3.63.2.15.4.29.6.44,1.03.75-.84-.68-.19-.15.43.35.87.7,1.29,1.05.95.8,1.87,1.63,2.76,2.49,1.61,1.56,3.13,3.21,4.56,4.94.2.24.4.48.59.73.35.44.42.98-.13-.18.2.43.62.82.9,1.2.74,1.01,1.46,2.05,2.14,3.1,1.24,1.9,2.38,3.87,3.43,5.88.52,1.01,1.03,2.02,1.5,3.05.27.57.52,1.15.77,1.72.14.32.4,1.05-.16-.39.14.35.29.7.43,1.05.97,2.44,1.82,4.93,2.57,7.44,1.63,5.49,2.7,11.09,3.54,16.75.14.96-.18-1.5,0,.02.04.31.08.61.12.92.08.69.16,1.39.24,2.08.16,1.47.3,2.93.43,4.4.25,2.94.43,5.89.58,8.84.53,10.82.7,21.67.87,32.5.16,10.64.12,21.29-.52,31.91-.32,5.28-.82,10.54-1.47,15.79-.18,1.42.15-1.04.02-.12-.05.35-.1.7-.15,1.05-.08.56-.16,1.12-.25,1.68-.21,1.4-.44,2.79-.69,4.19-.45,2.56-.96,5.12-1.54,7.66-1.14,5.04-2.54,10.02-4.25,14.9-.41,1.18-.85,2.36-1.3,3.52-.23.58-.46,1.17-.69,1.75-.1.26-.21.51-.32.77-.5,1.23.45-1.02-.05.1-1.07,2.42-2.15,4.84-3.41,7.17-.22.4-.47.78-.71,1.16-.63,1.01.75-.84.2-.26-.2.21-.38.44-.58.64-.33.34-.68.65-1.03.97-.73.66.26-.23.38-.26-.3.1-.62.45-.89.63-.92.61-1.89,1.15-2.89,1.62-.14.06-1.27.55-.3.15s-.17.06-.31.11c-.57.21-1.14.41-1.72.58-.45.14-.91.26-1.36.38-.28.07-.56.14-.84.2-1.17.25.05.21.16,0-.11.2-1.42,0-1.68,0-1.36-.01.97.25.14.02-.41-.11-.83-.18-1.23-.3-.44-.13-1.37-.67-1.82-.64.16-.01,1.24.58.24.07-.26-.13-.53-.26-.79-.39-1.31-.68-2.57-1.46-3.8-2.26-2.03-1.33-4.03-2.7-6.01-4.1-.95-.67-1.9-1.36-2.83-2.05-.33-.25-1.81-1.48-.48-.36-.49-.42-1.02-.8-1.51-1.21-1.88-1.54-3.69-3.16-5.38-4.91-.74-.77-1.46-1.56-2.15-2.38-.3-.35-1.3-1.85-.35-.4-.34-.52-.74-1-1.09-1.52-.63-.92-1.21-1.88-1.74-2.86-.26-.49-.52-.99-.75-1.5-.11-.24-.21-.66-.38-.85l.32.74c-.09-.23-.18-.47-.27-.7-.39-1.05-.72-2.12-.97-3.21-.11-.47-.21-.94-.29-1.42-.03-.18-.18-1.37-.06-.27s0-.03-.02-.27c-.1-1.06-.14-2.13-.12-3.2.01-.59.04-1.18.09-1.77.02-.24.05-.47.07-.71.12-1.3-.25,1.47-.03.19.37-2.18.93-4.32,1.71-6.39.09-.25.3-.58.33-.84,0,.1-.6,1.36-.18.43.23-.5.45-.99.7-1.48.52-1.04,1.08-2.06,1.69-3.05s1.2-1.87,1.85-2.77c.05-.07.42-.47.44-.6l-.48.62c.11-.15.23-.29.35-.44.39-.49.79-.96,1.2-1.43,1.52-1.74,3.17-3.35,4.94-4.84.24-.2.48-.4.72-.59.18-.14.81-.7.13-.11-.78.67.17-.11.29-.2.2-.15.4-.29.6-.43,1.01-.71,2.05-1.38,3.11-2s2.16-1.2,3.28-1.74c.52-.25,1.04-.5,1.57-.74.26-.12.53-.23.79-.35,1.23-.55-1,.38.16-.06,2.56-.98,5.13-1.87,7.78-2.58s5.21-1.26,7.84-1.72c1.22-.21,2.44-.4,3.67-.58,1.44-.22-1.01.12-.08,0,.36-.04.72-.09,1.09-.14.73-.09,1.45-.17,2.18-.25,11.41-1.22,22.94-1.48,34.4-2.05,12.26-.61,24.51-1.3,36.78-1.81,6-.25,12.01-.36,18,.17.73.06,1.45.14,2.17.22.31.04.65.06.96.12-1.36-.27-.26-.03.09.02,1.34.2,2.66.44,3.98.72,2.31.5,4.59,1.13,6.83,1.88,1.06.36,2.11.75,3.16,1.16.23.09.46.2.69.28-.11-.04-1.33-.58-.4-.17.57.25,1.14.51,1.7.77,2.14,1.01,4.22,2.14,6.23,3.38.95.59,1.88,1.21,2.8,1.85.41.28.81.57,1.21.87.13.1,1.03.89.28.2s.25.2.42.33c1.78,1.43,3.48,2.97,5.07,4.61.77.79,1.52,1.61,2.25,2.45.32.37.64.75.95,1.13.19.24.38.48.58.72.36.45-.85-1.13-.04-.04,1.36,1.83,2.59,3.75,3.68,5.75.53.98,1.04,1.97,1.5,2.98.1.22.2.45.3.67.53,1.14-.42-1.06-.11-.27.24.62.48,1.23.71,1.85.73,2.04,1.3,4.13,1.74,6.25.12.59.23,1.18.33,1.78.04.24.07.48.11.71.16,1.02-.06-.43-.07-.52.08,1.2.25,2.39.31,3.6.11,2.16.07,4.33-.12,6.49-.05.57-.2,1.22-.19,1.79,0-.09.23-1.54.07-.52-.04.24-.07.47-.11.71-.19,1.18-.43,2.36-.71,3.52-.52,2.15-1.23,4.23-2.02,6.29-.3.78.64-1.42.12-.28-.1.22-.19.43-.29.65-.22.49-.46.97-.7,1.44-.51,1-1.06,1.99-1.65,2.95-.56.91-1.15,1.8-1.78,2.66-.12.17-.32.38-.43.57.67-1.25.49-.63.17-.23-.37.46-.76.91-1.16,1.36-.72.8-1.47,1.57-2.25,2.31-.4.38-.82.75-1.24,1.11-.19.16-.38.32-.57.48-.19.16-.38.31-.58.47l.63-.48c-.42.13-.98.72-1.35.98-.46.32-.92.62-1.39.92-1.04.66-2.12,1.26-3.22,1.82-.44.22-.88.44-1.33.64-.16.07-1.28.47-.3.15s-.16.06-.31.12c-1.03.41-2.08.77-3.15,1.1s-2.14.61-3.23.84c-.6.13-1.21.25-1.82.36-.24.04-.49.08-.73.12-1.17.19,1.39-.14.13-.01-2.28.24-4.55.36-6.85.26-1.01-.05-2.14-.32-3.14-.26,1.41-.09.89.12.31.04-.3-.05-.61-.1-.91-.15-.61-.11-1.21-.23-1.81-.37-1.08-.25-2.15-.54-3.21-.88-.47-.15-.94-.31-1.4-.48-.29-.11-.58-.22-.87-.33-1.27-.5.59.28.07.03-1.95-.91-3.88-1.85-5.77-2.9-1.65-.92-3.26-1.91-4.79-3.02-.41-.3-1.38-1.18.12.11-.3-.26-.62-.5-.93-.76-.63-.53-1.23-1.09-1.81-1.68-.54-.54-1.05-1.11-1.53-1.7-.9-1.09.8,1.12.08.11-.22-.31-.45-.62-.67-.94-.9-1.33-1.68-2.74-2.36-4.19-.16-.34-.31-.69-.47-1.03-.45-1,.48,1.22.21.49-.09-.23-.19-.46-.28-.69-.34-.87-.66-1.75-.96-2.64-.68-2-1.26-4.03-1.81-6.06-.81-3.03-4.31-5.18-7.38-4.19s-5.06,4.13-4.19,7.38c2.17,8.11,5.12,16.31,11.25,22.31,2.94,2.88,6.44,5.22,10.04,7.18,4.48,2.43,9.19,4.57,14.2,5.61,10.66,2.23,21.76.76,31.5-4.11,9.07-4.53,16.37-12.43,20.4-21.71,4.28-9.85,5.42-20.49,3.61-31.06-1.75-10.19-6.91-19.59-13.88-27.14s-16.24-13.37-26.06-16.96c-11.23-4.1-23.35-4.55-35.18-4.11-12.75.47-25.5,1.24-38.24,1.87-12.04.6-24.17.83-36.15,2.25s-23.73,3.97-33.85,10.37c-9.11,5.75-16.35,14.33-20.06,24.47s-2.47,21.45,3.38,30.49c5.89,9.09,14.92,15.45,23.8,21.36,5.69,3.79,11.95,6.69,18.92,5.15,5.19-1.15,10.68-3.71,14.33-7.67,1.94-2.11,3.18-4.53,4.41-7.09,1.36-2.85,2.61-5.76,3.76-8.71,1.96-4.99,3.58-10.12,4.9-15.32,5.56-21.92,6.21-44.81,5.92-67.31-.15-11.4-.34-22.83-.89-34.22-.6-12.32-1.88-24.8-5.46-36.65-6.06-20.11-19.64-39.24-40.22-46.17-18.03-6.08-41.21.23-50.8,17.43-5.6,10.04-5.88,22.15-2.68,33.01,3.1,10.51,9.27,19.94,17.01,27.62,14.57,14.47,34.67,22.9,54.82,25.74,25.28,3.56,50.68-.65,75.32-6.38,22.18-5.15,48.04-9.99,61.31-30.6,5.74-8.93,7.81-20.32,4.19-30.46-3.41-9.53-10.46-16.79-18.66-22.46-3.84-2.65-7.95-4.9-12.18-6.86-4.82-2.24-9.86-4.37-14.99-5.8-6.08-1.7-12.69-1.7-18.21,1.67-4.16,2.53-7.34,6.52-9.43,10.87s-3.47,8.92-4.37,13.64c-1.17,6.15-1.95,12.38-2.78,18.58-1.66,12.5-2.89,25.05-3.68,37.63-1.59,25.32-1.41,50.76.54,76.06.97,12.54,2.39,25.03,4.18,37.48.2,1.38,1.61,2.92,2.76,3.59,1.29.75,3.18,1.07,4.62.6s2.85-1.37,3.59-2.76c.81-1.52.85-2.93.6-4.62h0Z"/>
      <path class="cls-4" d="m195.65,254.36c-.24-1.69-.48-3.38-.71-5.08-.05-.35-.21-1.48-.01-.1-.07-.48-.13-.97-.19-1.45-.12-.89-.23-1.78-.34-2.66-.44-3.47-.85-6.95-1.23-10.43-.74-6.8-1.37-13.6-1.89-20.42-1.04-13.8-1.63-27.63-1.75-41.46-.24-27.67,1.36-55.36,4.81-82.81.2-1.61.4-3.23.63-4.84-.19,1.38-.03.25.01-.1.06-.4.11-.81.17-1.21.13-.97.27-1.93.41-2.9.48-3.38,1-6.76,1.54-10.14.77-4.79,1.82-9.57,3.58-14.11.08-.21.16-.41.25-.62.46-1.16-.61,1.33-.08.21.23-.5.46-1,.7-1.49.53-1.06,1.1-2.09,1.75-3.08.29-.44.59-.86.89-1.29.65-.93-.8.92-.27.36.17-.19.33-.4.49-.59.73-.84,1.54-1.6,2.38-2.32s-1.22.84-.26.21c.17-.11.33-.23.5-.34.42-.27.85-.53,1.29-.76.26-.14.57-.24.81-.4-1.16.74-1.06.42-.59.25.59-.21,1.17-.41,1.78-.57.31-.08.62-.14.93-.21,1.45-.32-.93.02-.01,0,.76-.02,1.51-.09,2.27-.06.38.01.76.05,1.14.07,1.53.07-1.29-.28.22.02.83.17,1.66.32,2.48.53,2.92.74,5.77,1.8,8.59,2.88,1.1.42,2.19.87,3.28,1.31,1.15.47-1.05-.45-.28-.12.27.12.55.23.82.35.66.29,1.31.58,1.97.88,4.58,2.09,9.04,4.47,13.24,7.25,1.08.72,2.15,1.46,3.19,2.23.19.14.38.28.56.42,1.03.77-1.1-.88-.1-.08.54.44,1.09.87,1.62,1.32,1.83,1.54,3.57,3.2,5.17,4.97.37.41.74.84,1.1,1.26.28.34,1.42,1.96.31.34.69,1,1.43,1.95,2.07,2.98.58.92,1.12,1.87,1.62,2.84.25.48.48.97.71,1.47.2.45.39,1.42-.09-.23.09.31.24.61.35.91.4,1.08.74,2.18,1.02,3.29.13.54.26,1.08.36,1.62.05.27.1.55.15.82.04.22.07.44.1.66-.13-.98-.16-1.24-.1-.76.13,1.25.22,2.49.22,3.74,0,.63-.02,1.26-.06,1.89-.02.25-.04.5-.06.75-.02.25-.05.5-.08.75-.08.66-.06.5.07-.48-.25.49-.22,1.31-.34,1.85-.13.61-.28,1.22-.44,1.83-.36,1.34-.83,2.63-1.32,3.93-.46,1.21.46-.99.09-.21-.13.29-.26.58-.39.86-.27.57-.56,1.14-.86,1.7-.66,1.24-1.39,2.44-2.17,3.61-.36.53-.73,1.06-1.11,1.57-.23.31-1.1,1.22,0,.01-.17.19-.32.41-.48.6-.9,1.1-1.84,2.16-2.83,3.18s-1.93,1.91-2.95,2.8c-.53.47-1.08.92-1.63,1.37-.2.16-.41.31-.61.48,1.37-1.14-.02,0-.33.22-2.41,1.73-4.96,3.27-7.59,4.64-1.28.67-2.58,1.3-3.89,1.89-.3.14-2.48,1.16-.95.43-.78.37-1.61.66-2.42.97-11.97,4.61-24.72,7.29-37.19,10.18-6.66,1.54-13.34,2.99-20.07,4.25-3.43.64-6.88,1.23-10.33,1.75-.88.13-1.76.26-2.65.39-.32.05-.64.09-.96.13-1.63.23,1.3-.16-.33.04-1.77.22-3.53.44-5.3.63-6.74.72-13.52,1.14-20.31,1.15-3.39,0-6.79-.09-10.17-.31-1.64-.1-3.27-.23-4.91-.39-1.37-.13-2.79-.43-4.16-.48.11,0,1.5.21.46.06-.38-.06-.76-.11-1.13-.16-.63-.09-1.26-.19-1.89-.3-1.39-.23-2.77-.48-4.14-.76-2.63-.53-5.25-1.14-7.84-1.83s-5.16-1.48-7.7-2.35c-1.27-.43-2.53-.89-3.78-1.37-.59-.23-1.19-.46-1.78-.7-.3-.12-.59-.24-.88-.36-1.12-.45,1.26.54-.15-.06-4.93-2.13-9.71-4.63-14.24-7.51-2.23-1.42-4.34-2.98-6.48-4.52,1.49,1.08-.21-.18-.56-.45-.49-.39-.97-.79-1.45-1.19-1.05-.89-2.08-1.8-3.08-2.74-1.96-1.83-3.84-3.76-5.6-5.78-.87-.99-1.7-2.01-2.52-3.03-.65-.82.23.23.25.32-.05-.25-.52-.69-.68-.9-.45-.61-.89-1.22-1.32-1.84-1.59-2.28-3.04-4.66-4.32-7.13-.63-1.21-1.2-2.43-1.76-3.67-.58-1.3.5,1.26-.03-.07-.1-.25-.2-.5-.3-.76-.3-.76-.58-1.52-.84-2.3-.94-2.75-1.68-5.57-2.18-8.43-.06-.33-.11-.66-.16-.99-.23-1.35.12,1.1.02.2-.08-.73-.17-1.46-.22-2.19-.11-1.45-.16-2.91-.13-4.37.02-1.32.13-2.63.26-3.94.11-1.1,0,.36-.06.42.14-.15.15-.95.19-1.16.14-.77.3-1.54.48-2.31.31-1.28.68-2.53,1.13-3.77.13-.37.28-.74.42-1.11.31-.81-.22.14-.14.34-.11-.31.87-1.83,1.04-2.16.51-.98,1.08-1.92,1.69-2.84.3-.46.63-.9.94-1.34.71-1-.92,1.12-.14.18.21-.25.41-.51.62-.75.74-.87,1.52-1.69,2.34-2.48.43-.41.87-.81,1.32-1.21.16-.14.33-.28.49-.42s1.3-1.01.41-.35.03-.01.17-.12c.26-.19.53-.38.79-.57.45-.31.9-.61,1.36-.91,1.01-.65,2.06-1.24,3.12-1.79.49-.25.98-.49,1.48-.73.46-.22,2.25-.81.38-.19,1.15-.38,2.27-.88,3.43-1.25,2.23-.71,4.51-1.24,6.82-1.6.44-.07,1.63-.11-.27.03.22-.02.45-.06.67-.08.56-.06,1.11-.12,1.67-.16,1.23-.1,2.46-.14,3.7-.14s2.35.05,3.53.13c.61.05,1.23.11,1.84.18.4.04,1.11.21-.6-.09.44.08.89.13,1.33.2,2.31.39,4.59.96,6.81,1.71.55.19,1.1.39,1.65.6.29.11.58.23.87.34.8.31-1.4-.63-.23-.1,1.25.56,2.48,1.14,3.69,1.78,2.29,1.22,4.49,2.61,6.59,4.14.25.18.61.57.89.66-.79-.27-.82-.65-.33-.26.53.43,1.06.85,1.58,1.29,1.04.88,2.06,1.8,3.04,2.75,1.93,1.87,3.75,3.85,5.45,5.93.29.36,1.52,2.02.46.56.37.51.76,1,1.13,1.51.82,1.12,1.6,2.27,2.35,3.43,1.44,2.23,2.77,4.53,3.99,6.89.58,1.12,1.13,2.26,1.66,3.4.26.57.52,1.15.77,1.73l.15.35c.25.59.2.46-.16-.39.04.34.3.73.43,1.05,1.13,2.84,2.12,5.74,2.98,8.67,1.83,6.23,3.31,12.74,4.01,19.2-.18-1.68.1.83.14,1.16.09.77.18,1.54.26,2.3.18,1.69.34,3.39.49,5.09.27,3.25.48,6.5.64,9.75.61,12.42.81,24.89,1,37.32.18,12.23.13,24.47-.62,36.67-.38,6.09-.7,12.34-1.75,18.35.03-.15.2-1.41.04-.33-.06.42-.12.84-.18,1.26-.1.7-.21,1.4-.31,2.1-.24,1.54-.49,3.07-.77,4.6-.52,2.91-1.11,5.81-1.77,8.69-1.33,5.79-2.95,11.51-4.94,17.1-.49,1.38-1,2.75-1.54,4.11-.25.65-.51,1.29-.78,1.94-.1.25-.2.52-.32.77.75-1.56-.08.17-.22.49-1.16,2.65-2.36,5.33-3.78,7.84-.27.48-.71.95-.94,1.44.55-1.15.57-.72.16-.27-.2.22-.4.43-.61.64-.42.42-.93.77-1.33,1.2,1.03-1.11.48-.36.05-.06-.3.21-.61.42-.92.61-1.06.67-2.16,1.22-3.28,1.76-1.2.59,1.31-.5.06-.02-.23.09-.46.18-.69.26-.69.25-1.38.48-2.08.69-.57.17-1.14.32-1.72.45-.09.02-1.08.27-1.1.23.02.04,1.4-.11.12-.06-.35.02-.7.02-1.05,0l-.42-.02c-.67-.07-.56-.05.35.06-.31.22-1.91-.44-2.26-.55s-.68-.24-1.02-.35c-1.39-.46,1.15.59-.17-.07-.66-.33-1.32-.64-1.97-.99-1.42-.78-2.79-1.65-4.15-2.55-2.27-1.5-4.52-3.04-6.74-4.62-1.05-.75-2.1-1.51-3.13-2.28-.21-.16-.81-.47-.93-.7.04.07,1.14.89.3.23-.6-.48-1.21-.96-1.81-1.45-2.07-1.7-4.06-3.5-5.91-5.43-.96-.99-1.88-2.02-2.75-3.09-.16-.19-.3-.4-.47-.58,1.12,1.22.27.35.03.03-.44-.6-.87-1.21-1.28-1.83-.68-1.03-1.31-2.1-1.88-3.19-.29-.55-.54-1.11-.82-1.67-.56-1.15.4,1.03.09.23-.16-.41-.32-.81-.47-1.22-.42-1.16-.78-2.35-1.05-3.55-.14-.59-.25-1.17-.35-1.77s.07-1.43,0,.18c.01-.34-.08-.72-.11-1.06-.1-1.18-.13-2.36-.1-3.54.02-.59.05-1.18.1-1.77.03-.35.07-.7.11-1.06.12-1.24-.23,1.33-.02.19.46-2.53,1.08-5,2-7.4.1-.26.28-.56.33-.84-.27,1.42-.28.65-.03.1s.51-1.1.78-1.64c.6-1.2,1.26-2.37,1.97-3.52.65-1.05,1.34-2.07,2.07-3.06.09-.13.88-1.04.2-.28s.13-.15.22-.27c.47-.58.95-1.15,1.44-1.71,1.73-1.96,3.6-3.79,5.61-5.46.29-.24.58-.47.87-.71.42-.34.62-.17-.33.25.52-.23,1.02-.77,1.5-1.1,1.11-.78,2.24-1.52,3.41-2.21,1.23-.73,2.49-1.4,3.78-2.03.71-.35,1.43-.69,2.15-1.01.26-.12.53-.23.79-.35,1.13-.5-1.11.45.36-.14,2.87-1.15,5.8-2.11,8.78-2.91s5.89-1.43,8.88-1.95c1.43-.25,2.87-.47,4.3-.68s-1.37.17.14-.02c.29-.04.58-.07.87-.11.87-.11,1.74-.21,2.61-.3,13.13-1.42,26.4-1.71,39.58-2.37,14.05-.7,28.1-1.5,42.16-2.08,6.79-.28,13.6-.38,20.38.23.88.08,1.77.17,2.65.28.35.04,1.48.15.09,0,.48.05.96.14,1.44.21,1.5.24,2.99.51,4.46.84,2.55.56,5.06,1.27,7.53,2.12,1.18.4,2.34.84,3.5,1.3.14.06,1.27.57.32.12s.18.08.31.14c.68.3,1.36.61,2.04.93,2.36,1.12,4.65,2.38,6.86,3.75,1.11.69,2.19,1.41,3.26,2.16.51.36,1.01.72,1.5,1.09.24.18.48.41.74.56-1.43-.83-.27-.2.1.09,2.06,1.67,4.02,3.46,5.87,5.37.85.89,1.68,1.8,2.48,2.73.4.47.79.94,1.18,1.42.09.11.83,1.09.21.26s.31.42.42.57c1.53,2.08,2.92,4.26,4.16,6.53.59,1.08,1.14,2.19,1.66,3.31.14.31.26.71.45,1-.69-1.05-.36-.89-.18-.44.27.67.53,1.34.78,2.02.88,2.44,1.56,4.94,2.07,7.48.13.65.25,1.3.35,1.96.04.24.07.48.11.72.2,1.31-.17-1.48-.02-.16s.27,2.64.33,3.97c.12,2.53.06,5.07-.17,7.59-.05.59-.18,1.21-.19,1.79.04-1.95,0,.02-.1.55-.22,1.3-.48,2.6-.79,3.88-.61,2.5-1.43,4.93-2.38,7.32-.31.78.64-1.42.12-.28-.12.27-.24.54-.37.81-.27.59-.56,1.18-.86,1.76-.6,1.16-1.24,2.3-1.94,3.41-.63,1.01-1.3,1.99-2.01,2.95-.14.18-.31.37-.43.57.89-1.42.32-.43.05-.09-.45.55-.92,1.1-1.4,1.63-.8.89-1.65,1.74-2.52,2.56-.45.42-.91.83-1.38,1.23-.28.24-.57.48-.85.71l-.29.23c-.5.39-.39.31.34-.26-.45.1-1.1.8-1.5,1.08-.51.35-1.02.69-1.55,1.01-1.15.72-2.33,1.39-3.54,2-.55.28-1.11.55-1.67.8-.33.15-.71.27-1.02.45,1.28-.75.68-.29.24-.11-1.26.5-2.55.94-3.85,1.33s-2.5.69-3.77.96c-.6.13-1.21.24-1.82.35-.24.04-.49.08-.73.12-.24.04-.49.07-.73.11.98-.13,1.15-.15.49-.07-2.58.28-5.17.39-7.77.27-1.23-.06-2.46-.2-3.69-.32,1.98.19-.12-.04-.6-.12-.73-.13-1.45-.28-2.17-.44-1.2-.28-2.39-.6-3.56-.98-.65-.21-1.29-.43-1.92-.67-.29-.11-.57-.22-.86-.33-1.17-.44,1.12.52.07.03-2.32-1.06-4.61-2.19-6.83-3.44-1.81-1.02-3.59-2.11-5.27-3.34-.15-.11-.3-.22-.45-.33-.89-.65,1.2.96.35.27-.35-.28-.69-.56-1.03-.85-.72-.62-1.42-1.27-2.08-1.95-.59-.61-1.16-1.24-1.7-1.89-.16-.2-.32-.4-.48-.59,1.17,1.43.72.94.48.61s-.5-.69-.74-1.04c-1.05-1.55-1.96-3.19-2.76-4.88-.2-.43-.39-.86-.59-1.3-.38-.85.26.61.26.63-.1-.28-.23-.55-.33-.83-.38-.97-.74-1.94-1.07-2.92-.79-2.32-1.47-4.68-2.11-7.05-.81-3.03-4.31-5.18-7.38-4.19-3.11,1.01-5.06,4.13-4.19,7.38,2.45,9.13,5.74,18.38,12.66,25.12,3.29,3.2,7.19,5.8,11.21,7.99,5,2.72,10.26,5.1,15.85,6.29,11.98,2.54,24.5.88,35.44-4.59,10.28-5.15,18.47-14.11,23-24.65s5.95-22.91,3.9-34.68c-2.01-11.51-7.85-22.13-15.77-30.63-7.99-8.57-18.17-14.9-29.14-18.91-12.67-4.63-26.33-5.15-39.68-4.66-14.71.54-29.42,1.43-44.12,2.16-13.59.68-27.29.94-40.82,2.54s-26.8,4.49-38.23,11.71c-10.18,6.43-18.31,16.01-22.47,27.35s-2.83,23.93,3.69,34.07c6.61,10.26,16.84,17.44,26.83,24.1,6.28,4.19,13.21,7.51,20.93,5.82,5.82-1.27,11.97-4.13,16.04-8.58,2.21-2.42,3.6-5.23,4.99-8.15,1.48-3.11,2.83-6.28,4.09-9.48,2.27-5.78,4.13-11.71,5.64-17.73,6.26-24.86,6.98-50.8,6.64-76.31-.17-13.01-.38-26.05-1.02-39.04-.68-13.91-2.14-27.98-6.17-41.36-6.82-22.67-22.18-44.46-45.46-52.17-20.17-6.68-45.97.27-56.74,19.48-6.39,11.4-6.61,25.21-2.87,37.5,3.58,11.74,10.52,22.26,19.22,30.84,16.53,16.31,39.24,25.76,62.02,28.95,28.72,4.03,57.6-.83,85.59-7.34,24.94-5.8,54.14-11.22,69.09-34.39,6.47-10.02,8.79-22.76,4.71-34.15-3.82-10.66-11.78-18.8-20.96-25.12-4.39-3.02-9.09-5.59-13.93-7.82-5.48-2.53-11.21-4.97-17.06-6.56-6.69-1.82-13.97-1.77-20,2.01-4.57,2.87-8.03,7.27-10.33,12.11s-3.84,9.96-4.84,15.22c-1.34,7.05-2.24,14.21-3.18,21.33-1.89,14.28-3.28,28.63-4.17,43.01-1.78,28.76-1.56,57.64.65,86.36,1.09,14.17,2.7,28.29,4.73,42.36.2,1.38,1.61,2.92,2.76,3.59,1.29.75,3.18,1.07,4.62.6s2.85-1.37,3.59-2.76c.81-1.52.85-2.93.6-4.62h0Z"/>
      <path class="cls-7" d="m199.48,265.56c-.28-1.97-.56-3.94-.83-5.91-.03-.23-.16-1.18,0-.02-.07-.54-.14-1.08-.21-1.61-.14-1.08-.28-2.15-.41-3.23-.48-3.77-.92-7.54-1.33-11.32-.85-7.73-1.56-15.48-2.15-23.23-1.17-15.42-1.82-30.88-1.96-46.34-.28-31.02,1.51-62.06,5.36-92.84.22-1.79.46-3.59.69-5.38s-.17,1.23.08-.56c.05-.36.1-.72.15-1.08.15-1.08.3-2.15.45-3.22.55-3.85,1.13-7.7,1.75-11.54.85-5.3,1.98-10.58,3.88-15.62.13-.35.27-.69.41-1.04.46-1.19-.47,1-.1.24.29-.6.55-1.23.85-1.83.58-1.18,1.22-2.33,1.93-3.44.31-.49.66-.97.99-1.45.69-1-.74.86-.21.25.19-.21.36-.45.55-.66.81-.95,1.7-1.79,2.63-2.62s-1.18.81-.16.12c.18-.13.36-.26.55-.38.46-.31.94-.6,1.42-.87.29-.16.6-.3.9-.46,1.05-.55-1.11.37-.35.13.66-.2,1.3-.47,1.97-.65.28-.08.57-.15.86-.21.31-.07,1.58-.47.28-.09.76-.22,1.77-.12,2.55-.1.34,0,.68.02,1.02.05.21.01,1.93.13.44.01,1.01.08,2.06.37,3.04.61,3.24.8,6.39,1.96,9.5,3.15,1.35.51,2.68,1.05,4.01,1.59.36.15.98.23-.34-.15.37.1.74.32,1.09.47.73.32,1.46.64,2.18.97,5.15,2.35,10.17,5.02,14.89,8.14,1.15.76,2.28,1.55,3.4,2.36.21.15.42.31.63.47l.31.23c.51.39.41.31-.29-.23.5.1,1.43,1.15,1.81,1.46,2.04,1.71,3.99,3.53,5.79,5.49.86.93,1.67,2.34,2.65,3.12-.09-.07-.86-1.15-.27-.34.21.3.44.59.65.89.42.6.83,1.2,1.22,1.82.65,1.02,1.25,2.07,1.81,3.15.28.54.54,1.08.79,1.63.23.5.31,1.39-.03-.11.07.32.28.7.4,1.01.43,1.14.8,2.29,1.11,3.47.17.65.33,1.31.46,1.97.06.3.12.61.17.91.03.19.27,1.79.12.68s.01.16.03.32c.04.38.07.76.1,1.14.05.68.08,1.36.08,2.04s0,1.41-.04,2.11.05,1.87-.22,2.51c.5-1.15.1-.74,0-.15-.06.34-.12.69-.19,1.03-.13.68-.29,1.36-.46,2.04-.38,1.49-.86,2.95-1.41,4.39-.14.36-.42,1.63-.03.12-.08.32-.29.66-.43.96-.33.7-.67,1.4-1.03,2.08-.73,1.38-1.53,2.72-2.39,4.02-.39.59-.8,1.18-1.22,1.76-.05.06-.87,1.22-.3.42s-.27.34-.33.41c-.99,1.23-2.04,2.41-3.13,3.55-1,1.04-2.03,2.03-3.11,2.99-.59.53-1.19,1.04-1.8,1.54-.27.22-.54.5-.84.67,1.34-.79-.02,0-.32.23-2.72,2-5.61,3.77-8.6,5.35-1.43.76-2.88,1.47-4.36,2.15-.73.34-1.47.7-2.22.99,1.37-.52-.15.06-.36.14-.45.18-.9.36-1.36.54-13.54,5.28-28,8.31-42.12,11.59-7.61,1.77-15.26,3.42-22.94,4.85-3.75.69-7.5,1.33-11.27,1.91-.9.14-1.79.27-2.69.4-.54.08-1.08.15-1.61.23,1.16-.16.21-.03-.02,0-2.06.27-4.13.52-6.19.74-7.62.82-15.28,1.29-22.95,1.3-3.97,0-7.94-.12-11.9-.38-3.2-.21-6.37-.66-9.57-.93,1.81.15-.49-.07-.93-.14-.7-.1-1.4-.21-2.1-.33-1.61-.26-3.22-.56-4.82-.88-3-.6-5.98-1.3-8.94-2.1s-5.74-1.66-8.57-2.63c-1.48-.51-2.94-1.04-4.4-1.61-.66-.26-1.32-.52-1.98-.78-.26-.11-.52-.22-.79-.32-.61-.25-.52-.22.26.11-.26-.11-.52-.22-.78-.34-5.49-2.38-10.8-5.17-15.84-8.39-1.24-.79-2.46-1.6-3.66-2.45-.57-.4-1.14-.81-1.7-1.22-.28-.21-.56-.41-.84-.62s-1.6-1.15-.28-.2c-2.35-1.7-4.55-3.7-6.67-5.68-2.23-2.09-4.36-4.29-6.37-6.61-.91-1.05-1.79-2.13-2.67-3.22s.78,1.06-.09-.11c-.17-.23-.34-.45-.5-.67-.5-.68-.99-1.36-1.47-2.05-1.81-2.61-3.46-5.32-4.91-8.14-.71-1.38-1.53-2.83-2.04-4.3.43,1.25.19.46.08.18-.17-.42-.34-.84-.5-1.27-.33-.85-.63-1.7-.93-2.56-1.01-2.99-1.81-6.06-2.35-9.18-.08-.44-.14-.88-.21-1.33-.24-1.46.1.99,0,.04-.08-.81-.18-1.62-.24-2.44-.12-1.62-.17-3.24-.13-4.87.03-1.47.15-2.92.3-4.38s-.25,1.35.02-.14c.05-.29.09-.58.14-.86.15-.86.33-1.72.54-2.57.35-1.42.77-2.82,1.27-4.2.15-.41.31-.82.47-1.23.52-1.36-.41.84,0,0s.74-1.59,1.16-2.36c.61-1.14,1.28-2.25,2-3.32.31-.45.88-.99,1.06-1.49-.37,1.02-.6.74-.15.21.27-.33.54-.66.82-.98.79-.91,1.63-1.79,2.5-2.63.94-.9,2.14-1.66,3.02-2.61-1.04,1.12-.47.36-.05.06.25-.18.49-.35.74-.53.55-.38,1.11-.75,1.67-1.11,1.14-.71,2.3-1.38,3.5-1.99.55-.28,1.1-.55,1.65-.8.28-.13.57-.24.84-.38.76-.38-1.43.57-.24.1,1.27-.5,2.54-.97,3.83-1.38,2.55-.8,5.17-1.4,7.81-1.8.54-.08,1.17.09-.3.04.35.01.76-.09,1.12-.13.62-.06,1.25-.12,1.87-.16,1.37-.09,2.75-.13,4.13-.12,1.25.01,2.5.07,3.75.17.62.05,1.24.12,1.87.18,1.35.14-1.45-.23-.11-.02.37.06.74.11,1.11.18,2.7.46,5.36,1.13,7.95,2.04.63.22,1.25.45,1.87.69.32.13.64.26.96.39.83.33-1.36-.62-.1-.03,1.37.64,2.74,1.28,4.07,2,2.6,1.4,5.08,2.99,7.45,4.74.27.2.58.39.82.62-1.16-1.09-.18-.14.08.08.54.43,1.06.87,1.59,1.32,1.15.98,2.27,2.01,3.36,3.06,2.09,2.03,4.05,4.18,5.89,6.43.26.32.52.65.78.98.88,1.08-.58-.78-.04-.06.46.61.92,1.23,1.37,1.85.9,1.25,1.76,2.52,2.6,3.81,1.59,2.48,3.06,5.03,4.41,7.65.64,1.25,1.25,2.51,1.84,3.78.32.7.63,1.41.94,2.11.37.83-.56-1.38-.03-.08.18.45.37.9.55,1.36,1.26,3.18,2.35,6.42,3.31,9.7,1.01,3.46,1.87,6.96,2.59,10.48.38,1.85.73,3.7,1.04,5.56.14.85.28,1.69.41,2.54.05.34.1.68.15,1.02.04.26.35,2.46.14.96.99,7.27,1.52,14.59,1.87,21.92.67,13.9.9,27.84,1.1,41.75s.14,27.53-.72,41.26c-.42,6.74-1.06,13.47-1.93,20.17-.13.97.21-1.49,0,.05-.07.47-.13.94-.2,1.41-.11.78-.23,1.56-.35,2.34-.27,1.71-.55,3.42-.85,5.12-.58,3.24-1.23,6.46-1.96,9.67-1.49,6.51-3.32,12.95-5.56,19.24-.52,1.46-1.06,2.91-1.62,4.35-.31.79-.63,1.58-.95,2.37-.15.36-.29.72-.44,1.07.6-1.41-.09.2-.22.49-1.32,3.01-2.68,6.06-4.3,8.93-.06.1-1.02,1.61-1.04,1.59l.46-.61c-.16.2-.33.39-.51.58-.17.19-.35.38-.54.57-.46.47-.96.89-1.46,1.33-1.03.92,1.1-.73-.06.04-.34.22-.67.46-1.01.68-1.27.82-2.61,1.49-3.98,2.14-.55.26-.32.43.3-.12-.23.21-.85.33-1.15.44-.76.28-1.52.53-2.3.75-.63.18-1.26.35-1.89.5-.33.08-.66.13-.98.21-.89.22,1.42,0-.06,0-.27,0-2.16.23-2.35-.06l.66.09c-.31-.05-.62-.11-.93-.18-.47-.1-.93-.23-1.38-.36s-.91-.31-1.37-.47c-.24-.08-1.1-.35.08.05-.76-.26-1.5-.7-2.22-1.08-1.68-.89-3.3-1.91-4.89-2.96-2.6-1.71-5.17-3.47-7.71-5.28-1.17-.83-2.33-1.68-3.48-2.54-.34-.26-.7-.5-1.03-.78,1.04.88.43.34.19.15-.67-.53-1.35-1.07-2.01-1.61-2.41-1.98-4.73-4.07-6.89-6.33-.97-1.01-1.9-2.05-2.79-3.12-.25-.3-.6-.63-.78-.97.07.12.81,1.09.18.23-.49-.67-.97-1.34-1.43-2.03-.76-1.14-1.47-2.32-2.12-3.54-.36-.67-.69-1.35-1.01-2.04-.17-.37-.69-1.16.02.1-.23-.41-.37-.92-.53-1.36-.5-1.36-.92-2.75-1.25-4.16-.15-.65-.28-1.31-.4-1.97-.02-.15-.31-1.42-.07-.39s-.05-.57-.07-.78c-.11-1.31-.15-2.63-.11-3.95.02-.66.05-1.31.11-1.97.03-.39.08-.79.12-1.18.12-1.31-.21,1.23,0,.03.51-2.89,1.23-5.71,2.28-8.45.1-.25.2-.5.3-.75.51-1.32-.57,1.23.03-.05.29-.61.56-1.23.86-1.83.67-1.34,1.4-2.65,2.18-3.93.72-1.17,1.48-2.31,2.29-3.42.23-.32.46-.71.74-1-.99,1.01-.3.39-.04.07.52-.65,1.05-1.28,1.6-1.91,1.97-2.24,4.11-4.33,6.4-6.24.28-.23,1.96-1.78.73-.61.49-.46,1.12-.84,1.67-1.22,1.23-.87,2.5-1.69,3.8-2.46,1.44-.85,2.92-1.63,4.43-2.37.72-.35,1.45-.69,2.18-1.02.29-.13.59-.26.88-.39.62-.27.59-.25-.11.04.3-.12.59-.24.89-.36,3.12-1.24,6.32-2.29,9.56-3.16s6.72-1.64,10.13-2.23c1.67-.29,3.35-.55,5.04-.79,1.14-.16.06-.01-.15.02.48-.08.97-.12,1.45-.18.97-.12,1.94-.23,2.91-.33,14.71-1.57,29.57-1.91,44.34-2.64,15.72-.78,31.43-1.68,47.15-2.32,7.7-.31,15.42-.43,23.1.27.89.08,1.78.17,2.67.28.18.02,1.95.26.53.06.35.05.71.1,1.06.15,1.71.26,3.4.56,5.09.93,2.98.64,5.92,1.46,8.81,2.45,1.31.45,2.62.93,3.9,1.45.32.13.64.26.96.39.83.34-1.36-.61-.09-.03.76.34,1.52.68,2.27,1.04,2.69,1.28,5.31,2.71,7.85,4.29,1.23.77,2.45,1.57,3.63,2.41.56.4,1.12.8,1.68,1.22.08.06,1.17.88.38.28s.56.45.69.56c2.25,1.82,4.39,3.76,6.41,5.84,1.05,1.08,2.07,2.2,3.05,3.35.45.52.88,1.05,1.31,1.59.16.2.38.42.51.65-.88-1.43.09.13.3.43,1.7,2.33,3.26,4.76,4.63,7.3.66,1.21,1.28,2.44,1.85,3.7.12.25.5.83.5,1.11.02-.9-.36-.87-.06-.14s.59,1.49.85,2.25c.96,2.71,1.73,5.49,2.28,8.31.13.66.25,1.32.36,1.98.01.08.17,1.19.18,1.19-.02,0-.19-1.57-.05-.4.17,1.47.31,2.93.38,4.4.15,2.94.09,5.89-.18,8.82-.02.26-.31,1.94-.22,1.99-.13-.07.21-1.45.02-.21-.05.33-.1.66-.16.99-.24,1.45-.53,2.88-.88,4.31-.68,2.78-1.59,5.47-2.62,8.13-.32.82.62-1.38.06-.15-.16.36-.32.72-.49,1.08-.28.6-.57,1.19-.87,1.78-.66,1.29-1.37,2.56-2.13,3.79-.69,1.12-1.43,2.22-2.21,3.28-.21.29-1.1,1.28-.02.05-.17.2-.33.42-.49.62-.5.62-1.01,1.22-1.54,1.82-.97,1.09-2,2.14-3.07,3.14-.5.47-1.02.93-1.54,1.38-.21.18-.42.36-.63.53-.21.17-.43.35-.64.52-.51.4-.43.34.24-.18-1.19.57-2.27,1.63-3.39,2.34-1.28.8-2.6,1.55-3.94,2.23-.61.31-1.23.61-1.86.9-.35.16-.75.4-1.13.5,1.27-.34.65-.27.29-.13-1.48.57-2.96,1.11-4.48,1.57-1.38.42-2.79.78-4.2,1.08-.67.14-1.35.28-2.03.4-.34.06-.68.12-1.02.17-1.59.25,1.01-.09-.25.04-2.88.31-5.76.46-8.66.34-1.32-.06-3.28.08-4.52-.39.11.04,1.46.23.37.04-.41-.07-.81-.13-1.22-.2-.81-.15-1.62-.31-2.42-.5-1.34-.31-2.66-.67-3.97-1.1-.65-.21-1.3-.43-1.95-.67-.39-.14-.77-.3-1.16-.44-1.14-.43,1.11.52-.09-.04-2.53-1.17-5.03-2.39-7.47-3.75-2.08-1.16-4.12-2.41-6.05-3.81-.38-.28-1.78-1.51-.25-.17-.37-.33-.77-.62-1.15-.94-.81-.69-1.59-1.41-2.33-2.17s-1.43-1.52-2.08-2.32c-.93-1.14.79,1.09-.1-.13-.28-.38-.56-.77-.82-1.17-1.11-1.65-2.08-3.39-2.93-5.18-.25-.52-.48-1.05-.72-1.58-.18-.41-.38-1.21.16.39-.11-.31-.25-.62-.37-.92-.42-1.08-.82-2.17-1.19-3.26-.88-2.59-1.64-5.23-2.35-7.87-.81-3.03-4.31-5.18-7.38-4.19s-5.06,4.13-4.19,7.38c2.71,10.12,6.34,20.38,14.01,27.86,3.66,3.57,8.01,6.46,12.49,8.89,5.66,3.07,11.59,5.74,17.92,7.04,13.24,2.72,27.12.84,39.17-5.29,11.38-5.79,20.35-15.71,25.35-27.41s6.52-25.4,4.22-38.39-8.67-24.4-17.4-33.81c-8.9-9.6-20.29-16.69-32.55-21.16-14.19-5.17-29.46-5.73-44.41-5.18-16.35.6-32.7,1.59-49.05,2.4-15.4.77-30.92,1.06-46.25,2.87s-29.77,5.02-42.47,13.03c-11.3,7.13-20.39,17.82-24.96,30.42s-3.04,26.58,4.3,37.8,18.65,19.17,29.69,26.53c6.94,4.62,14.59,8.36,23.11,6.42,6.38-1.45,13.1-4.54,17.55-9.45,2.39-2.64,3.9-5.72,5.42-8.91,1.68-3.54,3.23-7.16,4.65-10.81,2.48-6.36,4.52-12.88,6.19-19.5,7.02-27.82,7.83-56.84,7.46-85.38-.19-14.63-.43-29.3-1.14-43.92-.76-15.61-2.39-31.39-6.92-46.4-7.57-25.11-24.47-49.15-50.16-57.89-22.34-7.61-51.09-.01-63.15,21.26-7.12,12.56-7.38,27.81-3.32,41.41,3.93,13.12,11.67,24.89,21.36,34.48,18.5,18.31,43.95,28.87,69.48,32.43,32.12,4.49,64.43-.99,95.72-8.27,14.56-3.39,29.53-6.48,43.4-12.19s25.78-13.73,33.77-26.25c7.12-11.14,9.62-25.23,5-37.83-4.31-11.77-13.18-20.74-23.37-27.7-4.95-3.38-10.24-6.25-15.68-8.74-6.01-2.76-12.28-5.41-18.67-7.15-7.4-2.01-15.5-1.96-22.12,2.34-5.01,3.25-8.74,8.13-11.24,13.5s-4.19,11.12-5.28,16.98c-1.48,7.93-2.5,15.97-3.55,23.97-2.1,15.96-3.64,31.99-4.63,48.06-1.97,32.14-1.72,64.41.75,96.51,1.22,15.87,3.02,31.68,5.29,47.43.2,1.38,1.61,2.92,2.76,3.59,1.29.75,3.18,1.07,4.62.6,3.41-1.1,4.67-4.04,4.19-7.38h0Z"/>
      <path class="cls-6" d="m203.32,276.75c-.31-2.18-.62-4.37-.92-6.56-.02-.16-.16-1.18-.03-.19-.08-.6-.16-1.19-.24-1.79-.16-1.19-.31-2.39-.46-3.58-.53-4.18-1.02-8.37-1.48-12.55-.94-8.58-1.73-17.17-2.38-25.77-1.29-17.11-2.02-34.26-2.17-51.41-.31-34.41,1.67-68.84,5.95-102.99.25-1.99.51-3.98.77-5.97s-.16,1.17.11-.79c.05-.4.11-.8.16-1.19.16-1.19.33-2.38.5-3.58.61-4.27,1.25-8.54,1.94-12.8.94-5.88,2.19-11.74,4.3-17.33.15-.39.3-.77.45-1.16.49-1.29-.44.9-.05.11.33-.67.61-1.36.94-2.03.64-1.31,1.35-2.59,2.14-3.82.35-.55.73-1.07,1.09-1.61.73-1.08-.69.77-.12.15.21-.23.4-.49.6-.73.9-1.05,1.89-1.98,2.92-2.9s-1.13.77-.05.03c.2-.14.4-.29.61-.42.51-.35,1.04-.67,1.58-.96.33-.18.67-.33.99-.51,1.12-.59-1.02.32-.23.08.73-.22,1.44-.52,2.18-.72.32-.08.63-.16.95-.23.24-.05,1.7-.25.49-.12.94-.1,1.88-.13,2.83-.11.38,0,.76.03,1.13.05.13,0,1.98.22.67.03,1.14.16,2.26.4,3.38.68,3.59.88,7.08,2.17,10.54,3.49,1.49.57,2.97,1.17,4.45,1.77.28.11,1.07.42-.22-.1.41.16.81.35,1.21.52.81.35,1.62.71,2.42,1.08,5.71,2.6,11.28,5.57,16.52,9.03,1.28.84,2.53,1.71,3.77,2.62.33.24,2.21,1.56.86.63.7.48,1.36,1.08,2.01,1.62,2.27,1.89,4.43,3.92,6.43,6.09.98,1.06,2.19,2.22,2.94,3.46-.07-.12-.81-1.09-.19-.24.24.33.48.66.72.99.47.66.92,1.34,1.36,2.02.72,1.13,1.39,2.3,2.01,3.49.31.59.6,1.2.88,1.81l.17.37c.26.6.22.49-.13-.33.18.2.35.87.44,1.12.48,1.26.89,2.54,1.24,3.84.19.72.36,1.45.51,2.18.07.34.13.67.19,1.01.03.18.28,1.88.15.84s.03.33.04.45c.04.42.08.84.11,1.26.05.75.08,1.51.09,2.26.02,1.67.04,3.48-.29,5.12.34-1.65-.16.83-.23,1.15-.15.76-.32,1.51-.51,2.26-.42,1.65-.95,3.28-1.56,4.87-.09.24-.61,1.72-.1.29-.13.36-.32.72-.48,1.07-.36.78-.74,1.55-1.15,2.31-.81,1.53-1.7,3.02-2.65,4.46-.44.66-.89,1.31-1.35,1.95-.01.02-.94,1.28-.39.54s-.4.5-.41.52c-1.1,1.36-2.26,2.68-3.48,3.94-1.1,1.15-2.26,2.26-3.45,3.32-.65.58-1.32,1.15-2,1.71-.31.25-.62.5-.93.75,1.13-.91-.25.18-.49.36-3.02,2.22-6.23,4.18-9.54,5.94-1.59.84-3.2,1.63-4.83,2.38-.82.38-1.64.74-2.47,1.09,1.21-.52-.43.18-.56.23-.5.2-1,.4-1.51.6-15.02,5.86-31.06,9.22-46.73,12.86-8.45,1.96-16.92,3.8-25.45,5.38-4.15.77-8.32,1.48-12.5,2.11-.99.15-1.99.3-2.98.44-.6.09-1.19.17-1.79.25.98-.14-.03,0-.2.03-2.29.3-4.58.57-6.87.82-8.45.91-16.95,1.43-25.45,1.44-4.4,0-8.81-.13-13.2-.42-1.83-.12-3.65-.27-5.47-.44-1.65-.16-3.55-.13-5.14-.59,1.46.42.07,0-.27-.04-.31-.04-.62-.09-.93-.14-.78-.12-1.56-.24-2.33-.37-1.79-.29-3.57-.62-5.35-.97-3.33-.67-6.64-1.44-9.91-2.33s-6.37-1.84-9.5-2.92c-1.64-.56-3.27-1.16-4.88-1.78-.73-.28-1.47-.57-2.19-.87-.29-.12-.58-.24-.87-.36-.62-.26-.58-.24.13.06-.29-.12-.58-.25-.87-.37-6.09-2.64-11.98-5.74-17.58-9.31-1.37-.88-2.73-1.78-4.06-2.71-.63-.44-1.26-.89-1.89-1.35-.31-.23-.62-.46-.93-.69-.24-.18-1.62-1.24-.45-.33-2.56-1.99-5.03-4.09-7.39-6.31s-4.84-4.76-7.06-7.33c-1.01-1.17-1.99-2.37-2.96-3.58s.74,1.01-.2-.26c-.18-.25-.37-.5-.56-.75-.55-.75-1.1-1.51-1.63-2.28-2.01-2.89-3.84-5.9-5.45-9.03-.81-1.57-1.54-3.17-2.26-4.78.49,1.09.11.27.02.04-.19-.47-.38-.93-.56-1.41-.36-.94-.7-1.89-1.03-2.84-1.12-3.32-2.01-6.72-2.61-10.18-.09-.49-.16-.98-.24-1.47-.26-1.59.08.87-.02-.13-.09-.9-.2-1.8-.27-2.7-.13-1.8-.19-3.6-.15-5.4.04-1.63.17-3.24.33-4.86s-.24,1.28.05-.33c.06-.32.1-.64.16-.96.17-.96.37-1.91.6-2.85.38-1.58.85-3.13,1.4-4.65.17-.46.35-.91.52-1.37.57-1.47-.37.73.07-.15s.83-1.76,1.29-2.62c.67-1.26,1.42-2.49,2.22-3.68.33-.49.72-1.3,1.18-1.65-.96.71-.43.53-.07.1.3-.36.6-.73.91-1.08.88-1.01,1.81-1.99,2.78-2.91s2.14-2.24,3.35-2.89c-1.35.74-.26.21.07-.03.27-.2.55-.39.82-.58.61-.42,1.23-.83,1.85-1.23,1.26-.79,2.56-1.53,3.88-2.2.61-.31,1.22-.61,1.83-.89.31-.14.63-.26.93-.42.79-.4-1.39.55-.11.05,1.4-.55,2.81-1.08,4.25-1.53,2.83-.89,5.73-1.55,8.67-1.99.7-.11.82-.49-.15.02.28-.15.92-.11,1.24-.14.69-.07,1.38-.13,2.07-.18,1.52-.1,3.05-.15,4.58-.13,1.39.01,2.78.08,4.16.19.69.06,1.38.14,2.07.21,1.45.14-1.39-.23.05,0,.41.07.82.13,1.23.19,2.99.51,5.95,1.26,8.82,2.26.7.24,1.39.5,2.07.77.36.14.71.29,1.07.43.88.35-1.32-.61.04.03,1.52.71,3.04,1.42,4.52,2.22,2.88,1.55,5.64,3.32,8.27,5.26.3.23.62.44.91.69-1.16-.97.03.03.22.19.59.48,1.18.96,1.76,1.46,1.28,1.09,2.52,2.23,3.72,3.4,2.31,2.25,4.49,4.64,6.53,7.14.29.36.58.72.87,1.08.95,1.17-.51-.69.06.07.51.68,1.02,1.36,1.52,2.05,1,1.38,1.96,2.79,2.88,4.23,1.76,2.75,3.39,5.58,4.89,8.48.71,1.38,1.39,2.78,2.04,4.19.36.78.69,1.56,1.04,2.34.39.87-.54-1.34.03.07.2.5.41,1,.61,1.51,1.4,3.52,2.61,7.12,3.67,10.76,1.12,3.83,2.07,7.72,2.88,11.63.42,2.05.81,4.11,1.15,6.17.16.94.31,1.88.45,2.82.06.38.11.75.17,1.13.03.22.35,2.51.18,1.24,1.09,8.06,1.68,16.19,2.07,24.31.74,15.42.99,30.88,1.22,46.31.23,15.26.16,30.54-.8,45.77-.47,7.48-1.18,14.94-2.14,22.37-.13,1.04.21-1.45-.03.23-.07.52-.15,1.04-.22,1.56-.13.87-.25,1.73-.39,2.59-.29,1.9-.61,3.79-.95,5.68-.64,3.59-1.36,7.17-2.18,10.72-1.65,7.22-3.68,14.36-6.16,21.35-.58,1.62-1.17,3.23-1.8,4.83-.34.88-.69,1.76-1.05,2.63-.16.4-.33.79-.49,1.19.53-1.25-.2.45-.31.7-1.46,3.34-2.97,6.73-4.77,9.91-.31.54-.69,1.33-1.15,1.76,1.12-1.04.08-.15-.15.1-.19.21-.39.42-.59.63-.51.52-1.07.99-1.62,1.47-1.11.99,1.05-.68-.2.15-.38.25-.74.51-1.12.76-1.41.91-2.9,1.66-4.41,2.37-.29.14-.93.56.17-.07-.38.21-.86.34-1.27.49-.84.31-1.69.59-2.55.83-.69.2-1.39.39-2.1.55-.36.08-.73.14-1.09.23-.92.24,1.35.02-.25.02-.88,0-1.73.01-2.61-.06,1.44.12-.24-.08-.47-.13-.52-.11-1.03-.25-1.53-.4s-1.01-.35-1.52-.52c-.2-.07-1.05-.44-.07,0-.84-.37-1.65-.77-2.46-1.2-1.87-.99-3.66-2.12-5.42-3.28-2.88-1.9-5.74-3.85-8.56-5.85-1.3-.92-2.59-1.86-3.87-2.82-.38-.29-.76-.58-1.14-.87.99.74.28.22.08.06-.75-.59-1.5-1.18-2.23-1.79-2.67-2.2-5.25-4.52-7.64-7.02-1.07-1.12-2.11-2.27-3.09-3.47-.29-.36-.58-.72-.87-1.08.12.15.74,1,.1.12-.54-.74-1.08-1.48-1.59-2.25-.85-1.27-1.64-2.58-2.35-3.92-.4-.74-.77-1.49-1.12-2.26-.14-.31-.62-1.29-.04-.04-.22-.49-.4-1-.59-1.51-.55-1.51-1.02-3.05-1.38-4.61-.17-.72-.31-1.45-.44-2.19-.02-.09-.22-1.54-.09-.52s-.07-.79-.09-.96c-.13-1.46-.17-2.92-.13-4.38.02-.73.06-1.46.12-2.19.04-.44.09-.87.13-1.31.13-1.37-.2,1.11.02-.14.57-3.21,1.36-6.33,2.53-9.37.11-.28.22-.55.33-.83.55-1.42-.55,1.17.1-.22.32-.68.62-1.36.96-2.03.74-1.49,1.55-2.94,2.42-4.36.8-1.3,1.65-2.56,2.54-3.8.27-.37.55-.74.82-1.1-.81,1.07-.16.21.05-.05.58-.72,1.17-1.42,1.78-2.12,2.18-2.49,4.56-4.8,7.1-6.92.24-.2,2.17-1.7.95-.78.61-.46,1.23-.92,1.85-1.36,1.37-.97,2.78-1.88,4.22-2.73,1.6-.94,3.24-1.81,4.91-2.62.8-.39,1.61-.77,2.42-1.13.32-.15.65-.29.98-.43.64-.27.65-.28.04-.02.33-.14.66-.27.99-.4,3.46-1.38,7.01-2.54,10.6-3.51s7.46-1.81,11.23-2.48c1.86-.33,3.72-.61,5.59-.88,1.18-.17.25-.03.01,0,.54-.07,1.07-.14,1.61-.2,1.07-.13,2.15-.25,3.23-.37,16.32-1.74,32.81-2.12,49.19-2.93,17.43-.87,34.87-1.86,52.31-2.58,8.54-.35,17.11-.48,25.63.29.99.09,1.97.19,2.96.31.07,0,2.01.26.77.09.39.05.79.11,1.18.17,1.89.29,3.78.63,5.65,1.03,3.31.71,6.57,1.62,9.77,2.71,1.46.5,2.9,1.03,4.33,1.6.36.14.71.29,1.07.44.88.36-1.32-.59.05.03.84.38,1.69.75,2.52,1.15,2.99,1.42,5.9,3.01,8.7,4.75,1.37.85,2.71,1.74,4.03,2.67.63.44,1.25.89,1.86,1.35.03.03,1.24.94.49.37-.68-.52.71.57.84.67,2.49,2.02,4.87,4.18,7.11,6.48,1.17,1.2,2.3,2.44,3.38,3.71.49.58.98,1.17,1.45,1.76.19.23.39.47.57.72-.91-1.28.27.37.44.61,1.89,2.58,3.61,5.28,5.14,8.09.73,1.34,1.42,2.71,2.05,4.1.18.4.42.82.55,1.23-.41-1.33-.15-.35,0,0,.33.82.65,1.66.95,2.49,1.07,3,1.91,6.09,2.53,9.22.14.73.28,1.46.4,2.19.07.42.2.9.2,1.32,0-.16-.17-1.39-.04-.27.19,1.62.34,3.25.42,4.88.17,3.26.1,6.54-.2,9.79-.07.72-.07,1.51-.24,2.21.35-1.42.06-.46,0-.05-.05.37-.11.73-.17,1.1-.27,1.6-.59,3.2-.97,4.78-.75,3.09-1.77,6.06-2.91,9.02-.33.86.6-1.34,0-.01-.18.4-.36.8-.54,1.2-.31.66-.63,1.32-.96,1.98-.73,1.43-1.52,2.84-2.36,4.21-.77,1.24-1.59,2.46-2.45,3.64l-.26.35c-.4.52-.35.47.14-.17.02.04-.47.59-.55.69-.55.69-1.12,1.36-1.71,2.01-1.08,1.21-2.21,2.37-3.4,3.48-.56.52-1.13,1.03-1.71,1.53-.23.2-.47.39-.7.59-.24.19-.47.39-.71.58-.52.41-.48.38.13-.1-.37.52-1.34.98-1.86,1.34-.63.43-1.26.85-1.91,1.26-1.42.89-2.88,1.72-4.38,2.48-.68.35-1.37.68-2.06,1-.41.19-.83.4-1.25.56,1.24-.46.43-.18.17-.08-1.64.63-3.28,1.23-4.97,1.74-1.54.46-3.09.86-4.66,1.2-.75.16-1.5.31-2.25.44-.38.07-.75.13-1.13.19-1.61.25.81-.07-.45.07-3.2.34-6.39.51-9.61.38-1.66-.07-3.37-.16-5.01-.43.18.03,1.34.21.24.02-.45-.08-.9-.15-1.35-.23-.9-.16-1.8-.35-2.69-.55-1.48-.34-2.96-.75-4.41-1.21-.73-.23-1.45-.48-2.16-.75-.43-.16-.85-.33-1.28-.49-1.18-.45.99.47-.26-.11-2.81-1.29-5.58-2.66-8.28-4.16-2.31-1.29-4.57-2.67-6.71-4.22-.39-.28-1.78-1.6-.41-.29-.39-.38-.86-.69-1.28-1.05-.9-.76-1.76-1.57-2.59-2.41s-1.58-1.68-2.31-2.58c-.97-1.18.71.99-.22-.28-.31-.43-.62-.86-.91-1.3-1.23-1.83-2.3-3.76-3.25-5.74-.28-.58-.54-1.17-.8-1.76-.22-.48-.2-1.11.11.27-.08-.34-.29-.7-.41-1.03-.47-1.2-.91-2.4-1.32-3.62-.98-2.88-1.82-5.8-2.61-8.73s-4.31-5.18-7.38-4.19-5.06,4.13-4.19,7.38c2.98,11.12,6.95,22.39,15.37,30.61,4.02,3.93,8.8,7.09,13.73,9.76,6.23,3.38,12.75,6.31,19.72,7.74,14.51,2.98,29.74.92,42.94-5.8,12.53-6.38,22.39-17.28,27.89-30.18,5.67-13.3,7.14-27.86,4.62-42.08s-9.53-26.86-19.14-37.22-22.33-18.38-35.82-23.3c-15.69-5.72-32.56-6.33-49.09-5.72-18.14.67-36.28,1.76-54.41,2.66-17.08.85-34.31,1.18-51.3,3.19-16.21,1.92-32.8,5.54-46.79,14.36-12.39,7.81-22.37,19.54-27.38,33.36s-3.35,29.11,4.7,41.43c8.11,12.4,20.56,21.1,32.7,29.2,7.53,5.02,15.86,9.17,25.13,7.06,6.97-1.58,14.31-4.95,19.18-10.32,2.61-2.88,4.25-6.27,5.91-9.75,1.84-3.88,3.53-7.84,5.1-11.84,2.75-7.05,5.02-14.29,6.87-21.63,7.78-30.8,8.66-62.93,8.25-94.54-.21-16.23-.48-32.5-1.27-48.72-.84-17.26-2.64-34.7-7.65-51.3-8.33-27.62-26.91-54.14-55.18-63.77-24.51-8.34-56.07-.07-69.31,23.28C-1.29,40.23-1.55,56.97,2.91,71.88c4.32,14.45,12.86,27.4,23.53,37.96,20.44,20.23,48.57,31.87,76.79,35.81,35.5,4.96,71.25-1.13,105.83-9.18,16.15-3.76,32.76-7.19,48.14-13.52,14.84-6.11,28.3-15.09,37.07-28.82,7.81-12.23,10.55-27.64,5.49-41.46-4.72-12.88-14.48-22.72-25.63-30.34-5.49-3.75-11.36-6.93-17.39-9.7-6.62-3.04-13.52-5.95-20.56-7.86-8.05-2.19-16.83-2.14-24.03,2.53-5.46,3.54-9.51,8.88-12.24,14.74-2.77,5.95-4.59,12.24-5.79,18.69-1.63,8.74-2.76,17.6-3.92,26.41-2.33,17.71-4.04,35.49-5.13,53.32-2.19,35.65-1.91,71.45.84,107.06,1.35,17.54,3.33,35.03,5.84,52.44.45,3.12,4.57,5.1,7.38,4.19,3.41-1.1,4.67-4.04,4.19-7.38h0Z"/>
    </g>
  </g>
</svg>