<?xml version="1.0" encoding="UTF-8"?>
<svg id="Layer_2" data-name="Layer 2" xmlns="http://www.w3.org/2000/svg" viewBox="0 0 179.02 184.07">
  <defs>
    <style>
      .cls-1 {
        fill: #fae4ef;
      }
    </style>
  </defs>
  <g id="Layer_1-2" data-name="Layer 1">
    <path class="cls-1" d="m8.61,108.07c5-3.5,10-6,14-8.5,7.5-5.5,7.5-9.5,1-14.5s-13.5-9.5-20.5-15.5c-7.5-7,1.5-31.5,10-34.5,17-5.5,32.5-.5,46,7,6,3,2,6,4-4,1.5-7.5,1.5-16.5,4-25C70.61,2.57,81.11.07,87.11.07c7.5-.5,18.5,1.5,22,11.5,3.5,11,5.5,21.5,8.5,32,.5,2-4.5,2,.5-1.5,10-7.5,23.5-12,37-10,11.5,2,21.5,10,23.5,21.5,1,8-2,17.5-9,22-5,3.5-10,6-14,9-7,4.5-7,9.5.5,14.5,3.5,2.5,8.5,5,14,8.5,7.5,5,10,14.5,8.5,22.5-2.5,12-12.5,19.5-23.5,21-14,2-27-3.5-36.5-10.5-5-3.5-.5-3.5-1-1.5-2.5,10-4,21-7,32s-14,12.5-20.5,13c-7,0-18-1-21-12.5-3.5-10.5-5-21.5-8-32,0-1.5,4.5-1.5-.5,2-10,7-23,12-36.5,10-10.5-1-21.5-9-23.5-20.5-2-8,1-18,8-23Zm17,28.5c10.5,1.5,18-1.5,26.5-7,8-6.5,20-7.5,23.5,6.5,3,10.5,5,21.5,8,31.5q.5,1.5,6,1.5c6,0,6-.5,6.5-2,3-10,4.5-20.5,7-31.5,3.5-14,15.5-13.5,24-7,8.5,6,16,9,26,7.5,7-.5,9-2.5,10.5-9,1-4.5,1-5-2-7-4-3-9.5-5.5-14.5-9-13-9.5-13.5-29.5-.5-39,5-3.5,10.5-6,14.5-8.5,3-2,3-3,2.5-7.5-1-6-3-8-10.5-9-10-1.5-18,1-26,7s-20,7.5-24-6.5c-3-11-5-21.5-8.5-31.5-.5-1.5-1-1.5-6.5-1-5,0-6,.5-6.5,2-2,7-2,15-4,23.5-2.5,16-11,22.5-25.5,14.5-12.5-6.5-22-9.5-34-6-2,1-5,9-4.5,9.5,5.5,5,12,9.5,19,14.5,13,9.5,12.5,28.5-1,38.5-5.5,3.5-10.5,6-14.5,9-3,2-3,3-2,7,1,6,4,8.5,10.5,9Z"/>
  </g>
</svg>