<?xml version="1.0" encoding="UTF-8"?>
<svg id="Layer_2" data-name="Layer 2" xmlns="http://www.w3.org/2000/svg" viewBox="0 0 119.36 93.33">
  <defs>
    <style>
      .cls-1 {
        fill: #ea5781;
      }
    </style>
  </defs>
  <g id="Layer_1-2" data-name="Layer 1">
    <g>
      <path class="cls-1" d="m62.02.05c7.79.56,13.47,8.04,13.43,15.67-.22,9.01-8.06,16.76-17.41,15.32-7.1-1.08-13.29-8.74-13.43-15.49C44.48,7.4,53.01-.7,62.02.05Z"/>
      <path class="cls-1" d="m17.41,61.67c7.79.56,13.47,8.04,13.43,15.67-.22,9.01-8.06,16.76-17.41,15.32C6.33,91.58.14,83.93,0,77.17c-.13-8.14,8.41-16.24,17.41-15.5Z"/>
      <path class="cls-1" d="m105.94,62.16c7.79.56,13.47,8.04,13.43,15.67-.22,9.01-8.06,16.76-17.41,15.32-7.1-1.08-13.29-8.74-13.43-15.49-.13-8.14,8.41-16.24,17.41-15.5Z"/>
    </g>
  </g>
</svg>