<?xml version="1.0" encoding="UTF-8"?>
<svg id="Layer_2" data-name="Layer 2" xmlns="http://www.w3.org/2000/svg" viewBox="0 0 258.05 265.56">
  <defs>
    <style>
      .cls-1 {
        fill: #ea5781;
      }
    </style>
  </defs>
  <g id="Layer_1-2" data-name="Layer 1">
    <path class="cls-1" d="m9.4,168.2c7.06-5.49,14.92-9.42,21.98-14.13,16.49-11.77,17.27-30.62,1.57-41.61-10.21-7.85-21.2-14.92-30.62-23.56-6.28-5.49,3.14-31.41,10.99-34.55,22.77-7.06,42.4-.78,62.81,10.21,15.7,8.63,19.63,5.49,23.56-14.13,2.35-13.35,2.35-25.91,6.28-38.47C108.33,2.53,117.75.18,126.39.18c10.21-.78,18.84.78,21.99,10.21,5.49,15.7,8.63,32.98,13.34,49.46,3.93,12.56,9.42,11.77,19.63,3.92,14.13-10.99,30.62-15.7,49.46-13.35,14.91,2.35,24.34,10.21,26.69,23.55,1.57,10.21-.78,18.06-9.42,23.56-7.07,4.71-14.92,8.63-21.99,13.35-15.7,11.77-15.7,30.62.78,42.39,7.07,4.71,14.92,8.64,21.99,13.35,8.63,5.49,10.2,14.13,8.63,23.55-3.14,14.92-12.56,21.99-26.69,23.56-18.85,3.14-34.55-3.92-48.68-14.13-10.99-7.85-17.27-7.85-19.63,3.92-4.71,16.49-6.28,33.76-10.99,50.25-3.14,10.21-11.78,11.78-21.2,11.78-10.21,0-18.85-.78-21.99-10.99-4.71-16.49-7.85-32.98-11.77-50.25-3.15-11.77-8.64-10.99-19.63-3.14-14.13,10.21-30.62,15.7-48.68,13.35-13.35-1.57-24.34-9.42-27.48-22.77-2.36-10.2.78-18.06,8.64-23.55Z"/>
  </g>
</svg>